<?xml version="1.0" encoding="UTF-8"?>
<!-- Generator: visioncortex VTracer 0.6.3 -->
<svg version="1.1" xmlns="http://www.w3.org/2000/svg" width="1280" height="1280">
<path d="M0 0 C422.4 0 844.8 0 1280 0 C1280 422.4 1280 844.8 1280 1280 C857.6 1280 435.2 1280 0 1280 C0 857.6 0 435.2 0 0 Z " fill="#F9FCFE" transform="translate(0,0)"/>
<path d="M0 0 C3.05 -0 6.1 -0.02 9.15 -0.04 C20.41 -0.07 31.19 0.53 42.32 2.19 C44.63 2.42 46.94 2.65 49.26 2.87 C72.03 5.94 94.13 14.46 114.32 25.19 C114.98 25.53 115.64 25.87 116.32 26.23 C147.51 42.56 172.19 68.83 196.65 93.61 C209.88 107.07 209.88 107.07 224.32 119.19 C225.39 120.04 226.46 120.89 227.53 121.75 C249.49 138.58 273.25 146.64 300.95 146.56 C302 146.56 302 146.56 303.08 146.56 C314.25 146.52 324.66 145.7 335.32 142.19 C336 141.97 336.68 141.76 337.38 141.54 C358.19 134.84 374.71 122.2 390.32 107.19 C391.23 106.32 392.14 105.45 393.08 104.55 C398.65 99.11 403.61 93.38 408.32 87.19 C408.98 87.52 409.64 87.85 410.32 88.19 C409.75 95 407.96 101.04 405.76 107.5 C405.22 109.08 405.22 109.08 404.67 110.7 C393.84 142.11 378.05 170.66 354.32 194.19 C353.78 194.74 353.24 195.29 352.68 195.86 C327.16 221.87 291.91 237.09 256.32 243.19 C255.25 243.38 254.19 243.57 253.09 243.76 C190.28 254.27 123.5 242.7 71.39 205.63 C62.8 199.43 54.75 192.7 46.92 185.55 C45.29 184.07 43.65 182.59 41.99 181.12 C35.96 175.76 30.21 170.18 24.54 164.44 C22.71 162.59 20.88 160.75 19.05 158.9 C16.21 156.04 13.38 153.18 10.55 150.31 C7.78 147.52 5 144.73 2.23 141.94 C1.4 141.09 0.57 140.25 -0.29 139.38 C-8.17 131.46 -16.64 124.2 -25.99 118.06 C-26.62 117.65 -27.25 117.23 -27.9 116.81 C-38.93 109.69 -49.9 105.06 -62.68 102.19 C-63.74 101.93 -63.74 101.93 -64.81 101.66 C-70.13 100.39 -75.28 99.74 -80.74 99.5 C-81.98 99.44 -81.98 99.44 -83.23 99.38 C-120.04 97.97 -151.23 113.23 -177.99 137.58 C-182.84 142.18 -187.27 147.17 -191.68 152.19 C-192.34 152.93 -193 153.68 -193.69 154.45 C-195.86 156.95 -197.84 159.43 -199.68 162.19 C-200.73 157.6 -200.56 154.7 -199.05 150.26 C-198.49 148.58 -198.49 148.58 -197.92 146.87 C-197.31 145.11 -197.31 145.11 -196.68 143.31 C-196.26 142.1 -195.85 140.89 -195.42 139.64 C-192.28 130.59 -188.84 121.81 -184.68 113.19 C-184.22 112.21 -184.22 112.21 -183.75 111.22 C-175.04 92.91 -164.65 75.28 -150.75 60.42 C-148.85 58.37 -147.08 56.27 -145.3 54.12 C-133.44 40.57 -116.53 30.43 -100.68 22.19 C-100.01 21.84 -99.34 21.49 -98.65 21.13 C-67.63 5.24 -34.5 -0 0 0 Z " fill="#31BDF7" transform="translate(636.6796875,392.814697265625)"/>
<path d="M0 0 C8.58 7.71 16.82 15.75 24.94 23.95 C26.24 25.26 26.24 25.26 27.56 26.59 C31.13 30.2 34.69 33.8 38.25 37.42 C48.34 47.68 58.32 57.56 70 66 C71.1 66.82 71.1 66.82 72.22 67.65 C84.26 76.46 97.4 82.75 112 86 C112.95 86.24 112.95 86.24 113.91 86.49 C120.12 88.02 126.18 88.47 132.56 88.69 C134.15 88.74 134.15 88.74 135.77 88.8 C172.24 89.88 201.04 76.79 227.61 52.26 C234.94 45.33 241.58 37.77 248 30 C248.99 30.33 249.98 30.66 251 31 C247.11 46.8 241.82 62.38 234.89 77.1 C234.3 78.36 233.72 79.63 233.14 80.9 C225.57 97.57 215.19 113.34 203 127 C202.55 127.51 202.1 128.03 201.63 128.56 C194.98 136.15 188.1 142.92 180 149 C179.47 149.4 178.93 149.81 178.38 150.22 C144.52 175.65 103.68 188.12 61.45 188.17 C60.4 188.17 59.34 188.17 58.26 188.18 C56.04 188.18 53.83 188.19 51.61 188.19 C48.27 188.19 44.93 188.21 41.59 188.22 C29.86 188.26 18.6 187.76 7 186 C4.69 185.76 2.38 185.53 0.06 185.31 C-42.67 179.5 -81.83 156.82 -112.95 127.81 C-115.12 125.79 -117.34 123.85 -119.59 121.92 C-124.48 117.65 -129.02 113.07 -133.58 108.45 C-135.42 106.59 -137.26 104.74 -139.1 102.89 C-141.95 100.01 -144.81 97.13 -147.67 94.24 C-150.44 91.43 -153.23 88.62 -156.02 85.82 C-156.86 84.97 -157.69 84.12 -158.56 83.24 C-164.38 77.39 -170.53 72.12 -177 67 C-178.04 66.16 -178.04 66.16 -179.11 65.3 C-203.51 45.79 -233.46 40.15 -264 42 C-270.18 42.69 -276.07 44.13 -282 46 C-283 46.31 -283 46.31 -284.01 46.62 C-305.21 53.31 -322.98 65.84 -339 81 C-339.82 81.77 -340.64 82.54 -341.49 83.33 C-348.09 89.69 -353.58 96.64 -359 104 C-361 101 -361 101 -360.79 99 C-359.89 95.99 -358.97 92.99 -358 90 C-357.77 89.3 -357.54 88.59 -357.31 87.87 C-344.65 49.36 -325.27 10.07 -292.5 -15.31 C-291.9 -15.78 -291.29 -16.25 -290.67 -16.73 C-219.21 -71.43 -105.98 -73.42 0 0 Z " fill="#31BDF7" transform="translate(592,697)"/>
</svg>
