<?xml version="1.0" encoding="UTF-8"?>
<!-- Generator: visioncortex VTracer 0.6.3 -->
<svg version="1.1" xmlns="http://www.w3.org/2000/svg" width="1230" height="1280">
<path d="M0 0 C5.25 2.02 9.84 5.34 14.52 8.42 C19.21 11.4 24.12 14.01 29 16.69 C38.83 22.14 48.48 27.84 58.1 33.66 C64.88 37.76 71.73 41.7 78.68 45.51 C83.61 48.21 88.48 51.01 93.31 53.88 C99.49 57.54 105.7 61.13 111.94 64.69 C127.24 73.41 142.53 82.15 157.69 91.12 C166.11 96.11 174.64 100.9 183.17 105.71 C196.06 112.98 208.92 120.32 221.69 127.81 C222.57 128.33 223.46 128.84 224.37 129.37 C243.69 140.76 243.69 140.76 247 149 C248.02 153.87 248.15 158.64 248.14 163.59 C248.14 164.45 248.14 165.31 248.15 166.19 C248.16 169.06 248.16 171.94 248.16 174.82 C248.16 176.9 248.17 178.98 248.17 181.06 C248.19 186.78 248.19 192.5 248.2 198.22 C248.21 204.39 248.22 210.56 248.24 216.72 C248.26 227.41 248.28 238.1 248.29 248.79 C248.31 260 248.33 271.21 248.35 282.42 C248.35 283.11 248.35 283.81 248.35 284.53 C248.36 288.07 248.36 291.61 248.37 295.15 C248.42 320.22 248.46 345.29 248.5 370.36 C248.54 394.71 248.58 419.07 248.63 443.42 C248.63 444.18 248.63 444.93 248.63 445.7 C248.65 453.24 248.66 460.78 248.67 468.32 C248.7 483.67 248.73 499.03 248.76 514.39 C248.76 515.1 248.76 515.8 248.76 516.53 C248.84 563.69 248.92 610.84 249 658 C252.76 658 254.3 656.82 257.5 654.88 C261.32 652.59 265.14 650.35 269.06 648.25 C274.84 645.13 280.5 641.83 286.18 638.52 C292.67 634.75 299.2 631.06 305.75 627.38 C314.59 622.4 323.34 617.28 332 612 C336.96 608.98 341.92 606.02 347.03 603.27 C353.17 599.93 359.21 596.44 365.25 592.94 C373.8 587.98 382.38 583.08 391 578.25 C398.75 573.9 406.36 569.37 413.91 564.68 C418 562.16 422.11 559.85 426.44 557.75 C427.3 557.31 428.16 556.87 429.05 556.42 C432 555 432 555 434.9 554.07 C438.62 552.51 440.49 551.19 443 548 C445.23 540.13 444.41 531.44 444.29 523.36 C444.29 520.8 444.3 518.24 444.31 515.67 C444.33 510.16 444.31 504.65 444.26 499.14 C444.18 491.16 444.18 483.18 444.18 475.21 C444.2 462.25 444.16 449.3 444.09 436.35 C444.03 423.78 443.98 411.22 443.95 398.65 C443.95 397.49 443.95 397.49 443.95 396.31 C443.93 387.86 443.92 379.41 443.91 370.96 C443.91 369.84 443.91 369.84 443.91 368.71 C443.9 362.74 443.9 362.74 443.9 359.79 C443.89 351.1 443.87 342.41 443.82 333.72 C443.79 327.63 443.77 321.53 443.76 315.43 C443.75 312.93 443.73 310.43 443.71 307.94 C443.69 304.52 443.68 301.11 443.68 297.7 C443.66 296.71 443.65 295.72 443.64 294.7 C443.66 286.5 445.76 280.49 451 274 C453.85 271.74 456.88 269.87 460 268 C461.42 267.15 461.42 267.15 462.87 266.28 C467.63 263.46 472.44 260.75 477.31 258.12 C481.79 255.71 486.15 253.13 490.5 250.5 C495.52 247.46 500.58 244.55 505.76 241.77 C526.5 230.43 546.83 218.28 567.25 206.36 C568.18 205.81 569.12 205.27 570.09 204.7 C572.13 203.51 574.17 202.31 576.22 201.12 C577.27 200.5 578.33 199.88 579.41 199.25 C580.37 198.69 581.32 198.13 582.3 197.56 C584.83 196.1 587.37 194.69 589.94 193.31 C598.23 188.83 606.38 184.09 614.56 179.4 C616.58 178.24 618.6 177.09 620.62 175.94 C626.89 172.37 633.13 168.76 639.36 165.12 C651.3 158.12 663.31 151.25 675.38 144.47 C677.9 143.06 680.41 141.64 682.93 140.22 C684.39 139.4 685.85 138.57 687.31 137.75 C687.97 137.38 688.63 137.01 689.31 136.63 C695.58 133.09 699.71 131.72 707 133 C711.85 135.18 716.3 137.86 720.82 140.66 C724.46 142.9 728.17 145 731.88 147.12 C733.48 148.06 735.09 148.99 736.7 149.92 C750.97 158.21 765.25 166.47 779.62 174.56 C788.52 179.57 797.35 184.68 806.15 189.84 C815.21 195.14 824.32 200.35 833.45 205.55 C873.28 228.23 873.28 228.23 891.69 239.12 C898.16 242.96 904.7 246.68 911.25 250.38 C912.22 250.92 913.18 251.47 914.18 252.03 C919.06 254.79 923.95 257.53 928.86 260.25 C930.72 261.29 932.58 262.33 934.44 263.38 C935.28 263.84 936.13 264.3 937 264.78 C944.75 269.14 953.77 274.91 956.59 283.87 C957.05 286.24 957.13 288.41 957.13 290.81 C957.14 291.79 957.14 292.76 957.14 293.76 C957.14 294.83 957.14 295.89 957.14 296.99 C957.14 298.69 957.14 298.69 957.15 300.42 C957.16 304.24 957.16 308.05 957.16 311.86 C957.17 314.59 957.17 317.32 957.18 320.05 C957.19 327.47 957.2 334.89 957.2 342.31 C957.2 346.95 957.21 351.58 957.21 356.21 C957.22 369.04 957.23 381.88 957.24 394.71 C957.24 395.53 957.24 396.35 957.24 397.19 C957.24 398.02 957.24 398.84 957.24 399.69 C957.24 401.36 957.24 403.02 957.24 404.69 C957.24 405.52 957.24 406.35 957.24 407.2 C957.24 420.61 957.26 434.01 957.29 447.42 C957.31 461.18 957.32 474.95 957.32 488.71 C957.32 496.44 957.33 504.17 957.35 511.9 C957.36 518.48 957.37 525.06 957.36 531.64 C957.36 535 957.36 538.35 957.37 541.71 C957.38 545.35 957.38 548.99 957.37 552.63 C957.38 553.69 957.38 554.75 957.39 555.84 C957.34 563.09 956.53 568.07 951.65 573.72 C949.06 575.95 946.55 577.74 943.62 579.5 C943.08 579.83 942.53 580.16 941.97 580.5 C935.46 584.39 928.83 588.08 922.21 591.8 C915.06 595.82 907.96 599.92 900.88 604.06 C892.47 608.98 884.04 613.85 875.58 618.67 C869.87 621.92 864.18 625.2 858.5 628.5 C851.95 632.3 845.39 636.07 838.81 639.81 C830.96 644.29 823.13 648.82 815.31 653.38 C814.33 653.95 813.35 654.52 812.34 655.1 C806.96 658.25 801.6 661.43 796.26 664.66 C793.93 666.04 791.57 667.34 789.19 668.62 C780.03 673.57 771.03 678.81 762 684 C761.19 684.47 760.38 684.93 759.54 685.41 C758.77 685.86 757.99 686.31 757.19 686.77 C756.47 687.18 755.75 687.6 755 688.02 C753.47 688.91 751.94 689.81 750.42 690.73 C746.16 693.29 741.91 695.52 737.34 697.49 C726.9 702.11 726.9 702.11 719.75 710.57 C717.75 718.11 718.22 725.85 718.47 733.58 C718.48 736.17 718.47 738.76 718.45 741.35 C718.44 746.91 718.5 752.46 718.61 758.02 C718.78 766.06 718.82 774.1 718.83 782.15 C718.84 795.21 718.96 808.27 719.13 821.33 C719.3 834 719.44 846.66 719.52 859.32 C719.53 860.49 719.53 860.49 719.54 861.68 C719.59 870.21 719.64 878.74 719.68 887.26 C719.69 889.53 719.7 891.79 719.72 894.05 C719.72 895.54 719.73 897.04 719.74 898.53 C719.79 908 719.87 917.48 719.99 926.95 C720.06 932.38 720.11 937.81 720.16 943.24 C720.18 945.76 720.22 948.28 720.26 950.79 C720.31 954.23 720.35 957.67 720.37 961.1 C720.41 962.6 720.41 962.6 720.44 964.12 C720.46 970.99 719.24 976.46 714.5 981.64 C712.56 983.4 710.51 984.47 708.19 985.69 C702.11 988.93 696.13 992.33 690.15 995.77 C685.83 998.24 681.51 1000.72 677.19 1003.19 C675.88 1003.94 675.88 1003.94 674.55 1004.7 C670.5 1007.01 666.45 1009.31 662.37 1011.57 C658.17 1013.9 654.01 1016.3 649.88 1018.75 C649.15 1019.18 648.42 1019.61 647.67 1020.05 C644.09 1022.16 640.51 1024.29 636.95 1026.44 C635.98 1027.02 635.98 1027.02 635 1027.62 C633.25 1028.68 631.5 1029.74 629.76 1030.8 C626.81 1032.56 623.81 1034.2 620.79 1035.84 C614.88 1039.04 609.1 1042.41 603.31 1045.81 C595.89 1050.16 588.45 1054.47 580.94 1058.67 C568.2 1065.8 555.53 1073.07 542.95 1080.5 C537.02 1084 531.04 1087.42 525.06 1090.83 C522.63 1092.21 520.2 1093.6 517.78 1094.99 C516.85 1095.52 515.93 1096.04 514.98 1096.59 C513.17 1097.63 511.36 1098.66 509.55 1099.7 C505.5 1102.02 501.44 1104.31 497.36 1106.57 C493.2 1108.88 489.09 1111.26 485 1113.69 C484.28 1114.11 483.55 1114.54 482.81 1114.98 C480.54 1116.32 478.27 1117.66 476 1119 C466.38 1124.68 456.75 1130.32 447.03 1135.84 C442.85 1138.22 438.68 1140.61 434.5 1143 C424.37 1148.79 424.37 1148.79 420.14 1151.2 C409.22 1157.41 398.37 1163.74 387.62 1170.25 C384.52 1172.12 381.38 1173.9 378.19 1175.62 C369.97 1180.06 361.9 1184.75 353.79 1189.4 C351.08 1190.96 348.36 1192.51 345.64 1194.06 C331.11 1202.35 316.6 1210.69 302.19 1219.19 C295.5 1223.13 288.78 1227.01 282.03 1230.84 C277.85 1233.22 273.68 1235.61 269.5 1238 C267.69 1239.03 265.89 1240.07 264.08 1241.1 C260.39 1243.21 256.69 1245.32 253 1247.44 C251.32 1248.4 249.63 1249.36 247.93 1250.31 C246.11 1251.36 244.31 1252.44 242.54 1253.56 C236.88 1257.06 231.69 1258.48 225 1258 C219.19 1256.53 214.19 1253.69 209.22 1250.41 C206.88 1248.92 204.49 1247.6 202.04 1246.29 C195.72 1242.86 189.48 1239.29 183.25 1235.69 C182.11 1235.03 180.97 1234.37 179.79 1233.69 C173.08 1229.81 166.41 1225.88 159.79 1221.86 C155.55 1219.3 151.24 1216.93 146.88 1214.59 C143.36 1212.65 139.93 1210.58 136.5 1208.5 C131.48 1205.46 126.42 1202.55 121.24 1199.77 C100.5 1188.43 80.17 1176.28 59.75 1164.36 C58.34 1163.53 58.34 1163.53 56.89 1162.69 C54.92 1161.54 52.96 1160.39 51 1159.23 C45.32 1155.9 39.61 1152.68 33.82 1149.55 C28.58 1146.68 23.42 1143.68 18.25 1140.69 C17.11 1140.03 15.97 1139.37 14.79 1138.69 C8.08 1134.81 1.41 1130.88 -5.21 1126.86 C-9.45 1124.3 -13.76 1121.93 -18.12 1119.59 C-22.24 1117.31 -26.25 1114.88 -30.26 1112.42 C-34.77 1109.68 -39.38 1107.15 -44.02 1104.63 C-49.31 1101.73 -54.53 1098.71 -59.75 1095.69 C-60.89 1095.03 -62.03 1094.37 -63.21 1093.69 C-69.92 1089.81 -76.59 1085.88 -83.21 1081.86 C-87.45 1079.3 -91.76 1076.93 -96.12 1074.59 C-99.64 1072.65 -103.07 1070.58 -106.5 1068.5 C-111.52 1065.46 -116.58 1062.55 -121.76 1059.77 C-142.5 1048.43 -162.83 1036.28 -183.25 1024.36 C-184.19 1023.81 -185.14 1023.26 -186.11 1022.69 C-188.08 1021.54 -190.04 1020.39 -192 1019.23 C-197.68 1015.9 -203.39 1012.68 -209.18 1009.55 C-214.42 1006.68 -219.58 1003.68 -224.75 1000.69 C-225.89 1000.03 -227.02 999.37 -228.19 998.7 C-236.51 993.88 -244.78 988.99 -253 984 C-253.83 983.57 -254.66 983.14 -255.51 982.7 C-260.02 979.62 -263.47 976.71 -264.56 971.13 C-264.77 967.5 -264.79 963.91 -264.75 960.27 C-264.75 958.86 -264.76 957.44 -264.77 956.03 C-264.79 952.14 -264.77 948.25 -264.75 944.36 C-264.73 940.13 -264.75 935.9 -264.76 931.66 C-264.78 924.25 -264.78 916.83 -264.76 909.41 C-264.73 898.38 -264.73 887.35 -264.74 876.32 C-264.76 857.77 -264.75 839.21 -264.73 820.66 C-264.7 802.28 -264.69 783.9 -264.69 765.52 C-264.69 764.38 -264.69 763.23 -264.69 762.06 C-264.69 757.42 -264.69 752.78 -264.69 748.15 C-264.69 704.63 -264.66 661.11 -264.61 617.59 C-264.57 578.91 -264.55 540.23 -264.56 501.55 C-264.56 499.06 -264.56 496.58 -264.56 494.09 C-264.56 492.87 -264.56 491.64 -264.56 490.37 C-264.56 484.19 -264.56 478.01 -264.56 471.83 C-264.56 470.61 -264.56 469.39 -264.56 468.13 C-264.56 435.83 -264.54 403.53 -264.53 371.23 C-264.53 370.08 -264.52 368.93 -264.52 367.75 C-264.52 363.13 -264.52 358.51 -264.52 353.89 C-264.51 337.81 -264.5 321.72 -264.5 305.63 C-264.5 284.91 -264.49 264.18 -264.46 243.45 C-264.44 232.49 -264.44 221.52 -264.44 210.55 C-264.44 203.23 -264.43 195.91 -264.42 188.6 C-264.41 184.42 -264.4 180.25 -264.41 176.07 C-264.42 172.28 -264.41 168.48 -264.39 164.69 C-264.39 162.67 -264.4 160.66 -264.4 158.65 C-264.4 157.45 -264.39 156.26 -264.38 155.03 C-264.38 154 -264.38 152.97 -264.38 151.92 C-263.74 147.01 -261.86 143.82 -258.31 140.44 C-253.19 136.5 -247.65 133.32 -241.97 130.27 C-235.97 127.01 -230.07 123.58 -224.19 120.12 C-222.06 118.88 -219.93 117.63 -217.8 116.39 C-216.8 115.8 -215.79 115.21 -214.75 114.6 C-209.19 111.36 -203.6 108.18 -198 105 C-194.37 102.94 -190.75 100.88 -187.12 98.81 C-186.24 98.31 -185.36 97.81 -184.46 97.3 C-180.61 95.11 -176.79 92.89 -173.05 90.51 C-169.12 88.02 -165.06 85.82 -160.96 83.62 C-155.67 80.73 -150.47 77.7 -145.25 74.69 C-143.54 73.7 -143.54 73.7 -141.79 72.69 C-135.08 68.81 -128.41 64.87 -121.78 60.86 C-117.63 58.35 -113.42 56.02 -109.15 53.73 C-104.84 51.36 -100.57 48.9 -96.31 46.44 C-95.52 45.98 -94.72 45.52 -93.9 45.05 C-90.26 42.94 -86.65 40.8 -83.11 38.54 C-79.15 36.04 -75.06 33.82 -70.94 31.6 C-65.78 28.79 -60.71 25.82 -55.62 22.88 C-46.3 17.48 -36.95 12.1 -27.59 6.77 C-26.79 6.31 -25.99 5.86 -25.17 5.39 C-24.43 4.97 -23.69 4.56 -22.93 4.13 C-21.38 3.22 -19.87 2.23 -18.38 1.22 C-12.86 -1.61 -5.97 -1.26 0 0 Z M-16.19 46.38 C-16.8 46.74 -17.41 47.1 -18.05 47.47 C-19.36 48.24 -20.68 49.02 -21.99 49.8 C-23.94 50.96 -25.9 52.12 -27.86 53.27 C-30.62 54.89 -33.39 56.52 -36.16 58.15 C-41.89 61.53 -47.63 64.89 -53.38 68.25 C-54.36 68.83 -55.35 69.41 -56.36 70 C-62 73.3 -67.68 76.48 -73.42 79.59 C-77.18 81.65 -80.88 83.81 -84.56 86 C-85.29 86.43 -86.02 86.86 -86.78 87.31 C-90.66 89.6 -94.52 91.91 -98.38 94.25 C-102.54 96.76 -106.79 99.09 -111.07 101.4 C-121.85 107.29 -132.42 113.58 -143.03 119.78 C-149.51 123.57 -156.03 127.29 -162.6 130.94 C-166.8 133.29 -170.92 135.76 -175 138.31 C-178.85 140.71 -182.66 142.92 -186.75 144.86 C-192.29 147.66 -197.62 150.89 -203 154 C-203 154.99 -203 155.98 -203 157 C-202.3 157.39 -201.59 157.77 -200.87 158.17 C-187.71 165.41 -174.63 172.73 -161.73 180.43 C-155.37 184.21 -148.95 187.85 -142.46 191.41 C-136.82 194.52 -131.27 197.76 -125.73 201.05 C-119.81 204.55 -113.82 207.94 -107.81 211.31 C-100.15 215.62 -92.55 220.01 -85 224.5 C-76.54 229.54 -68 234.43 -59.41 239.25 C-51.68 243.61 -43.99 248.04 -36.32 252.5 C-31.23 255.45 -26.14 258.38 -21.02 261.27 C-19.11 262.36 -17.22 263.49 -15.35 264.67 C-14.19 265.39 -14.19 265.39 -13 266.12 C-12.36 266.54 -11.72 266.96 -11.06 267.38 C-7.25 268.52 -3.73 266.38 -0.34 264.61 C0.55 264.09 1.43 263.56 2.34 263.02 C3.34 262.44 4.33 261.86 5.35 261.25 C6.39 260.63 7.43 260.01 8.5 259.38 C10.67 258.09 12.85 256.81 15.02 255.53 C16.06 254.92 17.1 254.3 18.17 253.67 C21.49 251.71 24.83 249.78 28.19 247.88 C29.24 247.28 30.28 246.68 31.36 246.07 C32.58 245.38 33.79 244.69 35 244 C38.63 241.94 42.25 239.88 45.88 237.81 C46.76 237.31 47.64 236.81 48.54 236.3 C52.39 234.11 56.21 231.89 59.95 229.51 C63.88 227.02 67.94 224.82 72.04 222.62 C77.33 219.73 82.53 216.7 87.75 213.69 C88.89 213.03 90.03 212.37 91.21 211.69 C98.37 207.55 105.5 203.35 112.56 199.03 C116.35 196.79 120.21 194.69 124.08 192.59 C145 181.22 165.6 169.27 186 157 C185.92 155.1 185.92 155.1 185 153 C182.6 151.22 182.6 151.22 179.44 149.62 C178.15 148.93 176.87 148.22 175.59 147.52 C174.86 147.13 174.14 146.73 173.39 146.33 C168.73 143.74 164.16 141.01 159.56 138.31 C151.6 133.65 143.61 129.07 135.56 124.56 C126.18 119.3 116.94 113.82 107.77 108.2 C101.85 104.6 95.85 101.36 89.62 98.31 C86.65 96.83 83.85 95.17 81.06 93.38 C75.45 89.86 69.76 86.53 64 83.25 C63.11 82.74 62.21 82.23 61.29 81.71 C59.45 80.66 57.61 79.62 55.77 78.57 C51.26 76.01 46.75 73.45 42.25 70.88 C40.94 70.13 40.94 70.13 39.61 69.37 C33.37 65.8 27.17 62.18 20.98 58.52 C14.36 54.61 7.69 50.8 1 47 C0.4 46.63 -0.2 46.26 -0.81 45.89 C-7.12 42.06 -10.03 42.72 -16.19 46.38 Z M187 155 C188 157 188 157 188 157 Z M695 179.62 C694.01 180.18 693.03 180.73 692.01 181.3 C691.02 181.86 690.02 182.42 689 183 C687.29 183.92 685.58 184.84 683.88 185.75 C674.3 190.97 664.95 196.6 655.62 202.25 C651.46 204.76 647.21 207.09 642.93 209.4 C632.15 215.29 621.58 221.58 610.97 227.78 C604.49 231.57 597.97 235.29 591.4 238.94 C586.18 241.86 581.11 244.97 576.06 248.18 C573.82 249.51 571.65 250.69 569.31 251.83 C564.07 254.41 559.09 257.4 554.06 260.38 C544.33 266.1 534.53 271.67 524.64 277.12 C517.93 280.84 511.43 284.81 505 289 C507.52 290.94 510.05 292.69 512.81 294.28 C513.91 294.91 513.91 294.91 515.04 295.56 C515.83 296.02 516.62 296.47 517.44 296.94 C518.7 297.66 518.7 297.66 519.98 298.4 C526.86 302.36 533.76 306.3 540.66 310.23 C555.05 318.45 569.43 326.68 583.69 335.12 C593.09 340.69 602.63 346.03 612.15 351.39 C625.55 358.95 638.85 366.66 652.1 374.47 C661.95 380.26 671.88 385.92 681.88 391.45 C682.83 391.97 683.79 392.5 684.77 393.05 C685.67 393.54 686.57 394.04 687.49 394.55 C689.83 395.9 692.03 397.37 694.26 398.89 C697.95 401.21 700.61 401.68 705 401 C707.88 399.72 707.88 399.72 710.62 397.75 C711.77 397 712.91 396.26 714.06 395.52 C714.68 395.11 715.31 394.71 715.96 394.29 C719.79 391.87 723.74 389.67 727.69 387.44 C729.5 386.41 731.3 385.38 733.11 384.35 C734.06 383.81 735.01 383.27 735.98 382.72 C749.13 375.22 762.27 367.71 775.22 359.86 C779.45 357.3 783.76 354.93 788.12 352.59 C791.64 350.65 795.07 348.58 798.5 346.5 C803.52 343.46 808.59 340.55 813.76 337.77 C826.42 330.85 838.84 323.53 851.18 316.08 C856.02 313.16 860.89 310.35 865.88 307.7 C871.5 304.64 877.03 301.42 882.57 298.22 C886.99 295.68 891.4 293.21 896 291 C895.65 288.33 895.35 287.27 893.19 285.59 C892.39 285.16 891.6 284.73 890.79 284.29 C889.88 283.8 888.98 283.3 888.05 282.79 C887.07 282.26 886.08 281.73 885.06 281.19 C882.96 280.03 880.86 278.88 878.76 277.72 C877.11 276.81 877.11 276.81 875.42 275.89 C869.69 272.73 864.03 269.46 858.38 266.19 C857.27 265.55 856.16 264.91 855.03 264.26 C849.5 261.06 844.03 257.82 838.62 254.44 C833.89 251.47 829.02 248.98 824 246.54 C819.77 244.37 815.81 241.84 811.79 239.32 C807.26 236.51 802.63 233.88 798 231.25 C797.11 230.74 796.21 230.23 795.29 229.71 C793.45 228.66 791.61 227.62 789.77 226.57 C785.26 224.01 780.75 221.45 776.25 218.88 C775.37 218.37 774.5 217.87 773.59 217.36 C767.56 213.91 761.57 210.4 755.59 206.86 C748.63 202.75 741.59 198.8 734.55 194.84 C727.78 191.03 721.07 187.14 714.4 183.16 C705.07 177.08 705.07 177.08 695 179.62 Z M-225 191 C-225.19 263.64 -225.36 336.29 -225.47 408.93 C-225.47 410 -225.47 411.08 -225.47 412.19 C-225.5 435.54 -225.53 458.89 -225.56 482.25 C-225.58 493.7 -225.59 505.15 -225.6 516.6 C-225.61 517.74 -225.61 518.88 -225.61 520.06 C-225.66 557.02 -225.74 593.97 -225.84 630.93 C-225.94 668.9 -226.01 706.87 -226.03 744.84 C-226.04 750.2 -226.04 755.56 -226.04 760.92 C-226.04 761.98 -226.05 763.03 -226.05 764.12 C-226.06 781.12 -226.11 798.12 -226.18 815.12 C-226.24 832.2 -226.26 849.27 -226.25 866.35 C-226.24 876.51 -226.26 886.66 -226.33 896.82 C-226.37 903.59 -226.37 910.37 -226.34 917.15 C-226.32 921.01 -226.32 924.88 -226.37 928.74 C-226.43 932.91 -226.39 937.06 -226.35 941.22 C-226.4 943.03 -226.4 943.03 -226.44 944.88 C-226.37 948.26 -226.19 950.83 -225 954 C-221.69 957.15 -218.1 959.05 -214 961 C-212.18 962 -210.37 963 -208.56 964.01 C-207.65 964.5 -206.74 964.98 -205.8 965.49 C-200.83 968.18 -195.95 971.04 -191.06 973.88 C-188.77 975.2 -186.47 976.53 -184.18 977.86 C-183.59 978.19 -183.01 978.53 -182.4 978.88 C-175.84 982.67 -169.27 986.43 -162.69 990.19 C-161.5 990.87 -160.31 991.55 -159.12 992.23 C-153.92 995.2 -148.72 998.16 -143.52 1001.11 C-133.17 1006.99 -122.91 1013.01 -112.69 1019.1 C-104.53 1023.96 -96.3 1028.66 -87.95 1033.19 C-81.18 1036.87 -74.54 1040.75 -67.92 1044.68 C-64.45 1046.74 -60.95 1048.76 -57.44 1050.75 C-51.12 1054.34 -44.84 1058.01 -38.56 1061.69 C-29.47 1067.01 -20.33 1072.22 -11.15 1077.39 C-4.88 1080.92 1.33 1084.53 7.52 1088.2 C13.36 1091.65 19.27 1094.99 25.19 1098.31 C32.85 1102.62 40.45 1107.01 48 1111.5 C56.46 1116.54 65 1121.43 73.59 1126.25 C80.57 1130.18 87.52 1134.17 94.45 1138.2 C98.79 1140.72 103.13 1143.22 107.5 1145.69 C113.24 1148.95 118.91 1152.32 124.59 1155.7 C134.66 1161.71 144.76 1167.61 155.07 1173.2 C160.21 1176 165.28 1178.89 170.31 1181.88 C177.25 1185.99 184.23 1190.02 191.25 1194 C192.24 1194.56 193.23 1195.13 194.25 1195.71 C195.18 1196.24 196.12 1196.77 197.08 1197.31 C197.91 1197.78 198.74 1198.25 199.59 1198.74 C202.01 1200.01 204.46 1201 207 1202 C207.11 1173.4 207.2 1144.81 207.26 1116.21 C207.26 1112.84 207.27 1109.46 207.27 1106.09 C207.28 1105.42 207.28 1104.75 207.28 1104.05 C207.3 1093.17 207.34 1082.29 207.39 1071.4 C207.43 1060.24 207.46 1049.07 207.47 1037.91 C207.48 1031.64 207.49 1025.36 207.53 1019.09 C207.56 1013.19 207.57 1007.29 207.57 1001.39 C207.57 999.22 207.58 997.06 207.6 994.89 C207.62 991.93 207.61 988.98 207.6 986.02 C207.62 985.16 207.63 984.3 207.65 983.41 C207.6 978.42 207.6 978.42 204.6 974.52 C203.74 974.02 202.88 973.52 202 973 C201.29 972.56 200.57 972.13 199.83 971.68 C199.12 971.3 198.4 970.91 197.66 970.52 C196.85 970.08 196.04 969.64 195.21 969.19 C194.36 968.74 193.5 968.28 192.62 967.81 C185.18 963.78 177.87 959.6 170.65 955.17 C166.85 952.87 162.94 950.76 159.03 948.64 C153.59 945.69 148.17 942.69 142.75 939.69 C141.86 939.2 141.86 939.2 140.96 938.69 C133.49 934.56 126.09 930.33 118.82 925.87 C114.36 923.16 109.79 920.8 105.07 918.58 C101.49 916.74 98.07 914.67 94.63 912.58 C90.56 910.13 86.44 907.79 82.31 905.44 C81.41 904.93 80.52 904.41 79.59 903.88 C70.05 898.45 60.5 893.05 50.94 887.66 C47.96 885.98 44.98 884.29 42 882.61 C30.39 876.04 30.39 876.04 18.78 869.5 C15.51 867.67 12.26 865.84 9 864 C8.15 863.52 7.3 863.04 6.43 862.55 C3.64 860.97 0.85 859.39 -1.94 857.81 C-2.8 857.33 -3.67 856.84 -4.56 856.34 C-23.69 845.45 -23.69 845.45 -27.11 837.38 C-28.22 833.16 -28.27 829.33 -28.23 824.99 C-28.24 823.64 -28.24 823.64 -28.24 822.26 C-28.24 819.23 -28.22 816.2 -28.21 813.17 C-28.21 810.98 -28.21 808.79 -28.21 806.6 C-28.2 801.83 -28.2 797.06 -28.18 792.29 C-28.16 784.54 -28.15 776.78 -28.14 769.02 C-28.13 758.49 -28.11 747.96 -28.1 737.44 C-28.06 719.66 -28.05 701.89 -28.05 684.12 C-28.05 680.34 -28.05 676.56 -28.05 672.78 C-28.05 668.18 -28.05 663.59 -28.05 659 C-28.04 641.69 -28.04 624.38 -28.03 607.06 C-28.03 606.27 -28.03 605.48 -28.03 604.67 C-28.02 579 -27.98 553.34 -27.92 527.67 C-27.87 501.28 -27.85 474.9 -27.87 448.51 C-27.87 444.79 -27.87 441.06 -27.88 437.34 C-27.88 436.61 -27.88 435.87 -27.88 435.12 C-27.88 423.31 -27.85 411.51 -27.81 399.7 C-27.77 387.84 -27.76 375.98 -27.79 364.12 C-27.8 357.69 -27.8 351.27 -27.76 344.84 C-27.72 338.96 -27.72 333.08 -27.76 327.2 C-27.77 325.07 -27.76 322.94 -27.73 320.81 C-27.14 309.9 -27.14 309.9 -31.16 300.25 C-33.72 298.42 -36.09 297.2 -39 296 C-40.45 295.14 -41.89 294.25 -43.31 293.34 C-44.68 292.53 -46.06 291.73 -47.44 290.94 C-48.18 290.51 -48.92 290.07 -49.68 289.63 C-54.36 286.92 -59.07 284.29 -63.84 281.73 C-71.03 277.79 -78.12 273.66 -85.23 269.58 C-87.87 268.08 -90.51 266.58 -93.15 265.08 C-103.91 258.98 -114.57 252.71 -125.12 246.25 C-131.08 242.63 -137.12 239.38 -143.38 236.31 C-146.35 234.83 -149.15 233.17 -151.94 231.38 C-157.55 227.86 -163.24 224.53 -169 221.25 C-169.9 220.74 -170.79 220.23 -171.71 219.7 C-175.37 217.63 -179.02 215.55 -182.68 213.48 C-185.31 211.99 -187.93 210.5 -190.56 209 C-191.85 208.27 -191.85 208.27 -193.16 207.53 C-197.69 204.94 -202.18 202.3 -206.62 199.58 C-207.54 199.02 -208.45 198.46 -209.39 197.89 C-211.13 196.82 -212.87 195.74 -214.61 194.66 C-215.39 194.18 -216.17 193.7 -216.97 193.2 C-217.66 192.78 -218.34 192.35 -219.04 191.91 C-221.24 190.72 -221.24 190.72 -225 191 Z M200.12 194.25 C198.87 194.98 197.61 195.72 196.35 196.45 C195.32 197.06 195.32 197.06 194.26 197.68 C190.02 200.15 185.76 202.57 181.5 205 C179.68 206.04 177.86 207.08 176.05 208.12 C173.08 209.81 170.11 211.51 167.14 213.2 C156.22 219.41 145.37 225.74 134.62 232.25 C131.52 234.12 128.38 235.9 125.19 237.62 C116.97 242.06 108.9 246.75 100.79 251.4 C98.08 252.96 95.36 254.51 92.64 256.06 C77.39 264.76 62.18 273.52 47.07 282.44 C42.69 285.02 38.29 287.56 33.88 290.06 C28.79 292.96 23.72 295.89 18.69 298.88 C18.03 299.26 17.38 299.64 16.71 300.03 C13.28 301.94 13.28 301.94 11 305 C10.9 307.64 10.86 310.25 10.87 312.89 C10.87 313.72 10.87 314.55 10.87 315.4 C10.86 318.21 10.86 321.02 10.87 323.82 C10.86 325.84 10.86 327.86 10.86 329.88 C10.85 335.46 10.85 341.04 10.85 346.61 C10.85 352.62 10.85 358.62 10.84 364.63 C10.84 376.4 10.83 388.17 10.83 399.95 C10.83 409.51 10.83 419.08 10.83 428.64 C10.83 431.39 10.83 434.14 10.82 436.89 C10.82 437.58 10.82 438.26 10.82 438.96 C10.82 458.2 10.81 477.44 10.81 496.67 C10.81 497.4 10.81 498.12 10.81 498.87 C10.81 502.55 10.81 506.23 10.81 509.91 C10.81 510.64 10.81 511.37 10.81 512.12 C10.81 513.6 10.81 515.08 10.81 516.55 C10.82 539.55 10.81 562.54 10.79 585.53 C10.78 611.35 10.77 637.16 10.77 662.97 C10.77 665.72 10.77 668.47 10.77 671.22 C10.77 671.9 10.77 672.58 10.77 673.28 C10.77 684.19 10.76 695.11 10.76 706.03 C10.75 716.99 10.75 727.96 10.75 738.92 C10.76 744.87 10.76 750.81 10.75 756.76 C10.74 762.19 10.74 767.62 10.75 773.06 C10.75 775.03 10.75 777.01 10.74 778.98 C10.74 781.65 10.74 784.32 10.75 786.98 C10.75 787.76 10.74 788.54 10.74 789.34 C10.76 793.11 10.86 794.78 13 798 C13 797.34 13 796.68 13 796 C14.03 795.62 14.03 795.62 15.07 795.23 C18.46 793.8 21.62 792.07 24.81 790.25 C25.83 789.67 25.83 789.67 26.87 789.09 C34.33 784.85 41.73 780.5 49.13 776.17 C54.91 772.79 60.71 769.45 66.56 766.19 C75.09 761.43 83.43 756.39 91.77 751.31 C95.81 748.87 99.87 746.51 104.02 744.27 C110.2 740.91 116.29 737.4 122.38 733.88 C130.52 729.16 138.69 724.46 146.88 719.81 C153.84 715.86 160.72 711.78 167.56 707.62 C173.66 703.93 179.76 700.51 186.2 697.43 C190.59 695.19 194.73 692.56 198.89 689.93 C202.21 687.87 205.61 685.94 209 684 C209 521.31 209 358.62 209 191 C205.13 191 203.46 192.28 200.12 194.25 Z M485 324 C482.92 326.08 483.83 330.63 483.82 333.51 C483.81 334.41 483.8 335.31 483.8 336.24 C483.77 339.3 483.76 342.35 483.74 345.4 C483.73 347.57 483.71 349.75 483.7 351.93 C483.57 371.82 483.5 391.71 483.45 411.61 C483.44 414.27 483.44 416.93 483.43 419.59 C483.43 420.26 483.43 420.92 483.42 421.6 C483.4 431.65 483.34 441.7 483.27 451.75 C483.18 463.42 483.13 475.08 483.11 486.75 C483.1 492.93 483.08 499.11 483.02 505.28 C482.96 511.1 482.95 516.91 482.96 522.72 C482.96 524.85 482.95 526.99 482.91 529.12 C482.24 539.89 482.24 539.89 485.91 549.53 C488.26 551.13 490.33 552.06 493 553 C494.53 553.87 496.06 554.76 497.56 555.68 C499.18 556.6 500.81 557.52 502.44 558.44 C504.28 559.48 506.13 560.53 507.97 561.57 C508.94 562.13 509.91 562.68 510.91 563.24 C516.44 566.39 521.94 569.57 527.44 572.75 C533.99 576.54 540.55 580.32 547.12 584.06 C551.2 586.38 555.25 588.73 559.29 591.1 C570.71 597.79 582.18 604.37 593.75 610.8 C601.74 615.26 609.64 619.86 617.48 624.56 C622.73 627.7 628.04 630.68 633.41 633.58 C636.99 635.54 640.5 637.6 644 639.69 C651.2 643.95 658.42 648.15 665.67 652.33 C666.42 652.77 667.18 653.2 667.95 653.65 C669.01 654.26 669.01 654.26 670.09 654.88 C671.7 655.83 673.28 656.82 674.86 657.82 C677.03 659.24 677.03 659.24 680 659 C680.19 630.16 680.33 601.32 680.41 572.48 C680.42 569.81 680.43 567.15 680.44 564.48 C680.44 563.49 680.44 563.49 680.45 562.47 C680.48 552.42 680.53 542.36 680.6 532.3 C680.68 520.63 680.73 508.96 680.75 497.29 C680.76 491.11 680.79 484.93 680.85 478.75 C680.9 472.93 680.92 467.12 680.9 461.3 C680.91 459.16 680.92 457.03 680.95 454.89 C680.99 451.98 680.98 449.07 680.96 446.15 C681 444.88 681 444.88 681.03 443.58 C680.96 439.97 680.81 437.86 678.26 435.17 C676.23 433.62 674.2 432.28 672 431 C671.01 430.39 670.02 429.78 669 429.16 C668.01 428.61 667.02 428.06 666 427.5 C664.79 426.83 663.59 426.15 662.39 425.48 C661.71 425.1 661.03 424.72 660.33 424.33 C654.45 420.98 648.63 417.53 642.79 414.1 C637.08 410.76 631.33 407.52 625.51 404.38 C622.04 402.48 618.65 400.47 615.25 398.44 C608.38 394.37 601.46 390.41 594.5 386.5 C587.12 382.35 579.77 378.13 572.49 373.81 C566.56 370.3 560.57 366.93 554.56 363.56 C546.62 359.11 538.82 354.48 531.09 349.68 C526.14 346.63 521.09 343.97 515.85 341.45 C511.54 339.26 507.49 336.67 503.4 334.1 C499.72 331.83 496 329.65 492.25 327.5 C491.64 327.15 491.03 326.8 490.4 326.44 C487.86 324.73 487.86 324.73 485 324 Z M909 328.38 C908.19 328.83 907.37 329.28 906.53 329.75 C900.55 333.1 894.63 336.55 888.73 340.05 C882.85 343.53 876.9 346.9 870.94 350.25 C861.69 355.45 852.52 360.75 843.36 366.11 C838.11 369.19 832.85 372.24 827.56 375.25 C817.07 381.22 806.65 387.32 796.37 393.65 C794.34 394.81 792.29 395.86 790.19 396.89 C786.18 398.88 782.34 401.08 778.5 403.38 C777.01 404.26 775.52 405.14 774.04 406.02 C773.23 406.49 772.43 406.97 771.61 407.46 C766.73 410.34 761.83 413.2 756.94 416.06 C755.91 416.66 754.89 417.26 753.83 417.88 C747.35 421.66 740.84 425.39 734.26 428.98 C733.14 429.6 732.04 430.24 730.95 430.91 C729 432 729 432 726.72 432.78 C723.62 434.14 722.08 435.29 720 438 C718.17 444.71 718.87 452.09 718.98 458.97 C718.98 461.15 718.98 463.32 718.97 465.5 C718.97 471.41 719.02 477.32 719.09 483.23 C719.14 489.41 719.15 495.59 719.16 501.77 C719.19 513.47 719.26 525.16 719.35 536.86 C719.45 550.18 719.5 563.5 719.55 576.82 C719.64 604.21 719.8 631.61 720 659 C722.91 660.34 722.91 660.34 725.3 659.02 C726.19 658.51 727.07 658 727.98 657.47 C728.97 656.91 729.95 656.35 730.96 655.78 C731.96 655.19 732.97 654.6 734 654 C734.92 653.47 735.83 652.94 736.78 652.4 C739.61 650.76 742.43 649.1 745.25 647.44 C753.44 642.64 761.66 637.9 769.94 633.25 C777.38 629.06 784.79 624.81 792.14 620.46 C800 615.81 807.92 611.27 815.9 606.82 C822.3 603.24 828.67 599.63 834.94 595.81 C841.7 591.7 848.59 587.85 855.5 584 C864.78 578.84 873.95 573.54 883 568 C888.05 564.92 893.1 561.92 898.31 559.12 C899.6 558.39 899.6 558.39 900.9 557.65 C904 556 904 556 907.34 554.7 C911.19 552.95 914.38 551.39 917 548 C919.49 541.28 918.7 533.57 918.57 526.53 C918.57 524.32 918.59 522.11 918.6 519.91 C918.63 513.92 918.58 507.94 918.52 501.96 C918.47 495.7 918.49 489.44 918.5 483.19 C918.51 472.69 918.48 462.19 918.41 451.69 C918.34 440.88 918.29 430.07 918.29 419.26 C918.29 418.6 918.29 417.93 918.29 417.24 C918.28 413.9 918.28 410.55 918.28 407.2 C918.27 379.47 918.17 351.73 918 324 C915.17 324 911.52 326.97 909 328.38 Z M681 437 C680.67 510.92 680.34 584.84 680 661 C680.66 661 681.32 661 682 661 C682 587.08 682 513.16 682 437 C681.67 437 681.34 437 681 437 Z M459.02 585.09 C458.25 585.54 457.49 585.99 456.71 586.45 C455.89 586.94 455.08 587.43 454.25 587.94 C452.54 588.95 450.82 589.97 449.11 590.98 C448.25 591.49 447.39 592 446.51 592.52 C442.87 594.66 439.19 596.71 435.5 598.75 C430.12 601.75 424.91 604.92 419.74 608.28 C417.16 609.9 414.55 611.38 411.87 612.82 C406.17 615.9 400.52 619.06 394.88 622.25 C393.87 622.82 392.87 623.38 391.83 623.97 C385.35 627.64 378.91 631.38 372.5 635.19 C366.47 638.76 360.36 642.19 354.25 645.62 C346.98 649.71 339.83 653.89 332.76 658.31 C329.19 660.5 325.53 662.48 321.84 664.46 C316.89 667.14 312.03 669.96 307.15 672.77 C302.83 675.24 298.51 677.72 294.19 680.19 C293.32 680.69 292.45 681.19 291.55 681.7 C287.5 684.02 283.44 686.31 279.36 688.57 C275.2 690.88 271.09 693.26 267 695.69 C266.28 696.11 265.55 696.54 264.81 696.98 C262.54 698.32 260.27 699.66 258 701 C248.39 706.68 238.76 712.31 229.06 717.83 C226.63 719.21 224.2 720.6 221.78 721.99 C220.85 722.52 219.93 723.04 218.98 723.59 C217.17 724.63 215.36 725.66 213.55 726.7 C209.5 729.02 205.44 731.31 201.36 733.57 C197.2 735.88 193.09 738.26 189 740.69 C188.27 741.12 187.54 741.55 186.79 741.99 C183.16 744.13 179.55 746.27 175.93 748.41 C166.75 753.85 157.5 759.14 148.19 764.36 C142.89 767.34 137.64 770.4 132.43 773.54 C128.45 775.93 124.41 778.21 120.38 780.5 C112.33 785.08 104.31 789.71 96.31 794.38 C95.33 794.95 94.36 795.52 93.35 796.1 C87.96 799.25 82.6 802.43 77.26 805.66 C74.93 807.04 72.57 808.34 70.19 809.62 C64.56 812.67 59 815.83 53.44 819 C52.13 819.75 52.13 819.75 50.79 820.51 C44.81 823.93 38.89 827.44 33 831 C35.51 833.66 37.8 835.66 41.03 837.38 C41.81 837.8 42.59 838.22 43.39 838.65 C44.23 839.1 45.07 839.54 45.94 840 C47.76 840.98 49.57 841.96 51.39 842.95 C52.32 843.45 53.26 843.96 54.22 844.48 C58.58 846.86 62.88 849.33 67.19 851.81 C74.82 856.2 82.49 860.52 90.19 864.81 C98.83 869.64 107.43 874.54 116 879.5 C124.78 884.58 133.59 889.61 142.44 894.56 C143.94 895.4 143.94 895.4 145.47 896.26 C150.12 898.85 154.78 901.42 159.46 903.96 C165.45 907.22 171.35 910.64 177.25 914.06 C186.89 919.64 196.55 925.17 206.26 930.61 C207.14 931.1 208.01 931.59 208.91 932.1 C209.75 932.57 210.59 933.04 211.46 933.53 C214.9 935.52 218.25 937.65 221.6 939.8 C224.52 941.26 226.72 941.84 230 942 C233.02 940.93 233.02 940.93 235.96 939.13 C237.09 938.5 238.21 937.87 239.36 937.21 C240.55 936.52 241.75 935.82 242.94 935.12 C244.17 934.42 245.41 933.72 246.64 933.01 C253.78 928.94 260.84 924.74 267.86 920.45 C274.88 916.23 282.11 912.35 289.29 908.4 C295.08 905.21 300.8 901.95 306.46 898.52 C312.46 894.94 318.61 891.6 324.72 888.21 C329.52 885.54 334.29 882.85 338.98 880.01 C345.9 875.82 353 871.95 360.07 868.04 C366.36 864.58 366.36 864.58 372.42 860.74 C375.05 858.96 377.69 857.61 380.56 856.25 C387.32 852.93 393.63 849.01 400 845 C405.17 841.78 410.34 838.79 415.81 836.12 C422.49 832.85 428.71 828.96 435 825 C440.17 821.78 445.34 818.79 450.81 816.12 C457.49 812.85 463.71 808.95 470 805 C475.78 801.45 481.63 798.09 487.6 794.87 C492.92 791.94 498.19 788.91 503.46 785.88 C509.27 782.56 515.09 779.26 520.92 775.98 C529.51 771.14 538.05 766.25 546.45 761.1 C550.23 758.82 554.11 756.75 557.99 754.65 C563.35 751.72 568.64 748.66 573.94 745.62 C575.16 744.93 576.38 744.23 577.6 743.53 C580.14 742.08 582.67 740.63 585.2 739.17 C591.24 735.72 597.28 732.26 603.31 728.81 C603.89 728.48 604.47 728.15 605.07 727.81 C613.99 722.71 622.92 717.65 631.86 712.61 C640.95 707.48 649.98 702.25 659 697 C658.39 694.27 657.75 692.49 655.35 690.92 C653.25 689.9 651.13 688.95 649 688 C647.74 687.33 646.49 686.65 645.25 685.96 C644.63 685.61 644.01 685.26 643.37 684.91 C642.41 684.37 642.41 684.37 641.44 683.81 C640.75 683.42 640.05 683.03 639.34 682.63 C634.17 679.7 629.07 676.66 623.98 673.58 C615.09 668.21 606.03 663.13 597 658 C593.23 655.86 589.46 653.71 585.69 651.56 C584.83 651.08 583.98 650.59 583.1 650.1 C579.38 647.98 575.7 645.83 572.08 643.53 C568.14 641.03 564.07 638.83 559.96 636.62 C554.67 633.73 549.47 630.7 544.25 627.69 C543.11 627.03 541.97 626.37 540.79 625.69 C534.08 621.81 527.41 617.88 520.79 613.86 C516.55 611.3 512.23 608.93 507.87 606.59 C504.38 604.65 500.97 602.58 497.56 600.5 C492.12 597.19 486.6 594.25 480.86 591.48 C476.83 589.39 473.11 586.89 469.38 584.32 C465.37 582.09 462.7 582.88 459.02 585.09 Z M671.31 734.88 C669.97 735.7 668.63 736.53 667.29 737.36 C666.59 737.79 665.89 738.22 665.16 738.67 C661.55 740.89 657.9 743.04 654.25 745.19 C653.52 745.61 652.8 746.04 652.05 746.48 C647.48 749.16 642.87 751.73 638.21 754.24 C632.66 757.28 627.19 760.45 621.7 763.6 C617.6 765.95 613.5 768.29 609.36 770.57 C605.13 772.91 600.97 775.35 596.81 777.81 C586.35 783.99 575.82 790 565.19 795.88 C558.52 799.56 551.94 803.36 545.4 807.25 C539.57 810.7 533.66 813.98 527.73 817.25 C522.6 820.08 517.54 823.01 512.5 826 C506.72 829.43 500.89 832.76 495 836 C489.07 839.27 483.2 842.61 477.38 846.06 C471.39 849.61 465.36 853.07 459.29 856.47 C453.78 859.56 448.29 862.68 442.81 865.81 C441.93 866.32 441.04 866.83 440.13 867.35 C438.32 868.38 436.51 869.42 434.71 870.45 C430.3 872.97 425.9 875.48 421.5 878 C416.27 880.99 411.05 883.97 405.82 886.96 C395.71 892.75 385.59 898.5 375.44 904.22 C368.72 908.01 362.03 911.87 355.36 915.75 C347.56 920.28 339.69 924.67 331.8 929.05 C327.17 931.63 322.56 934.24 318.02 936.99 C312.33 940.44 306.51 943.65 300.69 946.88 C292.91 951.21 285.22 955.61 277.68 960.35 C274.21 962.49 270.64 964.42 267.05 966.36 C263.14 968.46 259.26 970.6 255.38 972.75 C254.31 973.33 254.31 973.33 253.22 973.93 C249.48 975.81 249.48 975.81 247 979 C246.9 981.91 246.86 984.79 246.87 987.69 C246.86 988.6 246.86 989.51 246.86 990.45 C246.85 993.52 246.85 996.6 246.85 999.67 C246.85 1001.86 246.85 1004.05 246.84 1006.25 C246.84 1012.22 246.83 1018.19 246.83 1024.17 C246.83 1029.15 246.83 1034.12 246.82 1039.1 C246.82 1050.17 246.81 1061.24 246.81 1072.3 C246.81 1072.97 246.81 1073.63 246.81 1074.32 C246.81 1074.98 246.81 1075.65 246.81 1076.33 C246.82 1087.12 246.81 1097.91 246.79 1108.7 C246.78 1119.76 246.77 1130.83 246.77 1141.9 C246.77 1148.12 246.77 1154.33 246.76 1160.55 C246.75 1166.39 246.75 1172.24 246.76 1178.08 C246.76 1180.23 246.75 1182.38 246.75 1184.53 C246.74 1187.46 246.75 1190.38 246.75 1193.31 C246.75 1194.17 246.74 1195.03 246.74 1195.91 C246.56 1200.43 246.56 1200.43 249 1204 C249.84 1203.45 250.68 1202.9 251.55 1202.34 C260.36 1196.68 269.39 1191.49 278.56 1186.44 C288.17 1181.15 297.66 1175.74 307 1170 C311.95 1166.98 316.91 1164.02 322.02 1161.27 C328.2 1157.91 334.29 1154.4 340.38 1150.88 C348.52 1146.16 356.69 1141.46 364.88 1136.81 C371.84 1132.86 378.72 1128.78 385.56 1124.62 C391.67 1120.92 397.8 1117.5 404.25 1114.4 C408.4 1112.29 412.29 1109.78 416.23 1107.31 C420.65 1104.57 425.17 1102.01 429.69 1099.44 C431.01 1098.69 431.01 1098.69 432.35 1097.92 C434.23 1096.85 436.11 1095.79 437.98 1094.72 C451.14 1087.22 464.28 1079.7 477.23 1071.85 C481.39 1069.34 485.62 1067 489.91 1064.7 C494.71 1062.06 499.44 1059.28 504.18 1056.52 C510.67 1052.75 517.2 1049.06 523.75 1045.38 C532.59 1040.4 541.34 1035.28 550 1030 C554.96 1026.98 559.92 1024.02 565.03 1021.27 C571.17 1017.93 577.21 1014.44 583.25 1010.94 C591.8 1005.98 600.38 1001.08 609 996.25 C616.75 991.9 624.37 987.37 631.92 982.68 C636.87 979.62 641.92 976.96 647.16 974.44 C651.4 972.29 655.38 969.76 659.41 967.23 C663.62 964.59 667.9 962.08 672.19 959.56 C672.93 959.13 673.67 958.69 674.44 958.24 C679.72 955.14 679.72 955.14 682 954 C682 880.41 682 806.82 682 731 C677.37 731 675.08 732.49 671.31 734.88 Z M208 978 C208 1052.58 208 1127.16 208 1204 C208.33 1204 208.66 1204 209 1204 C209 1129.42 209 1054.84 209 978 C208.67 978 208.34 978 208 978 Z " fill="#FB2C1F" transform="translate(264,0)"/>
</svg>
