<?xml version="1.0" encoding="UTF-8"?>
<!-- Generator: visioncortex VTracer 0.6.3 -->
<svg version="1.1" xmlns="http://www.w3.org/2000/svg" width="1280" height="960">
<path d="M0 0 C1.71 -0 3.41 -0 5.12 -0 C8.67 -0 12.22 -0 15.77 0 C20.33 0.01 24.88 0 29.44 -0 C32.95 -0 36.46 -0 39.97 -0 C41.65 -0 43.34 -0 45.02 -0 C47.36 -0.01 49.69 -0 52.03 0 C52.73 0 53.42 -0 54.14 -0 C58.92 0.02 58.92 0.02 61.15 1.13 C62.67 1.18 64.19 1.17 65.71 1.13 C67.19 1.09 68.67 1.09 70.15 1.13 C70.48 1.46 70.81 1.79 71.15 2.13 C72.12 2.13 73.09 2.13 74.09 2.13 C77.15 2.13 77.15 2.13 79.15 3.13 C80.08 3.13 81.01 3.13 81.96 3.13 C86.18 3.13 89.76 4.03 93.84 5.07 C96.81 5.83 99.79 6.47 102.8 7.05 C114.7 9.41 126.5 12.02 137.59 17.03 C140 18.07 142.31 18.78 144.84 19.45 C166.58 25.66 187.49 39.6 203.82 54.96 C205.64 56.65 207.45 58.23 209.4 59.76 C232.39 79.61 244.77 109.56 247.01 139.42 C248.68 170.65 247.52 207.72 232.27 235.88 C231.08 238.27 230.14 240.72 229.19 243.22 C225.99 251.64 221.94 259.31 217.37 267.06 C216.12 269.18 214.91 271.32 213.7 273.46 C208.85 282.01 203.62 289.9 197.43 297.53 C196.12 299.18 194.84 300.84 193.57 302.52 C187.61 310.34 181.2 317.55 174.41 324.66 C172.19 327 170.06 329.39 167.98 331.86 C165.89 334.32 163.77 336.51 161.28 338.57 C158.49 340.94 155.88 343.38 153.34 346.01 C148.6 350.8 143.42 354.95 138.15 359.13 C137.07 360.01 135.98 360.89 134.9 361.76 C122.56 371.67 109.78 380.51 95.87 388.06 C93.29 389.47 90.82 390.98 88.36 392.58 C83.58 395.6 78.5 397.85 73.34 400.13 C72.42 400.55 71.5 400.96 70.55 401.38 C68.68 402.22 66.82 403.05 64.95 403.88 C63.09 404.71 61.25 405.56 59.41 406.42 C52.95 409.44 46.44 411.88 39.65 414.07 C38.09 414.58 38.09 414.58 36.49 415.1 C33.38 416.12 30.27 417.13 27.15 418.13 C25.45 418.69 23.74 419.25 22.04 419.8 C-7.81 429.49 -38.25 435.07 -69.36 438.75 C-71.84 439 -71.84 439 -73.85 440.13 C-82.39 441.16 -90.98 441.28 -99.58 441.27 C-101.31 441.27 -101.31 441.27 -103.08 441.27 C-105.51 441.27 -107.93 441.27 -110.35 441.26 C-114.04 441.26 -117.72 441.26 -121.41 441.27 C-123.78 441.27 -126.15 441.27 -128.52 441.27 C-130.15 441.27 -130.15 441.27 -131.81 441.27 C-140.6 441.25 -149.01 440.68 -157.56 438.65 C-159.97 438.11 -162.37 437.69 -164.8 437.31 C-190.79 433.13 -213.73 424.42 -233.85 407.13 C-234.42 406.64 -235 406.15 -235.6 405.64 C-248.25 394.68 -261.62 381.23 -264.85 364.13 C-264.71 360.1 -264.49 357.94 -261.97 354.76 C-259.85 353.13 -259.85 353.13 -256.85 352.13 C-250.96 355.22 -246.18 360.15 -241.85 365.13 C-241.85 365.79 -241.85 366.45 -241.85 367.13 C-241.3 367.39 -240.74 367.64 -240.18 367.91 C-237.48 369.33 -235.09 371.01 -232.6 372.76 C-221.29 380.31 -209.74 385.62 -196.59 389.12 C-194.33 389.73 -192.08 390.4 -189.87 391.17 C-186.15 392.36 -182.44 393.04 -178.6 393.7 C-177.55 393.88 -177.55 393.88 -176.48 394.08 C-165.27 396.03 -154.13 396.41 -142.79 396.45 C-141.98 396.45 -141.18 396.45 -140.36 396.45 C-128.4 396.46 -116.65 395.8 -104.79 394.32 C-103.78 394.2 -103.78 394.2 -102.74 394.07 C-95.33 393.14 -88.15 391.84 -80.93 389.93 C-77.5 389.04 -74.06 388.27 -70.6 387.52 C-50.32 383.08 -30.83 378.03 -11.6 370.07 C-7.94 368.56 -4.25 367.17 -0.52 365.84 C6.83 363.22 13.57 359.97 20.39 356.19 C23.51 354.46 26.67 352.88 29.88 351.33 C69.24 332.28 106.97 302.52 134.15 268.13 C134.84 267.32 135.53 266.51 136.25 265.67 C148.82 250.87 158.49 234.96 166.15 217.13 C166.43 216.49 166.71 215.85 167 215.19 C174.99 196.46 177.14 177.23 178.15 157.13 C177.82 157.13 177.49 157.13 177.15 157.13 C177.01 156.16 176.86 155.19 176.71 154.2 C174.54 140.87 171.34 127.45 162.15 117.13 C161.56 116.32 160.96 115.52 160.34 114.68 C157.88 111.82 155.39 110.05 152.21 108.01 C151.2 107.35 150.18 106.68 149.12 106 C118.98 87.07 84.55 79.1 49.15 78.13 C48.2 78.11 47.25 78.08 46.28 78.05 C19.63 77.41 -6.83 79.51 -33.16 83.57 C-34.42 83.76 -35.68 83.96 -36.98 84.16 C-44.55 85.39 -51.86 87.11 -59.25 89.16 C-64.56 90.6 -69.92 91.76 -75.29 92.95 C-92.03 96.74 -108.58 101.22 -124.58 107.49 C-127.83 108.76 -131.1 109.94 -134.4 111.09 C-157.59 119.19 -179.94 128.99 -202.01 139.76 C-204.96 141.19 -207.93 142.59 -210.89 143.98 C-220.35 148.43 -229.64 152.95 -238.64 158.26 C-241.95 160.19 -245.32 161.98 -248.72 163.76 C-264.13 171.86 -279.1 180.9 -293.85 190.13 C-295.1 190.91 -296.36 191.68 -297.62 192.45 C-307.24 198.38 -316.59 204.64 -325.85 211.13 C-326.92 211.88 -326.92 211.88 -328.01 212.64 C-340.63 221.45 -352.99 230.41 -364.68 240.43 C-367.62 242.96 -370.63 245.39 -373.66 247.82 C-377.67 251.08 -381.35 254.52 -384.95 258.23 C-386.87 260.15 -388.85 261.93 -390.91 263.7 C-397.46 269.35 -403.23 275.56 -408.85 282.13 C-409.67 283.08 -410.5 284.03 -411.35 285 C-420.86 295.99 -429.7 307.45 -436.85 320.13 C-437.59 321.37 -438.33 322.6 -439.08 323.83 C-450.1 342.43 -457.85 362.68 -460.85 384.13 C-461 385.16 -461.14 386.19 -461.3 387.25 C-461.6 389.88 -461.76 392.48 -461.85 395.13 C-461.93 396.91 -461.93 396.91 -462 398.71 C-462.89 436.45 -444.17 468.95 -419 495.86 C-405.27 510.23 -405.27 510.23 -390.26 523.23 C-387.85 525.13 -385.56 527.13 -383.29 529.2 C-378.63 533.38 -373.77 537.27 -368.85 541.13 C-367.69 542.05 -366.54 542.96 -365.38 543.87 C-364.16 544.83 -362.94 545.8 -361.72 546.76 C-360.88 547.42 -360.88 547.42 -360.02 548.1 C-355.68 551.51 -351.27 554.83 -346.85 558.13 C-345.46 559.18 -344.06 560.23 -342.67 561.27 C-341.99 561.79 -341.31 562.3 -340.6 562.83 C-339.2 563.88 -337.81 564.93 -336.41 565.98 C-335.73 566.49 -335.06 567 -334.36 567.52 C-333.45 568.2 -333.45 568.2 -332.53 568.9 C-331 570.02 -329.43 571.08 -327.85 572.13 C-327.85 572.79 -327.85 573.45 -327.85 574.13 C-327.32 574.36 -326.8 574.59 -326.26 574.82 C-323.01 576.59 -320.18 578.85 -317.29 581.13 C-314.19 583.55 -311.12 585.95 -307.85 588.13 C-307.85 588.79 -307.85 589.45 -307.85 590.13 C-307.31 590.36 -306.77 590.59 -306.22 590.83 C-303.13 592.53 -300.57 594.72 -297.91 597.01 C-297.35 597.49 -296.78 597.97 -296.2 598.47 C-291.47 602.53 -286.88 606.73 -282.32 610.99 C-279.57 613.55 -276.8 616.05 -273.91 618.45 C-270.97 620.88 -268.74 623.64 -266.5 626.71 C-263.98 628.87 -262.14 629.03 -258.85 629.13 C-256.29 628.19 -254.15 627.23 -251.79 625.95 C-251.1 625.59 -250.42 625.23 -249.72 624.87 C-242.95 621.29 -236.33 617.46 -229.71 613.63 C-224.24 610.48 -218.75 607.43 -213.16 604.51 C-201.94 598.64 -190.88 592.47 -179.91 586.13 C-173.78 582.61 -167.54 579.33 -161.26 576.08 C-154.32 572.44 -147.55 568.55 -140.81 564.54 C-140.06 564.09 -139.31 563.65 -138.53 563.19 C-137.53 562.59 -137.53 562.59 -136.52 561.98 C-134.85 561.13 -134.85 561.13 -132.85 561.13 C-132.58 560.39 -132.31 559.66 -132.04 558.89 C-123.07 538.1 -97.21 518.96 -78.85 507.13 C-77.72 506.38 -76.59 505.63 -75.47 504.88 C-59.86 494.51 -40.81 483.86 -21.54 484.07 C-20.47 484.08 -19.4 484.09 -18.3 484.1 C-17.08 484.12 -17.08 484.12 -15.85 484.13 C-15.85 484.79 -15.85 485.45 -15.85 486.13 C-14.97 485.93 -14.1 485.73 -13.2 485.53 C-7.31 484.83 -2.83 487.13 2.15 490.13 C14.39 500.28 19.02 512.61 20.84 528.13 C21.78 540.31 20.67 552.07 19.15 564.13 C19.81 563.77 20.46 563.41 21.14 563.04 C29.42 558.83 36.27 557.56 45.33 559.98 C52.27 562.53 57.11 565.89 61.15 572.13 C64.76 582.96 59.71 595.26 56.39 605.65 C53.18 616 50.74 626.56 48.15 637.07 C47.11 641.29 46.07 645.51 45.03 649.72 C44.65 651.25 44.65 651.25 44.27 652.8 C42.96 658.03 41.58 663.22 40.04 668.39 C37.72 676.3 36.11 684.34 34.49 692.41 C33.96 695.03 33.43 697.64 32.89 700.25 C32.55 701.94 32.2 703.62 31.86 705.31 C31.7 706.08 31.54 706.85 31.38 707.64 C29.62 716.45 28.97 725.02 28.96 734.01 C28.95 735.05 28.94 736.1 28.93 737.17 C28.93 738.17 28.92 739.16 28.92 740.19 C28.92 741.54 28.92 741.54 28.91 742.92 C28.94 745.34 28.94 745.34 31.15 747.13 C31.61 746.3 31.61 746.3 32.08 745.45 C34.18 741.66 36.29 737.88 38.44 734.12 C44.33 723.79 49.56 713.23 54.62 702.47 C56.6 698.27 58.66 694.13 60.78 690.01 C64.12 683.39 67.02 676.6 69.87 669.77 C72.01 664.66 74.34 659.72 76.84 654.78 C79.31 649.79 81.49 644.67 83.71 639.57 C84.65 637.42 85.59 635.28 86.53 633.13 C87.21 631.58 87.21 631.58 87.9 630 C91.38 622.05 94.94 614.13 98.5 606.2 C99.36 604.28 100.22 602.36 101.08 600.45 C103.65 594.7 106.23 588.95 108.83 583.21 C112.28 575.58 115.68 567.94 118.84 560.18 C120.51 556.3 122.33 552.5 124.15 548.7 C126.5 543.78 128.7 538.88 130.59 533.76 C132.58 528.38 134.96 523.28 137.46 518.13 C142.35 508.03 146.36 497.68 150.15 487.13 C150.52 486.11 150.52 486.11 150.9 485.07 C153.99 476.51 156.33 467.87 158.37 459.01 C161.1 447.43 161.1 447.43 166.53 444.01 C182.93 436.86 200.43 435.21 218.15 436.13 C218.48 436.46 218.81 436.79 219.15 437.13 C219.98 437.07 220.8 437.01 221.65 436.95 C229.03 437.34 234.91 441.15 240.15 446.13 C242.38 450.58 241.26 455.25 239.8 459.78 C239.19 461.5 238.58 463.23 237.96 464.95 C237.32 466.82 236.67 468.7 236.03 470.57 C235.71 471.51 235.39 472.44 235.06 473.41 C224.38 505.37 221.1 541.25 234.15 573.13 C234.46 573.92 234.77 574.7 235.08 575.51 C238.19 582.97 242.3 590.04 246.15 597.13 C247.69 595.6 248.91 593.91 250.15 592.13 C250.15 591.47 250.15 590.81 250.15 590.13 C250.81 590.13 251.47 590.13 252.15 590.13 C252.41 589.26 252.68 588.38 252.95 587.48 C254.14 584.16 255.57 581.56 257.46 578.6 C258.12 577.55 258.78 576.5 259.46 575.43 C260.16 574.32 260.87 573.21 261.59 572.07 C267.34 562.91 272.74 553.65 277.61 543.98 C279.87 539.52 282.28 535.27 284.97 531.06 C286.86 527.98 288.4 524.76 289.96 521.51 C292.43 516.46 295.02 511.58 297.9 506.76 C303.63 496.94 308.08 486.48 312.76 476.13 C314.04 473.38 315.41 470.72 316.82 468.04 C319.46 462.84 320.87 457.53 322.21 451.88 C322.73 449.84 323.24 447.81 323.75 445.77 C323.99 444.8 324.23 443.82 324.48 442.82 C326.62 434.24 329.15 425.83 332.15 417.51 C332.51 416.49 332.51 416.49 332.87 415.46 C334.88 410.06 336.9 407.21 342.11 404.72 C359.19 398.66 384.73 394.34 402.18 400.89 C406.67 403.07 411.75 405.57 414.15 410.13 C414.81 416.72 413.23 421.71 410.9 427.82 C410.25 429.6 409.61 431.38 408.96 433.16 C408.49 434.44 408.49 434.44 408.02 435.75 C396.1 468.66 394.51 507.73 409.05 540.13 C410.92 544.12 412.94 548.02 415 551.92 C416.3 554.42 417.54 556.94 418.78 559.47 C419.23 560.38 419.67 561.29 420.13 562.23 C421 564.01 421.87 565.79 422.74 567.57 C423.14 568.38 423.54 569.19 423.95 570.03 C424.31 570.75 424.66 571.47 425.02 572.21 C426.19 574.19 427.46 575.59 429.15 577.13 C430.09 576.64 431.02 576.14 431.98 575.63 C458.67 561.72 487.82 554.56 517.7 551.73 C521.55 551.42 521.55 551.42 525.15 550.13 C527.96 550.03 530.75 549.99 533.55 550 C534.39 550 535.22 550 536.08 550 C537.84 550 539.61 550 541.37 550 C544.08 550.01 546.78 550 549.48 550 C551.19 550 552.9 550 554.62 550 C555.43 550 556.24 550 557.07 549.99 C560.35 550.01 563.02 550.09 566.15 551.13 C567.71 551.37 569.28 551.57 570.84 551.75 C571.78 551.86 572.72 551.97 573.68 552.08 C574.68 552.2 575.68 552.32 576.71 552.45 C584.33 553.39 591.85 554.52 599.34 556.2 C600.07 556.36 600.81 556.52 601.57 556.69 C605.02 557.49 608.05 558.43 611.15 560.13 C612.48 560.62 613.81 561.08 615.15 561.51 C615.95 561.77 616.74 562.03 617.56 562.3 C619.3 562.86 621.05 563.39 622.81 563.9 C642.08 569.72 659.73 581.54 674.67 594.82 C676.05 596.05 677.46 597.25 678.87 598.45 C685.07 603.8 690.13 609.67 695.15 616.13 C695.87 616.98 696.59 617.82 697.33 618.69 C708.21 632 716.03 649.25 719.15 666.13 C719.31 666.91 719.46 667.68 719.62 668.48 C722.2 681.73 722.44 693.83 720.15 707.13 C719.97 708.22 719.97 708.22 719.78 709.33 C715.73 731.78 700.92 748.65 683.15 762.13 C673.35 768.59 663.24 773.84 651.15 772.13 C649.03 770.45 649.03 770.45 648.15 768.13 C648.31 764.53 648.89 763.38 651.56 760.89 C652.58 760.16 653.6 759.44 654.65 758.7 C655.19 758.3 655.74 757.91 656.3 757.51 C659.41 755.28 662.6 753.22 665.84 751.2 C678.22 743.01 687.83 728.6 691.11 714.2 C692.49 707.28 693.2 700.19 693.15 693.13 C692.82 692.8 692.49 692.47 692.15 692.13 C692.19 691.31 692.23 690.48 692.28 689.63 C691.64 671.69 677.95 652.46 666.15 640.13 C665.61 639.53 665.07 638.93 664.52 638.3 C645.21 617.49 615.85 606.8 588.82 600.96 C585.15 600.13 585.15 600.13 581.84 599.13 C542.8 588.58 496.2 593.64 458.15 605.13 C457.33 605.38 456.51 605.62 455.66 605.88 C449.75 607.61 449.75 607.61 444.15 610.13 C442.88 612.6 443.06 613.78 443.79 616.45 C444.14 617.33 444.48 618.22 444.84 619.13 C452.81 642.19 455.53 669.39 445.53 692.26 C438.24 705.26 428.26 716.82 417.02 726.48 C415.2 728.04 415.2 728.04 413.83 729.52 C399.62 743.14 381.86 751.67 363.59 758.2 C361.17 759.13 358.84 760.16 356.48 761.25 C345.32 766.32 331.47 768.3 319.67 764.37 C311.98 760.6 305.88 753.79 302.15 746.13 C297.88 733.31 301.07 716.7 305.15 704.13 C305.51 703.04 305.51 703.04 305.87 701.93 C311.31 685.75 319.87 671.69 330.15 658.13 C331.47 656.3 332.78 654.47 334.09 652.63 C340.65 643.67 347.59 635.51 355.4 627.63 C356.09 626.94 356.77 626.24 357.48 625.53 C360.84 622.19 363.94 619.38 368.15 617.13 C371.13 615.07 371.13 615.07 373.15 612.13 C372.97 605.71 371.06 601.33 367.9 595.82 C367.08 594.32 366.26 592.83 365.44 591.33 C365.05 590.61 364.65 589.89 364.24 589.15 C360.68 582.56 357.93 575.93 355.94 568.72 C355.2 566.28 354.3 564 353.29 561.64 C350.83 555.57 349.14 549.34 347.46 543.01 C347.16 541.88 346.85 540.75 346.53 539.59 C344.97 533.75 343.78 528.14 343.15 522.13 C342.53 520.12 341.87 518.11 341.15 516.13 C340.81 514.8 340.47 513.47 340.15 512.13 C339.65 513.24 339.15 514.34 338.64 515.48 C333.35 527 327.4 538.01 321.07 548.99 C319.35 551.98 317.71 554.96 316.21 558.06 C313.5 563.6 310.22 568.81 307.03 574.07 C303.08 580.6 299.14 587.12 295.34 593.74 C289.66 603.61 283.34 613.05 276.98 622.5 C276.35 623.44 275.72 624.38 275.07 625.35 C273.78 627.23 272.44 629.08 271.08 630.91 C270.43 631.79 269.78 632.66 269.12 633.56 C268.53 634.33 267.94 635.1 267.34 635.89 C265.88 638.64 266.07 639.87 266.9 642.82 C267.63 644.6 268.38 646.37 269.15 648.13 C269.99 650.46 270.8 652.79 271.59 655.13 C271.8 655.76 272.02 656.39 272.23 657.03 C275.97 668.31 278.74 680.23 279.15 692.13 C279.2 693.21 279.26 694.29 279.31 695.39 C279.99 721.8 272.96 742.76 255.83 762.86 C245.86 773.29 233.67 781.13 221.15 788.13 C220.19 788.68 219.23 789.22 218.24 789.78 C196.33 801.44 171.88 806.29 147.28 806.38 C145.31 806.41 145.31 806.41 143.3 806.45 C134.06 806.48 125.35 806.36 118.21 799.88 C114 795.11 111.82 790.77 112.21 784.32 C114.83 766.86 128.47 753.64 139.69 740.82 C142.1 738.05 144.47 735.25 146.84 732.45 C147.29 731.91 147.75 731.37 148.21 730.82 C151.11 727.4 153.95 723.93 156.78 720.45 C159.62 716.95 162.54 713.57 165.59 710.26 C169.95 705.47 173.86 700.42 177.77 695.27 C179.77 692.64 181.81 690.07 183.9 687.51 C189.74 680.26 195.16 672.69 200.65 665.17 C201.68 663.78 202.75 662.41 203.85 661.07 C205.47 659.07 205.47 659.07 205.06 655.88 C204.04 651.66 202.52 648.12 200.59 644.26 C199.86 642.76 199.14 641.26 198.41 639.76 C197.85 638.61 197.85 638.61 197.28 637.45 C195.47 633.73 193.72 630 191.96 626.26 C191.63 625.55 191.3 624.84 190.95 624.11 C190.31 622.74 189.67 621.37 189.03 620.01 C188.24 618.32 187.44 616.63 186.64 614.94 C182.89 606.86 180.15 599.1 178.68 590.3 C178.22 587.86 178.22 587.86 176.15 585.13 C175.51 582.85 174.95 580.55 174.43 578.23 C174.27 577.56 174.12 576.89 173.96 576.2 C173.64 574.78 173.33 573.36 173.01 571.94 C172.53 569.77 172.04 567.61 171.54 565.45 C171.23 564.06 170.92 562.68 170.61 561.3 C170.19 559.42 170.19 559.42 169.76 557.5 C169.24 554.6 169.02 552.06 169.15 549.13 C168.49 549.13 167.83 549.13 167.15 549.13 C166.98 550.42 166.98 550.42 166.8 551.73 C166.13 555.23 165.1 558.25 163.79 561.56 C163.31 562.77 162.84 563.98 162.35 565.22 C162.1 565.85 161.85 566.47 161.6 567.11 C160.85 568.99 160.1 570.88 159.37 572.77 C157.14 578.39 154.87 583.89 152.08 589.25 C150.24 592.98 148.83 596.88 147.34 600.76 C144.49 608.05 141.32 614.97 137.73 621.93 C135.7 626.05 134.12 630.29 132.52 634.6 C128.35 645.39 123.39 655.86 118.15 666.17 C115.76 670.88 113.5 675.65 111.28 680.45 C107.31 688.97 102.94 697.25 98.52 705.54 C96.57 709.23 94.65 712.94 92.73 716.64 C87.6 726.54 82.33 736.36 76.92 746.12 C75.02 749.55 73.14 753 71.29 756.46 C50.49 795.24 50.49 795.24 36.15 809.13 C35.4 809.93 34.65 810.73 33.88 811.55 C29.92 815.72 26.3 818.56 21.15 821.13 C20.6 821.5 20.04 821.88 19.46 822.26 C12.91 826.32 5.61 826.05 -1.85 825.13 C-12.5 821.73 -18.87 814.72 -24.01 805.11 C-27.86 797.27 -30.36 787.88 -29.85 779.13 C-29.52 778.47 -29.19 777.81 -28.85 777.13 C-29.51 777.13 -30.17 777.13 -30.85 777.13 C-30.9 772.35 -30.93 767.57 -30.96 762.78 C-30.97 761.16 -30.98 759.54 -31 757.92 C-31.09 748.78 -31.04 740.08 -28.85 731.13 C-29.51 731.13 -30.17 731.13 -30.85 731.13 C-30.95 731.82 -31.06 732.5 -31.17 733.21 C-31.97 736.67 -33.27 739.64 -34.72 742.88 C-35.36 744.3 -35.99 745.73 -36.62 747.15 C-36.98 747.93 -37.33 748.72 -37.69 749.53 C-38.97 752.41 -40.22 755.29 -41.48 758.18 C-46.3 769.27 -51.17 780.29 -56.75 791.02 C-58.02 793.47 -59.26 795.93 -60.5 798.39 C-65.32 807.85 -70.06 816.92 -76.85 825.13 C-77.47 825.89 -78.08 826.64 -78.72 827.42 C-86.86 837.05 -95.3 841.76 -107.85 843.13 C-121.52 844.07 -132.71 841.95 -143.34 833.04 C-158.46 818.89 -167.11 799.88 -172.88 780.34 C-173.5 778.3 -174.15 776.28 -174.84 774.27 C-188.81 733.23 -186.03 672.28 -169 632.13 C-168.32 630.77 -167.59 629.45 -166.85 628.13 C-170.87 628.73 -173.81 630.02 -177.35 632.01 C-178.39 632.6 -179.44 633.19 -180.51 633.79 C-181.61 634.42 -182.71 635.05 -183.85 635.7 C-185.55 636.66 -185.55 636.66 -187.28 637.64 C-193.79 641.33 -200.19 645.13 -206.52 649.12 C-211.93 652.39 -217.49 655.37 -223.05 658.37 C-223.87 658.81 -224.69 659.26 -225.54 659.71 C-226.64 660.31 -226.64 660.31 -227.76 660.91 C-229.92 662.12 -229.92 662.12 -231.99 663.78 C-233.85 665.13 -233.85 665.13 -235.85 665.13 C-235.6 665.73 -235.34 666.33 -235.08 666.94 C-230.85 677.1 -226.64 687.19 -224.41 698.01 C-224.27 698.68 -224.13 699.35 -223.99 700.05 C-223.55 702.4 -223.19 704.76 -222.85 707.13 C-222.67 708.33 -222.5 709.52 -222.32 710.75 C-220.87 721.3 -220.54 731.73 -220.59 742.37 C-220.6 745.06 -220.59 747.76 -220.57 750.45 C-220.56 765.85 -221.83 780.92 -225.04 796.01 C-225.36 797.52 -225.36 797.52 -225.68 799.07 C-227.91 809.09 -231.09 818.59 -234.85 828.13 C-235.34 829.42 -235.34 829.42 -235.85 830.73 C-243.11 849.41 -253.28 865.58 -265.85 881.13 C-266.59 882.07 -267.34 883.01 -268.11 883.97 C-270.01 886.37 -271.93 888.75 -273.85 891.13 C-274.53 892.01 -275.21 892.88 -275.91 893.78 C-277.99 896.31 -280.28 898.11 -282.85 900.13 C-283.51 901.12 -284.17 902.11 -284.85 903.13 C-285.84 903.13 -286.83 903.13 -287.85 903.13 C-288.16 903.97 -288.16 903.97 -288.47 904.82 C-290.34 907.96 -293.03 909.88 -295.85 912.13 C-296.81 912.9 -297.76 913.67 -298.75 914.46 C-306.86 920.77 -315.17 926.63 -323.85 932.13 C-324.93 932.82 -326.02 933.51 -327.14 934.22 C-339.68 941.78 -353.56 947.43 -367.62 951.49 C-369.45 952.02 -371.27 952.6 -373.08 953.2 C-383.36 956.46 -393.81 957.62 -404.5 958.81 C-406.81 959.08 -406.81 959.08 -408.87 959.65 C-422.21 962.89 -437.75 960.05 -451.1 957.88 C-453.02 957.58 -453.02 957.58 -454.99 957.26 C-462.89 955.9 -470.32 953.91 -477.85 951.13 C-477.85 950.47 -477.85 949.81 -477.85 949.13 C-478.59 948.86 -479.32 948.59 -480.09 948.31 C-496.58 941.27 -505.2 923.54 -511.74 907.97 C-521.15 883.79 -518.65 856.62 -511.85 832.13 C-511.53 830.94 -511.22 829.75 -510.9 828.52 C-505.88 811.48 -495.68 791.58 -482.85 779.13 C-481.75 777.91 -480.67 776.69 -479.6 775.45 C-478.99 774.75 -478.39 774.06 -477.77 773.34 C-476.47 771.85 -475.18 770.36 -473.9 768.86 C-469.53 763.83 -464.95 759.4 -459.85 755.13 C-458.66 754.09 -457.47 753.05 -456.29 752.01 C-454 750.04 -451.65 748.27 -449.16 746.57 C-446.92 745.02 -445.67 743.91 -443.97 741.7 C-441.5 738.71 -438.93 737.1 -435.69 735.03 C-432.23 732.72 -428.96 730.22 -425.66 727.7 C-410.97 716.57 -395.72 706.37 -379.72 697.22 C-376.79 695.52 -373.92 693.73 -371.04 691.95 C-358.08 683.93 -344.77 676.65 -331.29 669.57 C-329.97 668.88 -329.97 668.88 -328.64 668.18 C-326.04 666.82 -323.45 665.47 -320.85 664.13 C-319.92 663.65 -318.99 663.17 -318.04 662.68 C-316.69 661.99 -316.69 661.99 -315.32 661.29 C-314.1 660.67 -314.1 660.67 -312.86 660.04 C-310.85 659.13 -310.85 659.13 -308.85 659.13 C-312.67 654.14 -316.87 650.55 -321.91 646.82 C-323.05 645.97 -323.05 645.97 -324.21 645.1 C-325.72 643.96 -327.24 642.82 -328.77 641.69 C-330.53 640.37 -332.28 639.05 -334.03 637.71 C-339.83 633.3 -345.72 629.04 -351.66 624.82 C-352.72 624.06 -352.72 624.06 -353.8 623.29 C-357.02 621.02 -360.22 618.87 -363.67 616.96 C-366.3 615.45 -367.83 614.28 -369.85 612.13 C-371.35 611.14 -372.87 610.19 -374.41 609.26 C-382.85 603.98 -390.81 598.01 -398.85 592.13 C-406.76 586.36 -414.67 580.61 -422.8 575.15 C-431.26 569.43 -439.15 563.16 -447.01 556.65 C-449.55 554.56 -452.11 552.5 -454.66 550.45 C-459.35 546.6 -463.84 542.57 -468.3 538.46 C-470.42 536.53 -472.55 534.63 -474.72 532.76 C-485.36 523.5 -495.85 513.94 -505.03 503.22 C-506.25 501.81 -507.51 500.43 -508.79 499.07 C-526.54 480.18 -544.34 455.15 -551.85 430.13 C-552.28 428.83 -552.71 427.53 -553.15 426.23 C-553.61 424.83 -554.07 423.42 -554.54 422.01 C-554.75 421.36 -554.97 420.72 -555.19 420.05 C-558.41 409.87 -558.12 399.27 -558.16 388.7 C-558.16 387.94 -558.17 387.18 -558.17 386.4 C-558.18 374.84 -557.38 364.22 -553.85 353.13 C-553.6 352.26 -553.35 351.39 -553.09 350.49 C-551.17 344.2 -548.41 338.18 -545.85 332.13 C-545.5 331.28 -545.16 330.42 -544.81 329.54 C-541.64 321.73 -538 314.23 -534.1 306.76 C-533.79 306.16 -533.48 305.57 -533.16 304.96 C-519.54 278.89 -500.92 251.36 -479.62 230.91 C-477.89 229.18 -476.31 227.39 -474.73 225.52 C-470.5 220.66 -465.98 216.12 -461.41 211.57 C-460.6 210.76 -459.79 209.95 -458.96 209.11 C-451.93 202.09 -444.64 195.47 -436.68 189.51 C-431.9 185.93 -431.9 185.93 -427.85 181.57 C-425.4 178.58 -422.67 176.97 -419.43 174.9 C-416.61 172.97 -414.07 170.86 -411.47 168.63 C-400.15 158.99 -387.97 150.3 -375.48 142.24 C-372.64 140.4 -370.23 138.53 -367.85 136.13 C-366.52 135.45 -365.19 134.79 -363.85 134.13 C-362.56 133.39 -361.28 132.62 -360.01 131.85 C-358.92 131.18 -358.92 131.18 -357.81 130.5 C-357.04 130.03 -356.27 129.56 -355.47 129.07 C-354.67 128.58 -353.86 128.09 -353.04 127.58 C-348.26 124.65 -343.54 121.64 -338.85 118.57 C-332.15 114.2 -325.2 110.35 -318.19 106.52 C-314.56 104.53 -310.98 102.47 -307.41 100.38 C-290.89 90.92 -273.79 82.45 -256.56 74.37 C-252.24 72.33 -247.98 70.18 -243.72 68.01 C-237.17 64.67 -230.48 61.77 -223.67 59.01 C-219.74 57.41 -215.95 55.7 -212.19 53.74 C-205.75 50.47 -198.99 48.06 -192.22 45.57 C-190.3 44.86 -188.38 44.15 -186.47 43.44 C-184.73 42.8 -183 42.16 -181.26 41.52 C-178.72 40.48 -176.37 39.4 -173.94 38.15 C-169.93 36.1 -165.86 34.64 -161.58 33.26 C-160.82 33.01 -160.05 32.76 -159.27 32.5 C-156.86 31.7 -154.45 30.92 -152.04 30.13 C-149.64 29.35 -147.25 28.56 -144.85 27.78 C-143.3 27.26 -141.74 26.75 -140.18 26.24 C-136.23 24.95 -132.33 23.58 -128.45 22.07 C-121.06 19.35 -113.38 17.6 -105.75 15.72 C-103.12 15.07 -100.48 14.42 -97.85 13.76 C-88.92 11.53 -79.99 9.49 -70.95 7.75 C-68.55 7.27 -66.22 6.73 -63.87 6.07 C-58.22 4.6 -52.38 4.05 -46.6 3.33 C-44.55 3.07 -42.5 2.81 -40.44 2.54 C-36.58 2.05 -32.72 1.57 -28.85 1.13 C-28.09 1.04 -27.33 0.95 -26.55 0.86 C-17.72 -0.09 -8.88 -0.01 0 0 Z M178.15 173.13 C179.15 175.13 179.15 175.13 179.15 175.13 Z M201.15 437.13 C205.15 438.13 205.15 438.13 205.15 438.13 Z M-64.27 563.88 C-78.19 581.77 -89.3 602.76 -97.91 623.7 C-98.57 625.28 -99.22 626.86 -99.88 628.45 C-100.21 629.23 -100.53 630.01 -100.86 630.81 C-101.83 633.08 -102.86 635.31 -103.91 637.54 C-114.15 660.51 -116.19 687.91 -116.29 712.76 C-116.29 713.55 -116.3 714.34 -116.3 715.15 C-116.38 729.99 -115.79 747.13 -107.85 760.13 C-105.13 762.63 -103.51 763.98 -99.91 764.82 C-92.9 763.25 -89 754.64 -85.31 748.88 C-79.08 738.86 -74.01 728.31 -70.05 717.2 C-68.85 714.13 -68.85 714.13 -67.02 710.59 C-64.12 704.9 -62.07 698.88 -59.91 692.88 C-57.1 685.14 -54.21 677.46 -51 669.88 C-49.38 666.03 -47.85 662.15 -46.35 658.26 C-45.9 657.1 -45.9 657.1 -45.44 655.93 C-42.79 649.04 -40.29 642.1 -37.85 635.13 C-37.33 633.7 -36.82 632.27 -36.3 630.84 C-31.42 617.21 -27.12 603.41 -22.9 589.56 C-22.2 587.28 -21.49 585 -20.77 582.73 C-13.65 561.26 -13.65 561.26 -13.85 539.13 C-16.48 536.9 -18.29 536.2 -21.71 535.79 C-38.9 537.66 -53.83 551.04 -64.27 563.88 Z M525.15 551.13 C525.15 551.46 525.15 551.79 525.15 552.13 C526.8 552.13 528.45 552.13 530.15 552.13 C530.15 551.8 530.15 551.47 530.15 551.13 C528.5 551.13 526.85 551.13 525.15 551.13 Z M375.15 610.13 C376.15 612.13 376.15 612.13 376.15 612.13 Z M387.77 641.09 C387.22 641.66 386.66 642.23 386.09 642.82 C385.51 643.41 384.94 643.99 384.34 644.6 C366.32 663.24 354.9 685.72 346.84 710.11 C346.27 711.78 345.63 713.41 344.97 715.04 C343.99 717.54 343.93 719.48 344.15 722.13 C345.22 723.41 345.22 723.41 347.71 723.43 C352.19 723.04 355.34 721.41 359.28 719.32 C359.98 718.96 360.68 718.61 361.41 718.24 C366.56 715.61 366.56 715.61 371.15 712.13 C371.15 711.47 371.15 710.81 371.15 710.13 C372.27 709.74 372.27 709.74 373.41 709.34 C384.18 704.6 390.31 691.1 394.53 680.76 C399.14 666.79 399.37 651.19 395.15 637.13 C391.37 637.13 390.37 638.52 387.77 641.09 Z M-287.1 690.57 C-288.54 691.49 -289.98 692.41 -291.42 693.32 C-292.16 693.79 -292.89 694.26 -293.65 694.74 C-297.04 696.88 -300.47 698.95 -303.91 701.01 C-304.5 701.36 -305.1 701.72 -305.71 702.09 C-309.73 704.49 -313.78 706.82 -317.85 709.13 C-317.85 709.79 -317.85 710.45 -317.85 711.13 C-318.84 711.13 -319.83 711.13 -320.85 711.13 C-320.85 711.79 -320.85 712.45 -320.85 713.13 C-322.14 713.5 -322.14 713.5 -323.46 713.87 C-327.19 715.26 -329.83 717.03 -333.04 719.38 C-333.63 719.82 -334.22 720.25 -334.83 720.69 C-336.13 721.65 -337.43 722.61 -338.73 723.57 C-340.98 725.23 -343.23 726.88 -345.49 728.52 C-354.03 734.75 -362.48 741.07 -370.74 747.66 C-372.77 749.27 -374.81 750.87 -376.86 752.45 C-377.76 753.15 -378.67 753.85 -379.6 754.57 C-380.38 755.17 -381.15 755.76 -381.96 756.38 C-383.95 758 -383.95 758 -384.8 760.23 C-385.85 762.13 -385.85 762.13 -388.18 763.04 C-390.97 764.18 -392.43 765.33 -394.55 767.44 C-395.22 768.1 -395.88 768.76 -396.57 769.44 C-397.26 770.14 -397.95 770.84 -398.66 771.57 C-399.73 772.66 -399.73 772.66 -400.83 773.78 C-421.26 794.84 -438.48 826.31 -438.06 856.36 C-437.41 864.76 -435.72 873.76 -429.85 880.13 C-426.21 883.02 -422.49 885.39 -417.85 886.13 C-416.86 885.8 -415.87 885.47 -414.85 885.13 C-414.35 886.12 -414.35 886.12 -413.85 887.13 C-387.33 886.25 -365.97 879.83 -343.85 865.13 C-342.88 864.51 -341.92 863.9 -340.92 863.26 C-333.92 858.61 -327.89 852.93 -321.85 847.13 C-321.29 846.6 -320.73 846.07 -320.16 845.53 C-313.17 838.86 -307.09 832.29 -301.85 824.13 C-300.9 822.75 -299.96 821.38 -299.01 820 C-272.35 781.21 -266.55 738.65 -274.91 692.7 C-275.37 690.25 -275.74 688.36 -276.85 686.13 C-281.06 686.13 -283.67 688.34 -287.1 690.57 Z M224.15 694.13 C224.48 695.45 224.81 696.77 225.15 698.13 C225.48 697.47 225.81 696.81 226.15 696.13 C225.49 695.47 224.83 694.81 224.15 694.13 Z M222.15 696.13 C221.76 696.85 221.37 697.58 220.96 698.32 C219.37 700.79 217.75 702.51 215.64 704.52 C213.75 706.57 212.2 708.79 210.59 711.07 C203.13 721.5 194.43 730.94 185.73 740.34 C183.35 742.92 181 745.52 178.65 748.13 C173.53 753.84 168.34 759.49 163.15 765.13 C163.48 765.79 163.81 766.45 164.15 767.13 C174.02 766.63 180.76 761.06 188.15 755.13 C189.07 754.4 189.07 754.4 190 753.65 C205.4 741.16 220.29 726.34 224.15 706.13 C224.41 703.04 224.36 700.24 224.15 697.13 C223.49 696.8 222.83 696.47 222.15 696.13 Z M-270.85 722.13 C-270.85 723.78 -270.85 725.43 -270.85 727.13 C-270.52 727.13 -270.19 727.13 -269.85 727.13 C-269.85 725.48 -269.85 723.83 -269.85 722.13 C-270.18 722.13 -270.51 722.13 -270.85 722.13 Z M-29.85 728.13 C-28.86 729.62 -28.86 729.62 -27.85 731.13 C-27.85 730.14 -27.85 729.15 -27.85 728.13 C-28.51 728.13 -29.17 728.13 -29.85 728.13 Z M-270.85 737.13 C-269.85 740.13 -269.85 740.13 -269.85 740.13 Z M-29.85 742.13 C-28.85 744.13 -28.85 744.13 -28.85 744.13 Z " fill="#CB6698" transform="translate(557.84765625,-0.1328125)"/>
<path d="M0 0 C6.27 0 12.54 0 19 0 C19 0.33 19 0.66 19 1 C12.73 1 6.46 1 0 1 C0 0.67 0 0.34 0 0 Z " fill="#000002" transform="translate(695,807)"/>
<path d="M0 0 C0.33 0 0.66 0 1 0 C1 3.63 1 7.26 1 11 C0.67 11 0.34 11 0 11 C0 7.37 0 3.74 0 0 Z " fill="#000002" transform="translate(806,153)"/>
<path d="M0 0 C0.33 0 0.66 0 1 0 C1 1.65 1 3.3 1 5 C0.67 5 0.34 5 0 5 C0 3.35 0 1.7 0 0 Z " fill="#000002" transform="translate(903,717)"/>
<path d="M0 0 C1 4 1 4 1 4 Z " fill="#CC6799" transform="translate(374,718)"/>
<path d="M0 0 C1 4 1 4 1 4 Z " fill="#000002" transform="translate(837,707)"/>
<path d="M0 0 C1 4 1 4 1 4 Z " fill="#000002" transform="translate(837,688)"/>
<path d="M0 0 C4 1 4 1 4 1 Z " fill="#000002" transform="translate(486,439)"/>
<path d="M0 0 C3 1 3 1 3 1 Z " fill="#000002" transform="translate(720,806)"/>
<path d="M0 0 C3 1 3 1 3 1 Z " fill="#CC6799" transform="translate(593,558)"/>
<path d="M0 0 C3 1 3 1 3 1 Z " fill="#000002" transform="translate(402,439)"/>
<path d="M0 0 C3 1 3 1 3 1 Z " fill="#000002" transform="translate(495,438)"/>
<path d="M0 0 C3 1 3 1 3 1 Z " fill="#000002" transform="translate(395,438)"/>
<path d="" fill="#000002" transform="translate(0,0)"/>
<path d="" fill="#000002" transform="translate(0,0)"/>
<path d="M0 0 C2 1 2 1 2 1 Z " fill="#000002" transform="translate(1134,598)"/>
<path d="M0 0 C2 1 2 1 2 1 Z " fill="#000002" transform="translate(1042,598)"/>
<path d="M0 0 C2 1 2 1 2 1 Z " fill="#000002" transform="translate(1048,597)"/>
<path d="M0 0 C2 1 2 1 2 1 Z " fill="#000002" transform="translate(1119,596)"/>
<path d="M0 0 C2 1 2 1 2 1 Z " fill="#000002" transform="translate(1055,596)"/>
<path d="M0 0 C2 1 2 1 2 1 Z " fill="#000002" transform="translate(503,437)"/>
<path d="M0 0 C2 1 2 1 2 1 Z " fill="#000002" transform="translate(510,86)"/>
<path d="" fill="#000002" transform="translate(0,0)"/>
<path d="" fill="#000002" transform="translate(0,0)"/>
<path d="" fill="#000002" transform="translate(0,0)"/>
<path d="" fill="#000002" transform="translate(0,0)"/>
<path d="" fill="#000002" transform="translate(0,0)"/>
<path d="" fill="#CC6799" transform="translate(0,0)"/>
<path d="" fill="#000002" transform="translate(0,0)"/>
<path d="" fill="#000002" transform="translate(0,0)"/>
<path d="" fill="#000002" transform="translate(0,0)"/>
<path d="" fill="#000002" transform="translate(0,0)"/>
<path d="" fill="#000002" transform="translate(0,0)"/>
<path d="" fill="#000002" transform="translate(0,0)"/>
<path d="" fill="#000002" transform="translate(0,0)"/>
<path d="" fill="#000002" transform="translate(0,0)"/>
<path d="" fill="#000002" transform="translate(0,0)"/>
<path d="" fill="#000002" transform="translate(0,0)"/>
<path d="" fill="#000002" transform="translate(0,0)"/>
<path d="" fill="#000002" transform="translate(0,0)"/>
<path d="" fill="#000002" transform="translate(0,0)"/>
<path d="" fill="#000002" transform="translate(0,0)"/>
<path d="" fill="#000002" transform="translate(0,0)"/>
</svg>
