<?xml version="1.0" encoding="UTF-8"?>
<!-- Generator: visioncortex VTracer 0.6.3 -->
<svg version="1.1" xmlns="http://www.w3.org/2000/svg" width="1280" height="1280">
<path d="M0 0 C7 2.81 13.57 6.84 20.08 10.61 C25.68 13.85 31.37 16.92 37.06 20 C44.13 23.83 51.04 27.77 57.84 32.05 C61.65 34.4 65.53 36.62 69.44 38.81 C70.43 39.37 70.43 39.37 71.45 39.94 C74.34 41.56 77.24 43.12 80.21 44.6 C82.65 45.82 84.93 47.13 87.25 48.56 C91.98 51.43 96.79 54.14 101.62 56.81 C102.4 57.24 103.17 57.67 103.97 58.11 C105.54 58.98 107.12 59.85 108.69 60.72 C116.72 65.17 124.73 69.64 132.62 74.31 C138.32 77.66 144.13 80.79 149.94 83.94 C155.89 87.16 161.78 90.39 167.5 94 C174.11 98.17 180.97 101.85 187.84 105.57 C195.29 109.6 202.66 113.76 210 118 C218.49 122.88 227.02 127.7 235.61 132.41 C239.09 134.33 242.52 136.3 245.87 138.44 C250.68 141.48 255.68 144.13 260.69 146.81 C267.99 150.75 275.11 154.84 282.13 159.27 C285.98 161.59 289.98 163.54 294.02 165.5 C300.56 168.79 306.84 172.59 313 176.56 C316.09 178.52 319.27 180.15 322.56 181.75 C327.92 184.38 332.98 187.34 338.06 190.46 C343.67 193.87 349.43 196.94 355.28 199.91 C359.24 201.95 362.51 204.2 366 207 C368.16 208.16 370.35 209.26 372.56 210.31 C378 212.96 383.24 215.81 388.45 218.9 C393.23 221.74 398.05 224.49 402.88 227.25 C403.78 227.77 404.68 228.29 405.62 228.82 C409.18 230.86 412.72 232.86 416.39 234.69 C418.74 235.87 420.75 237.15 422.88 238.69 C427 241.5 431.27 243.7 435.75 245.88 C443.15 249.48 450.06 253.56 457 258 C458.58 258.98 460.17 259.96 461.75 260.94 C465 263 465 263 466 264 C466.1 266.8 466.14 269.58 466.14 272.38 C466.14 273.27 466.14 274.16 466.15 275.08 C466.15 278.12 466.15 281.15 466.15 284.18 C466.16 286.36 466.16 288.54 466.17 290.73 C466.18 296.75 466.18 302.77 466.19 308.8 C466.2 315.28 466.21 321.76 466.22 328.25 C466.24 343.18 466.26 358.11 466.27 373.04 C466.27 378.21 466.28 383.37 466.28 388.54 C466.31 415.97 466.33 443.41 466.34 470.85 C466.34 477.21 466.35 483.56 466.35 489.92 C466.35 490.71 466.35 491.5 466.35 492.32 C466.36 517.95 466.39 543.58 466.44 569.21 C466.48 595.54 466.51 621.87 466.51 648.2 C466.51 651.92 466.51 655.63 466.51 659.35 C466.51 660.08 466.51 660.81 466.51 661.57 C466.52 673.36 466.54 685.15 466.56 696.94 C466.59 708.78 466.6 720.62 466.59 732.46 C466.58 738.88 466.58 745.3 466.61 751.72 C466.63 757.59 466.63 763.46 466.61 769.33 C466.61 771.46 466.62 773.6 466.63 775.73 C466.65 778.61 466.64 781.49 466.62 784.37 C466.64 785.63 466.64 785.63 466.66 786.92 C466.62 789.24 466.62 789.24 466 793 C463.63 794.94 463.63 794.94 461 796 C460.1 796.51 459.19 797.02 458.26 797.55 C457.29 798.09 456.32 798.62 455.32 799.18 C454.25 799.78 453.17 800.38 452.06 801 C449.83 802.24 447.59 803.49 445.35 804.73 C440.04 807.69 434.8 810.69 429.67 813.95 C427.36 815.4 424.97 816.71 422.56 818 C421.15 818.76 421.15 818.76 419.71 819.54 C418.37 820.26 418.37 820.26 417 821 C412.17 823.61 407.43 826.34 402.74 829.2 C396.09 833.25 389.4 836.85 382.39 840.26 C377.87 842.58 373.62 845.27 369.32 847.98 C365.94 850.04 362.5 851.92 359 853.75 C347.17 859.95 335.35 866.4 324.19 873.75 C319.33 876.93 314.24 879.42 309.04 881.95 C303.65 884.6 298.63 887.65 293.56 890.86 C289.25 893.52 284.75 895.8 280.25 898.12 C274.62 901.04 269.21 903.99 264.02 907.64 C257.17 912.25 249.56 915.77 242.12 919.31 C239.53 920.71 237.19 922.19 234.77 923.84 C229.96 927.09 224.98 929.88 219.88 932.62 C218.16 933.55 216.45 934.48 214.74 935.41 C213.93 935.86 213.11 936.3 212.27 936.76 C209.15 938.46 206.08 940.23 203 942 C201.38 942.92 199.76 943.85 198.14 944.77 C196.37 945.78 194.59 946.8 192.81 947.81 C191.88 948.34 190.95 948.88 189.99 949.42 C185.12 952.21 180.26 955.01 175.44 957.88 C171.85 959.98 168.24 961.89 164.5 963.69 C157.92 966.9 151.75 970.72 145.51 974.53 C140.54 977.54 135.55 980.35 130.31 982.88 C125.79 985.06 121.73 987.43 117.62 990.3 C112.64 993.54 107.37 996.29 102.16 999.15 C96.5 1002.27 90.87 1005.44 85.25 1008.62 C84.26 1009.18 83.27 1009.74 82.26 1010.32 C77.1 1013.24 71.95 1016.17 66.81 1019.12 C60.41 1022.8 53.94 1026.32 47.47 1029.85 C41.66 1033.04 35.97 1036.39 30.33 1039.85 C25.02 1043.07 19.53 1045.82 13.93 1048.49 C11.36 1049.81 9.24 1051.2 7 1053 C4.6 1054.55 3.49 1055.04 0.62 1054.81 C-4.54 1053.21 -9.13 1050.39 -13.75 1047.62 C-17.39 1045.48 -21.01 1043.45 -24.81 1041.62 C-29 1039.58 -32.97 1037.25 -36.94 1034.81 C-43.57 1030.75 -50.38 1027.09 -57.3 1023.54 C-61.65 1021.3 -65.83 1018.92 -69.96 1016.29 C-73.68 1013.94 -77.5 1011.76 -81.31 1009.56 C-82.15 1009.08 -83 1008.59 -83.86 1008.09 C-88.87 1005.2 -93.91 1002.39 -99 999.65 C-107.61 994.91 -116.08 989.91 -124.54 984.91 C-125.54 984.32 -126.53 983.73 -127.56 983.12 C-128.39 982.63 -129.22 982.14 -130.07 981.63 C-132.57 980.24 -135.09 978.96 -137.67 977.7 C-143.21 974.96 -148.46 971.82 -153.75 968.62 C-161.09 964.23 -168.43 960.18 -176.13 956.46 C-178.65 955.18 -180.88 953.81 -183.19 952.19 C-187.58 949.11 -192.25 946.71 -197 944.25 C-205.55 939.82 -213.86 935.07 -222.12 930.13 C-229.45 925.74 -236.84 921.52 -244.35 917.46 C-247.78 915.57 -251.12 913.53 -254.47 911.5 C-258.02 909.39 -261.66 907.45 -265.29 905.5 C-267.85 904.08 -270.33 902.59 -272.81 901.06 C-276.79 898.64 -280.88 896.54 -285.06 894.5 C-288.94 892.61 -292.66 890.68 -296.19 888.19 C-300.58 885.11 -305.25 882.71 -310 880.25 C-319.2 875.49 -328.11 870.33 -337 865 C-344.44 860.56 -351.98 856.41 -359.66 852.4 C-364.01 850.11 -368.22 847.69 -372.38 845.06 C-377.62 841.76 -383 838.85 -388.5 836 C-395.19 832.54 -401.64 828.89 -408.02 824.88 C-411.05 822.97 -414.1 821.13 -417.19 819.31 C-418.07 818.79 -418.95 818.27 -419.86 817.74 C-422.41 816.32 -424.97 815.02 -427.6 813.74 C-433.65 810.74 -439.44 807.32 -445.25 803.88 C-447.34 802.64 -449.43 801.41 -451.52 800.18 C-452.43 799.64 -453.34 799.1 -454.27 798.55 C-456.2 797.46 -458.16 796.44 -460.16 795.49 C-462.75 794.13 -464.18 793.22 -466 791 C-466.3 788.07 -466.41 785.36 -466.38 782.43 C-466.39 781.1 -466.39 781.1 -466.4 779.73 C-466.41 776.72 -466.4 773.71 -466.39 770.7 C-466.4 768.54 -466.41 766.37 -466.41 764.2 C-466.43 758.22 -466.43 752.24 -466.42 746.26 C-466.42 739.81 -466.43 733.37 -466.45 726.93 C-466.47 714.3 -466.47 701.67 -466.47 689.04 C-466.47 678.78 -466.47 668.52 -466.48 658.26 C-466.48 656.79 -466.48 655.32 -466.48 653.84 C-466.48 653.11 -466.48 652.38 -466.48 651.63 C-466.48 650.9 -466.49 650.16 -466.49 649.41 C-466.49 648.68 -466.49 647.94 -466.49 647.19 C-466.5 626.55 -466.51 605.91 -466.51 585.27 C-466.51 584.49 -466.51 583.71 -466.5 582.91 C-466.5 578.96 -466.5 575.02 -466.5 571.07 C-466.5 570.29 -466.5 569.5 -466.5 568.69 C-466.5 567.11 -466.5 565.52 -466.5 563.94 C-466.49 539.27 -466.51 514.61 -466.54 489.94 C-466.58 462.25 -466.6 434.55 -466.59 406.86 C-466.59 403.91 -466.59 400.96 -466.59 398.01 C-466.59 397.28 -466.59 396.55 -466.59 395.8 C-466.59 384.82 -466.6 373.83 -466.62 362.85 C-466.64 350.36 -466.64 337.87 -466.63 325.38 C-466.62 319.01 -466.62 312.63 -466.64 306.26 C-466.66 300.42 -466.65 294.59 -466.63 288.76 C-466.62 286.65 -466.63 284.53 -466.64 282.42 C-466.66 279.55 -466.65 276.69 -466.62 273.82 C-466.64 272.99 -466.65 272.16 -466.66 271.31 C-466.59 267.08 -466.39 265.48 -463.66 262.07 C-460.68 259.75 -457.61 257.98 -454.25 256.31 C-448.48 253.35 -442.87 250.21 -437.31 246.88 C-431.61 243.47 -425.86 240.38 -419.88 237.48 C-415.56 235.26 -411.51 232.64 -407.39 230.06 C-403.95 227.97 -400.44 226.05 -396.88 224.19 C-385.88 218.43 -375.15 212.17 -364.56 205.69 C-360.11 202.98 -355.47 200.72 -350.79 198.42 C-347.86 196.93 -345.14 195.26 -342.38 193.48 C-339.04 191.4 -335.62 189.49 -332.19 187.56 C-331.55 187.2 -330.91 186.84 -330.25 186.47 C-326.45 184.35 -322.63 182.25 -318.79 180.18 C-311.39 176.15 -304.13 171.89 -296.85 167.65 C-290.27 163.84 -283.65 160.16 -276.93 156.61 C-273.05 154.48 -269.37 152.08 -265.66 149.68 C-259.9 146.04 -253.83 142.96 -247.81 139.8 C-246.7 139.22 -246.7 139.22 -245.56 138.62 C-244.11 137.85 -242.65 137.09 -241.19 136.33 C-236.92 134.1 -232.82 131.69 -228.75 129.1 C-226.79 127.87 -224.79 126.73 -222.75 125.62 C-219.18 123.67 -215.68 121.64 -212.19 119.56 C-208.21 117.23 -204.21 115.08 -200.06 113.06 C-195.89 111.01 -191.94 108.79 -188 106.31 C-182.6 102.92 -177.1 99.8 -171.5 96.75 C-161.82 91.47 -152.23 86.03 -142.67 80.53 C-138.14 77.93 -133.6 75.34 -129.06 72.75 C-122.01 68.72 -122.01 68.72 -114.96 64.68 C-108.99 61.26 -103 57.89 -96.95 54.61 C-87.62 49.51 -78.39 44.25 -69.25 38.81 C-63.55 35.42 -57.81 32.28 -51.81 29.45 C-48.79 27.89 -45.97 26.12 -43.1 24.3 C-39.74 22.22 -36.28 20.33 -32.81 18.44 C-24.74 13.99 -16.73 9.44 -8.73 4.85 C-7.88 4.36 -7.03 3.87 -6.16 3.37 C-5.4 2.94 -4.65 2.5 -3.87 2.06 C-2.6 1.34 -1.31 0.65 0 0 Z " fill="#F9FCFE" transform="translate(639,112)"/>
<path d="M0 0 C1.39 0.87 2.78 1.75 4.16 2.65 C7.63 4.82 11.23 6.7 14.83 8.62 C22.62 12.77 30.31 17.1 37.9 21.59 C43.33 24.77 48.88 27.71 54.43 30.68 C60.62 34 66.78 37.37 72.92 40.79 C82.47 46.11 92.06 51.34 101.67 56.57 C107.18 59.57 112.7 62.58 118.22 65.59 C122.87 68.13 127.53 70.67 132.19 73.21 C141.69 78.37 151.17 83.58 160.58 88.9 C172.59 95.68 184.67 102.32 196.78 108.9 C198.52 109.85 200.25 110.79 201.98 111.74 C203.65 112.65 205.34 113.55 207.03 114.43 C207.82 114.85 208.62 115.27 209.45 115.71 C210.15 116.07 210.86 116.44 211.59 116.82 C213.77 118.3 215.01 119.93 216.48 122.1 C215.87 122.43 215.26 122.76 214.64 123.1 C202.28 129.8 190.06 136.74 177.9 143.8 C171.94 147.26 165.97 150.69 159.98 154.1 C146.1 162.02 132.28 170.05 118.48 178.1 C90.46 194.46 90.46 194.46 79.67 200.48 C73.36 204 67.13 207.66 60.92 211.35 C53.36 215.84 45.77 220.23 38.11 224.54 C29.92 229.14 21.78 233.8 13.67 238.54 C12.7 239.11 11.72 239.67 10.72 240.26 C9.79 240.8 8.86 241.35 7.9 241.91 C7 242.43 6.09 242.96 5.17 243.5 C3.33 244.59 1.53 245.72 -0.26 246.88 C-1.14 247.44 -2.01 248 -2.91 248.57 C-3.68 249.08 -4.44 249.59 -5.24 250.12 C-8.17 251.38 -9.51 251.08 -12.52 250.1 C-14.82 249.02 -14.82 249.02 -17.2 247.65 C-18.09 247.14 -18.99 246.63 -19.92 246.1 C-21.36 245.27 -21.36 245.27 -22.83 244.41 C-23.85 243.83 -24.86 243.25 -25.91 242.65 C-35.08 237.39 -44.22 232.05 -53.35 226.71 C-68.03 218.12 -82.76 209.63 -97.58 201.29 C-104.71 197.27 -111.8 193.21 -118.84 189.04 C-128.55 183.29 -138.35 177.69 -148.12 172.06 C-153.59 168.91 -159.06 165.75 -164.52 162.6 C-171.04 158.84 -177.56 155.07 -184.09 151.32 C-194.95 145.06 -205.81 138.78 -216.64 132.48 C-217.62 131.91 -218.6 131.34 -219.61 130.75 C-224.97 127.63 -230.27 124.42 -235.52 121.1 C-232.04 118.17 -228.57 115.9 -224.54 113.78 C-223.38 113.17 -222.23 112.56 -221.04 111.92 C-220.44 111.61 -219.83 111.29 -219.21 110.96 C-216.02 109.29 -212.85 107.59 -209.67 105.91 C-209.04 105.57 -208.41 105.24 -207.77 104.9 C-202.97 102.35 -198.2 99.75 -193.46 97.1 C-192.77 96.72 -192.09 96.34 -191.39 95.95 C-189.93 95.13 -188.47 94.31 -187.02 93.5 C-181.77 90.56 -176.52 87.64 -171.27 84.73 C-170.69 84.4 -170.11 84.08 -169.51 83.75 C-158.22 77.47 -146.88 71.27 -135.52 65.1 C-124.24 58.97 -112.97 52.83 -101.77 46.57 C-96.04 43.38 -90.28 40.24 -84.52 37.1 C-68.93 28.62 -68.93 28.62 -53.39 20.04 C-48.76 17.46 -44.13 14.88 -39.48 12.32 C-38.63 11.85 -37.79 11.38 -36.91 10.89 C-35.2 9.95 -33.49 9.03 -31.78 8.11 C-27.88 6.01 -24.12 3.88 -20.48 1.35 C-13.02 -3.69 -8.03 -4.72 0 0 Z " fill="#1378BE" transform="translate(648.51953125,374.8994140625)"/>
<path d="M0 0 C0.23 30.98 0.41 61.96 0.51 92.95 C0.52 96.6 0.54 100.26 0.55 103.92 C0.55 104.65 0.55 105.37 0.56 106.12 C0.6 117.92 0.68 129.71 0.77 141.5 C0.87 153.6 0.92 165.69 0.94 177.79 C0.95 185.26 1 192.72 1.08 200.19 C1.14 205.91 1.14 211.64 1.13 217.36 C1.13 219.71 1.15 222.06 1.19 224.41 C1.47 242.19 1.47 242.19 -2.16 246.67 C-4.78 248.27 -7.06 249.16 -10 250 C-11.4 250.75 -12.78 251.53 -14.14 252.35 C-15.51 253.11 -16.88 253.87 -18.25 254.62 C-19.01 255.05 -19.77 255.47 -20.55 255.9 C-31.28 261.83 -42.06 267.68 -52.83 273.54 C-62.81 278.97 -72.77 284.41 -82.69 289.94 C-99.97 299.55 -117.28 309.09 -134.67 318.49 C-141.23 322.03 -147.76 325.63 -154.27 329.26 C-160.2 332.57 -166.16 335.82 -172.12 339.06 C-178.4 342.48 -184.66 345.91 -190.88 349.44 C-193.58 350.96 -196.29 352.48 -199 354 C-199.98 354.55 -200.96 355.1 -201.97 355.67 C-205.24 357.5 -208.53 359.31 -211.81 361.12 C-212.87 361.72 -213.93 362.31 -215.02 362.92 C-216.01 363.47 -217 364.01 -218.02 364.57 C-218.91 365.06 -219.8 365.56 -220.71 366.06 C-223 367 -223 367 -226 366 C-226.25 335.93 -226.45 305.85 -226.56 275.78 C-226.58 272.23 -226.59 268.68 -226.6 265.13 C-226.61 264.42 -226.61 263.71 -226.61 262.98 C-226.66 251.54 -226.75 240.1 -226.85 228.65 C-226.95 216.91 -227.01 205.16 -227.03 193.42 C-227.05 186.82 -227.08 180.23 -227.16 173.63 C-227.24 167.42 -227.26 161.22 -227.24 155.01 C-227.25 152.73 -227.27 150.45 -227.31 148.17 C-227.61 130.92 -227.61 130.92 -223.58 126.13 C-220.75 124.29 -218.17 123.1 -215 122 C-213.94 121.36 -212.87 120.72 -211.78 120.07 C-210.48 119.32 -210.48 119.32 -209.15 118.56 C-208.15 117.99 -207.14 117.41 -206.11 116.81 C-205.06 116.21 -204.02 115.62 -202.94 115 C-201.23 114.02 -199.52 113.04 -197.82 112.06 C-196.06 111.05 -194.29 110.04 -192.53 109.03 C-186.83 105.76 -181.13 102.47 -175.44 99.19 C-173.81 98.25 -173.81 98.25 -172.14 97.29 C-166.04 93.76 -159.94 90.21 -153.88 86.62 C-145.32 81.57 -136.67 76.71 -127.99 71.88 C-120.24 67.56 -112.56 63.17 -104.98 58.57 C-98.85 54.88 -92.63 51.34 -86.4 47.8 C-79.47 43.85 -72.57 39.84 -65.69 35.81 C-58.55 31.64 -51.39 27.5 -44.17 23.48 C-36.94 19.44 -29.82 15.24 -22.69 11.05 C-17.8 8.18 -12.9 5.34 -7.96 2.57 C-7.08 2.08 -6.2 1.58 -5.29 1.07 C-3 0 -3 0 0 0 Z " fill="#1378BE" transform="translate(881,526)"/>
<path d="M0 0 C3.65 -0.08 5.59 -0.01 8.61 2.09 C11.79 4.2 14.99 6.21 18.29 8.13 C19.24 8.68 20.19 9.24 21.17 9.81 C22.17 10.39 23.16 10.97 24.19 11.56 C25.23 12.17 26.27 12.78 27.35 13.4 C38.98 20.17 50.61 26.93 62.39 33.43 C67.77 36.41 73.07 39.52 78.38 42.62 C80.51 43.87 82.64 45.12 84.77 46.36 C85.82 46.98 86.88 47.59 87.96 48.23 C97.87 54.01 107.79 59.78 117.81 65.38 C125.12 69.46 132.32 73.72 139.52 77.99 C146.63 82.21 153.78 86.33 160.96 90.41 C168.69 94.81 176.36 99.28 184.03 103.77 C191.61 108.2 199.23 112.58 206.88 116.92 C209.25 118.27 211.63 119.63 214 121 C214.92 121.53 215.84 122.06 216.79 122.61 C217.69 123.14 218.6 123.67 219.54 124.22 C220.37 124.7 221.2 125.19 222.05 125.69 C224 127 224 127 225 129 C225.1 132.1 225.13 135.18 225.12 138.28 C225.12 139.74 225.12 139.74 225.12 141.23 C225.12 144.51 225.12 147.79 225.11 151.07 C225.11 153.42 225.11 155.76 225.11 158.11 C225.11 164.49 225.11 170.88 225.1 177.26 C225.1 183.25 225.09 189.24 225.09 195.23 C225.09 207.1 225.08 218.97 225.08 230.84 C225.07 242.37 225.06 253.9 225.05 265.43 C225.05 266.14 225.05 266.85 225.05 267.58 C225.05 271.14 225.05 274.71 225.05 278.27 C225.04 307.85 225.02 337.42 225 367 C221.3 365.79 217.89 364.55 214.48 362.67 C213.64 362.21 212.79 361.75 211.92 361.27 C211.02 360.77 210.12 360.27 209.19 359.75 C208.23 359.22 207.27 358.69 206.28 358.15 C197.98 353.57 189.73 348.93 181.47 344.29 C173.31 339.71 165.1 335.25 156.87 330.82 C150.11 327.17 143.42 323.43 136.75 319.62 C128.13 314.72 119.44 309.98 110.69 305.31 C100.93 300.11 91.23 294.84 81.58 289.44 C76.02 286.34 70.45 283.26 64.88 280.19 C63.94 279.67 63.94 279.67 62.98 279.14 C54.59 274.51 46.18 269.92 37.75 265.38 C29.15 260.73 20.59 256.02 12.06 251.25 C10.97 250.64 9.88 250.03 8.75 249.4 C7.25 248.56 7.25 248.56 5.72 247.7 C4.83 247.2 3.94 246.71 3.03 246.19 C1 245 1 245 0 244 C-0.1 240.86 -0.13 237.75 -0.12 234.62 C-0.12 233.62 -0.12 232.62 -0.12 231.59 C-0.12 228.23 -0.12 224.86 -0.11 221.49 C-0.11 219.08 -0.11 216.68 -0.11 214.28 C-0.11 209.09 -0.11 203.9 -0.11 198.71 C-0.1 191.2 -0.1 183.7 -0.09 176.2 C-0.09 164.02 -0.08 151.85 -0.08 139.68 C-0.07 127.85 -0.06 116.02 -0.05 104.19 C-0.05 103.46 -0.05 102.74 -0.05 101.99 C-0.05 98.33 -0.05 94.68 -0.05 91.02 C-0.04 60.68 -0.02 30.34 0 0 Z " fill="#1378BE" transform="translate(397,526)"/>
<path d="M0 0 C5.18 0.53 9.01 3.13 13.38 5.75 C15.08 6.76 16.78 7.76 18.48 8.76 C19.38 9.29 20.28 9.82 21.2 10.36 C25.98 13.15 30.8 15.85 35.62 18.56 C43.18 22.82 50.69 27.13 58.16 31.55 C63.4 34.66 68.69 37.68 73.98 40.7 C78.1 43.04 82.18 45.44 86.27 47.84 C97.04 54.15 107.87 60.34 118.8 66.38 C132.49 73.98 132.49 73.98 134 77 C134.09 78.54 134.12 80.08 134.12 81.62 C134.13 82.6 134.13 83.58 134.13 84.59 C134.13 85.67 134.12 86.75 134.12 87.87 C134.12 89.59 134.12 89.59 134.12 91.34 C134.12 94.53 134.12 97.72 134.12 100.9 C134.11 104.34 134.11 107.77 134.11 111.21 C134.11 117.16 134.11 123.11 134.11 129.07 C134.1 137.67 134.09 146.28 134.09 154.89 C134.09 168.85 134.08 182.82 134.08 196.78 C134.07 210.35 134.06 223.91 134.05 237.48 C134.05 238.32 134.05 239.15 134.05 240.01 C134.05 244.21 134.05 248.4 134.05 252.59 C134.04 287.4 134.02 322.2 134 357 C131.78 358.27 129.55 359.54 127.33 360.81 C126.71 361.17 126.08 361.52 125.44 361.89 C121.86 363.94 118.29 365.98 114.71 368.02 C100.16 376.32 85.65 384.69 71.19 393.15 C61.81 398.63 52.41 404.07 42.96 409.44 C34.97 414 27.02 418.63 19.08 423.28 C17.21 424.37 15.34 425.46 13.47 426.55 C11.94 427.45 10.42 428.37 8.93 429.33 C4.55 432.08 4.55 432.08 1.31 431.6 C0.54 431.4 -0.22 431.2 -1 431 C-1.02 376.38 -1.04 321.76 -1.05 267.15 C-1.05 260.7 -1.05 254.26 -1.05 247.82 C-1.06 246.54 -1.06 245.26 -1.06 243.94 C-1.06 223.14 -1.07 202.35 -1.08 181.56 C-1.09 160.24 -1.09 138.92 -1.09 117.6 C-1.1 104.44 -1.1 91.27 -1.11 78.11 C-1.11 69.09 -1.11 60.08 -1.11 51.06 C-1.11 45.85 -1.11 40.64 -1.12 35.43 C-1.12 30.67 -1.12 25.91 -1.12 21.15 C-1.12 19.42 -1.12 17.69 -1.12 15.96 C-1.13 13.62 -1.13 11.28 -1.12 8.95 C-1.12 7.64 -1.12 6.34 -1.12 5 C-1 2 -1 2 0 0 Z " fill="#8ED4F7" transform="translate(230,429)"/>
<path d="M0 0 C4.76 0.6 8.59 2.68 12.75 4.94 C13.87 5.54 13.87 5.54 15.01 6.15 C20.94 9.36 26.77 12.75 32.56 16.2 C38.27 19.6 44.05 22.84 49.86 26.05 C56.92 29.95 63.95 33.92 70.97 37.9 C77.18 41.42 83.42 44.91 89.66 48.39 C98.49 53.32 107.27 58.29 115.96 63.45 C124.58 68.55 133.36 73.35 142.13 78.17 C151.63 83.4 161.05 88.75 170.44 94.19 C180.68 100.13 191 105.92 201.37 111.65 C208.7 115.7 215.97 119.85 223.2 124.07 C229.62 127.81 236.11 131.4 242.63 134.95 C249.2 138.53 255.7 142.24 262.19 145.96 C282.73 157.76 282.73 157.76 303.4 169.34 C317.35 177.05 331.2 184.94 345.02 192.87 C347.46 194.26 349.9 195.66 352.34 197.05 C353.28 197.59 354.23 198.12 355.2 198.68 C357.07 199.75 358.94 200.81 360.81 201.88 C362.49 202.84 364.17 203.8 365.84 204.76 C367.59 205.77 369.36 206.75 371.12 207.73 C371.74 208.15 372.36 208.57 373 209 C373 209.66 373 210.32 373 211 C373.66 211 374.32 211 375 211 C373.73 214.8 372.57 215.11 369.13 217.05 C368.09 217.64 367.06 218.23 365.99 218.84 C364.86 219.47 363.73 220.1 362.56 220.75 C361.39 221.42 360.21 222.08 359.04 222.75 C356.59 224.14 354.14 225.53 351.69 226.91 C345.92 230.17 340.18 233.49 334.44 236.81 C333.35 237.44 332.25 238.07 331.13 238.72 C325.17 242.16 319.23 245.62 313.31 249.12 C305.78 253.59 298.15 257.88 290.52 262.18 C283.98 265.86 277.49 269.62 271.03 273.46 C265.43 276.77 259.77 279.97 254.09 283.13 C251.32 284.68 248.64 286.24 246 288 C239.37 287.93 234.69 284.86 229.12 281.5 C227.24 280.39 225.36 279.29 223.47 278.19 C222.54 277.64 221.61 277.1 220.66 276.54 C217.01 274.43 213.3 272.45 209.56 270.5 C191.25 260.92 173.17 250.88 155.18 240.71 C147.25 236.24 139.27 231.86 131.27 227.51 C125.5 224.37 119.74 221.2 114 218 C103.71 212.26 93.35 206.63 83 201 C71.97 195 60.94 188.98 49.97 182.86 C43.63 179.33 37.26 175.88 30.88 172.44 C23.81 168.62 16.76 164.79 9.75 160.88 C9.11 160.52 8.48 160.17 7.82 159.8 C6.2 158.89 4.6 157.95 3 157 C2.29 156.59 1.57 156.19 0.84 155.77 C-1 154 -1 154 -1.49 151.26 C-1.49 150.15 -1.49 149.03 -1.49 147.88 C-1.49 146.6 -1.5 145.32 -1.51 144 C-1.5 142.58 -1.48 141.16 -1.47 139.74 C-1.47 138.24 -1.47 136.75 -1.48 135.25 C-1.48 131.19 -1.46 127.13 -1.44 123.07 C-1.42 118.82 -1.42 114.58 -1.42 110.33 C-1.41 103.2 -1.39 96.07 -1.36 88.94 C-1.32 79.78 -1.3 70.62 -1.29 61.46 C-1.28 53.6 -1.26 45.73 -1.24 37.87 C-1.24 35.34 -1.23 32.8 -1.23 30.27 C-1.22 26.29 -1.2 22.32 -1.19 18.34 C-1.18 16.88 -1.18 15.42 -1.17 13.96 C-1.17 11.97 -1.16 9.98 -1.15 7.99 C-1.14 6.88 -1.14 5.76 -1.13 4.61 C-1 2 -1 2 0 0 Z " fill="#8ED4F7" transform="translate(655,188)"/>
<path d="M0 0 C3.56 1.73 6.96 3.69 10.38 5.69 C11.38 6.27 12.39 6.84 13.43 7.44 C16.62 9.28 19.81 11.14 23 13 C24.02 13.59 25.03 14.18 26.08 14.79 C30.11 17.14 34.14 19.49 38.17 21.84 C44.48 25.54 50.82 29.2 57.19 32.81 C66.41 38.06 75.57 43.43 84.72 48.81 C91.7 52.91 98.68 56.99 105.75 60.94 C106.95 61.61 108.14 62.28 109.34 62.95 C111.31 64.06 113.29 65.16 115.27 66.25 C117.64 67.57 120.01 68.91 122.38 70.25 C123.11 70.65 123.84 71.05 124.6 71.46 C127.89 73.35 129.67 74.37 131.48 77.8 C131.65 78.52 131.82 79.25 132 80 C123.43 85.5 114.61 90.45 105.66 95.29 C96.47 100.26 87.42 105.44 78.37 110.64 C74.93 112.61 71.46 114.56 68 116.5 C61.96 119.89 55.95 123.31 49.94 126.75 C35.78 134.85 21.59 142.92 7.31 150.81 C-0.96 155.39 -9.17 160.09 -17.38 164.79 C-25.77 169.6 -34.18 174.35 -42.62 179.06 C-51.23 183.86 -59.79 188.75 -68.31 193.69 C-78.4 199.53 -88.56 205.2 -98.79 210.79 C-109.18 216.48 -119.45 222.39 -129.73 228.28 C-139.17 233.67 -148.63 239.02 -158.09 244.36 C-162.9 247.07 -167.7 249.79 -172.5 252.5 C-178.27 255.76 -184.05 259.03 -189.82 262.29 C-191.26 263.1 -191.26 263.1 -192.73 263.93 C-194.65 265.01 -196.56 266.09 -198.48 267.17 C-203.31 269.9 -208.14 272.65 -212.94 275.45 C-213.89 276 -214.85 276.56 -215.83 277.13 C-217.65 278.18 -219.46 279.24 -221.26 280.31 C-222.08 280.78 -222.89 281.25 -223.73 281.73 C-224.43 282.15 -225.14 282.56 -225.87 282.99 C-228.23 284.11 -230.43 284.59 -233 285 C-234.39 282.23 -234.14 279.97 -234.15 276.87 C-234.15 275.56 -234.16 274.25 -234.17 272.91 C-234.17 271.45 -234.17 269.99 -234.18 268.53 C-234.18 267 -234.19 265.47 -234.2 263.94 C-234.21 259.78 -234.22 255.62 -234.23 251.46 C-234.24 248.86 -234.24 246.26 -234.25 243.66 C-234.27 235.54 -234.28 227.41 -234.29 219.28 C-234.3 209.89 -234.33 200.5 -234.37 191.12 C-234.4 183.86 -234.41 176.61 -234.42 169.36 C-234.42 165.02 -234.43 160.69 -234.45 156.36 C-234.48 152.28 -234.48 148.2 -234.47 144.13 C-234.47 142.63 -234.48 141.14 -234.49 139.64 C-234.51 137.6 -234.5 135.55 -234.49 133.51 C-234.49 132.37 -234.49 131.22 -234.49 130.05 C-233.89 126.33 -232.58 124.69 -230 122 C-228.15 120.7 -228.15 120.7 -226.23 119.75 C-225.13 119.19 -225.13 119.19 -224.01 118.62 C-223.22 118.23 -222.44 117.84 -221.62 117.44 C-219.91 116.56 -218.19 115.69 -216.48 114.81 C-215.58 114.35 -214.69 113.9 -213.76 113.43 C-209.11 111.03 -204.53 108.51 -199.94 106 C-199.01 105.49 -198.09 104.99 -197.13 104.47 C-188.4 99.68 -179.7 94.85 -171 90 C-160.42 84.1 -149.81 78.25 -139.17 72.46 C-133.43 69.34 -127.71 66.18 -122 63 C-110.76 56.73 -99.44 50.59 -88.14 44.44 C-78.26 39.07 -68.4 33.69 -58.62 28.15 C-54.32 25.72 -49.99 23.37 -45.62 21.06 C-40.03 18.1 -34.47 15.07 -28.94 12 C-28.18 11.58 -27.43 11.17 -26.65 10.74 C-23.04 8.74 -19.47 6.7 -15.96 4.55 C-15.33 4.17 -14.7 3.79 -14.05 3.4 C-12.37 2.38 -10.69 1.34 -9.02 0.3 C-5.22 -1.34 -3.94 -1.28 0 0 Z " fill="#8ED4F7" transform="translate(888,807)"/>
<path d="M0 0 C-0.33 141.9 -0.66 283.8 -1 430 C-5.81 429.04 -7.96 428 -11.98 425.41 C-13.14 424.68 -14.3 423.95 -15.45 423.22 C-16.04 422.85 -16.63 422.48 -17.24 422.09 C-22.17 419.03 -27.26 416.23 -32.31 413.38 C-34.78 411.97 -37.25 410.57 -39.72 409.16 C-40.33 408.81 -40.95 408.46 -41.58 408.1 C-47.52 404.71 -53.42 401.27 -59.31 397.81 C-68.15 392.63 -77.05 387.57 -85.97 382.55 C-91.94 379.19 -97.85 375.74 -103.7 372.18 C-108.79 369.09 -113.96 366.18 -119.2 363.36 C-120.41 362.69 -121.62 362 -122.82 361.29 C-124.37 360.37 -125.94 359.49 -127.53 358.64 C-134.43 354.52 -134.43 354.52 -135.92 350.54 C-136.27 347.54 -136.3 344.69 -136.23 341.67 C-136.24 340.53 -136.25 339.4 -136.26 338.23 C-136.29 334.43 -136.24 330.64 -136.2 326.84 C-136.2 324.12 -136.21 321.39 -136.22 318.67 C-136.24 312.04 -136.21 305.42 -136.16 298.79 C-136.11 291.07 -136.1 283.36 -136.1 275.64 C-136.1 261.88 -136.05 248.11 -135.97 234.34 C-135.9 220.98 -135.86 207.62 -135.85 194.26 C-135.85 193.44 -135.85 192.62 -135.85 191.77 C-135.85 190.95 -135.85 190.13 -135.85 189.28 C-135.85 187.62 -135.85 185.97 -135.85 184.31 C-135.85 183.5 -135.85 182.68 -135.85 181.84 C-135.84 169.11 -135.8 156.38 -135.76 143.65 C-135.75 139.03 -135.74 134.42 -135.73 129.8 C-135.72 122.48 -135.7 115.17 -135.65 107.85 C-135.63 104.5 -135.61 101.16 -135.61 97.82 C-135.61 94.19 -135.58 90.57 -135.55 86.95 C-135.56 85.36 -135.56 85.36 -135.56 83.73 C-135.46 76.63 -135.46 76.63 -133.09 73.4 C-129.03 70.68 -129.03 70.68 -126.93 69.51 C-126.13 69.06 -125.33 68.61 -124.5 68.14 C-123.2 67.42 -123.2 67.42 -121.88 66.69 C-119.98 65.62 -118.08 64.55 -116.19 63.48 C-115.18 62.92 -114.18 62.36 -113.14 61.78 C-107.7 58.7 -102.29 55.57 -96.88 52.44 C-95.22 51.48 -95.22 51.48 -93.52 50.5 C-90.35 48.67 -87.17 46.83 -84 45 C-83.14 44.5 -82.27 44 -81.38 43.49 C-73.95 39.2 -66.53 34.9 -59.13 30.56 C-49.23 24.77 -39.32 19.02 -29.26 13.49 C-23.68 10.42 -18.21 7.19 -12.77 3.87 C-11.18 2.9 -9.59 1.95 -8 1 C-7.29 0.57 -6.57 0.13 -5.84 -0.31 C-4 -1 -4 -1 0 0 Z " fill="#8ED4F7" transform="translate(1048,431)"/>
<path d="M0 0 C0.66 0.33 1.32 0.66 2 1 C2.12 21.01 2.2 41.02 2.26 61.03 C2.28 70.32 2.32 79.61 2.38 88.9 C2.43 97 2.46 105.1 2.47 113.19 C2.48 117.48 2.49 121.77 2.53 126.06 C2.56 130.09 2.57 134.13 2.57 138.16 C2.57 139.64 2.58 141.13 2.6 142.61 C2.62 144.63 2.61 146.65 2.6 148.67 C2.61 149.8 2.61 150.94 2.62 152.1 C2 155 2 155 -0.39 157.3 C-2.87 158.92 -5.35 160.42 -7.96 161.81 C-8.92 162.32 -9.87 162.84 -10.85 163.36 C-11.87 163.9 -12.89 164.44 -13.94 165 C-16.11 166.16 -18.27 167.33 -20.44 168.49 C-21.54 169.07 -22.63 169.66 -23.76 170.26 C-28.65 172.88 -33.51 175.53 -38.38 178.19 C-39.28 178.68 -40.19 179.18 -41.12 179.69 C-47.53 183.19 -53.92 186.72 -60.3 190.28 C-66.83 193.92 -73.39 197.51 -79.95 201.1 C-84.47 203.58 -88.94 206.12 -93.38 208.75 C-97.4 211.13 -101.48 213.26 -105.69 215.31 C-111.01 217.93 -116.1 220.77 -121.19 223.81 C-127.08 227.34 -133.03 230.66 -139.12 233.81 C-146.15 237.46 -153.06 241.26 -159.94 245.19 C-168.7 250.18 -177.54 255.01 -186.44 259.75 C-197.46 265.62 -197.46 265.62 -208.38 271.69 C-208.97 272.02 -209.56 272.35 -210.17 272.7 C-213.02 274.31 -215.86 275.92 -218.7 277.55 C-221.66 279.26 -224.64 280.94 -227.62 282.62 C-228.56 283.17 -229.5 283.72 -230.47 284.28 C-237.08 287.98 -237.08 287.98 -241.22 288.07 C-244.63 286.76 -247.74 285.16 -250.88 283.31 C-251.55 282.92 -252.23 282.53 -252.92 282.13 C-255.29 280.77 -257.64 279.38 -260 278 C-261.92 276.88 -263.83 275.76 -265.75 274.64 C-268.83 272.84 -271.91 271.04 -274.99 269.24 C-281.18 265.62 -287.4 262.08 -293.69 258.62 C-298.6 255.93 -303.43 253.16 -308.19 250.19 C-313.97 246.57 -319.87 243.21 -325.81 239.88 C-334.16 235.18 -342.47 230.44 -350.75 225.62 C-352.19 224.79 -352.19 224.79 -353.67 223.93 C-360.21 220.11 -366.63 216.11 -373 212 C-369.22 208.91 -365.4 206.4 -361.12 204.06 C-359.69 203.27 -358.26 202.47 -356.82 201.68 C-356.05 201.25 -355.28 200.82 -354.48 200.38 C-349.95 197.86 -345.45 195.3 -340.94 192.75 C-338.97 191.64 -336.99 190.52 -335.02 189.41 C-333.02 188.27 -331.01 187.14 -329 186 C-325.02 183.75 -321.04 181.5 -317.06 179.25 C-316.09 178.7 -315.13 178.15 -314.13 177.59 C-310.06 175.29 -305.99 172.99 -301.91 170.71 C-293.65 166.09 -285.44 161.37 -277.25 156.62 C-268.64 151.64 -259.99 146.75 -251.26 141.99 C-244.52 138.31 -237.86 134.51 -231.21 130.69 C-224.33 126.75 -217.42 122.86 -210.5 119 C-198.41 112.25 -186.38 105.39 -174.38 98.49 C-164.05 92.56 -153.69 86.71 -143.24 81 C-137.93 78.1 -132.7 75.09 -127.5 72 C-120.65 67.92 -113.7 64.06 -106.71 60.24 C-100.74 56.98 -94.83 53.64 -88.94 50.25 C-79.48 44.82 -69.96 39.51 -60.41 34.25 C-54.66 31.07 -48.99 27.82 -43.37 24.41 C-39.45 22.08 -35.45 19.92 -31.44 17.75 C-24 13.7 -16.65 9.51 -9.38 5.17 C-2.12 0.84 -2.12 0.84 0 0 Z " fill="#8ED4F7" transform="translate(620,188)"/>
<path d="M0 0 C0.97 0.53 1.94 1.06 2.94 1.61 C4.56 2.49 4.56 2.49 6.21 3.39 C7.92 4.33 7.92 4.33 9.65 5.29 C10.84 5.94 12.03 6.59 13.21 7.23 C20.05 10.97 26.83 14.79 33.58 18.69 C41.06 22.99 48.68 27.04 56.26 31.16 C68.31 37.7 80.36 44.26 92.34 50.95 C98.15 54.18 103.99 57.37 109.84 60.54 C117.37 64.63 124.84 68.8 132.28 73.04 C141.62 78.36 151.06 83.47 160.55 88.52 C168.13 92.56 175.66 96.66 183.09 100.98 C186.53 102.94 190.02 104.81 193.53 106.67 C199 109.56 204.44 112.52 209.84 115.54 C210.51 115.91 211.18 116.29 211.88 116.67 C213.65 117.67 215.4 118.7 217.15 119.73 C217.87 120.13 218.59 120.53 219.33 120.95 C221.15 122.73 221.15 122.73 221.66 125.63 C221.67 126.82 221.67 128.01 221.67 129.24 C221.68 130.24 221.68 130.24 221.7 131.25 C221.72 133.48 221.71 135.71 221.7 137.94 C221.71 139.54 221.72 141.13 221.73 142.73 C221.76 147.07 221.76 151.41 221.76 155.74 C221.76 160.28 221.79 164.81 221.81 169.34 C221.85 177.93 221.87 186.51 221.89 195.1 C221.9 204.87 221.94 214.64 221.98 224.41 C222.06 244.52 222.12 264.62 222.15 284.73 C219.74 283.44 217.33 282.16 214.92 280.88 C214.24 280.51 213.56 280.15 212.86 279.78 C208.36 277.38 203.9 274.94 199.47 272.42 C194.26 269.46 189.03 266.56 183.77 263.69 C176.82 259.89 169.9 256.04 163.09 251.98 C155.78 247.62 148.35 243.47 140.9 239.35 C131.86 234.35 122.84 229.3 113.88 224.15 C107.38 220.43 100.86 216.73 94.34 213.04 C92.87 212.21 92.87 212.21 91.38 211.37 C87.3 209.06 83.22 206.76 79.13 204.47 C72.85 200.95 66.58 197.41 60.33 193.83 C59.72 193.48 59.11 193.13 58.48 192.77 C55.41 191.01 52.33 189.25 49.26 187.49 C43.12 183.96 36.94 180.5 30.72 177.13 C26.62 174.89 22.58 172.56 18.53 170.23 C10.6 165.68 2.64 161.19 -5.35 156.73 C-14.05 151.87 -22.73 146.95 -31.38 141.99 C-36.92 138.81 -42.5 135.69 -48.1 132.6 C-54.72 128.95 -61.26 125.18 -67.75 121.3 C-72.45 118.51 -77.22 115.87 -82.02 113.27 C-86.53 110.81 -91 108.27 -95.47 105.73 C-101.8 102.14 -108.14 98.56 -114.51 95.02 C-115.61 94.41 -116.71 93.79 -117.84 93.16 C-119.95 91.99 -122.05 90.83 -124.16 89.66 C-130.88 85.92 -137.4 81.93 -143.85 77.73 C-142.58 73.92 -140.82 73.43 -137.38 71.67 C-136.62 71.3 -135.87 70.93 -135.1 70.54 C-129.74 67.8 -124.5 65 -119.41 61.79 C-114.39 58.64 -109.29 55.71 -104.1 52.85 C-96.71 48.79 -89.44 44.58 -82.19 40.29 C-75.25 36.18 -68.26 32.17 -61.27 28.13 C-58.82 26.71 -56.37 25.29 -53.91 23.87 C-45.76 19.14 -37.61 14.42 -29.4 9.79 C-26.7 8.25 -24.06 6.63 -21.42 4.98 C-20.66 4.51 -19.9 4.05 -19.12 3.56 C-17.64 2.65 -16.17 1.73 -14.7 0.79 C-14.03 0.38 -13.35 -0.04 -12.66 -0.46 C-11.77 -1.02 -11.77 -1.02 -10.87 -1.59 C-6.96 -2.9 -3.64 -1.63 0 0 Z " fill="#8ED4F7" transform="translate(400.845703125,808.271728515625)"/>
</svg>
