<?xml version="1.0" encoding="UTF-8"?>
<!-- Generator: visioncortex VTracer 0.6.3 -->
<svg version="1.1" xmlns="http://www.w3.org/2000/svg" width="1280" height="1280">
<path d="M0 0 C422.4 0 844.8 0 1280 0 C1280 422.4 1280 844.8 1280 1280 C857.6 1280 435.2 1280 0 1280 C0 857.6 0 435.2 0 0 Z " fill="none" transform="translate(0,0)"/>
<path d="M0 0 C2.17 0.01 4.33 0.01 6.5 0.02 C28.41 0.08 49.92 0.88 71.56 4.45 C72.94 4.66 74.32 4.88 75.7 5.1 C124.61 12.82 173.7 27.06 217.56 50.39 C219.93 51.64 222.33 52.87 224.72 54.1 C234.6 59.18 244.22 64.42 253.56 70.45 C254.87 71.27 256.19 72.1 257.5 72.93 C273.36 82.98 288.37 94.01 302.82 106.01 C305.28 108.03 307.77 110.02 310.25 112.01 C315.96 116.69 321.36 121.69 326.74 126.74 C328.72 128.59 330.71 130.43 332.7 132.27 C334.11 133.58 335.53 134.89 336.94 136.2 C337.59 136.8 338.25 137.4 338.92 138.02 C342.83 141.67 346.43 145.47 349.91 149.53 C351.88 151.81 353.92 154.01 355.99 156.21 C361.8 162.41 367.3 168.78 372.56 175.45 C373.08 176.09 373.59 176.74 374.12 177.4 C382.65 188.16 390.8 199.13 398.56 210.45 C398.99 211.07 399.42 211.68 399.86 212.32 C410.24 227.4 419.71 243.02 427.63 259.53 C428.57 261.46 429.54 263.38 430.51 265.29 C464.29 331.51 482.11 405.19 481.82 479.55 C481.81 482.88 481.82 486.21 481.84 489.54 C481.89 566.39 463.51 651.15 422.86 717.34 C421.39 719.72 420.06 722.16 418.75 724.63 C402.45 754.75 381.88 782.66 358.83 807.94 C357.58 809.32 356.34 810.71 355.13 812.13 C350.36 817.69 345.26 822.9 340.08 828.07 C338.63 829.51 337.19 830.95 335.75 832.4 C330.52 837.63 325.18 842.65 319.56 847.45 C318.19 848.69 316.81 849.94 315.44 851.2 C310.54 855.56 305.4 859.58 300.21 863.6 C297.88 865.41 295.58 867.24 293.29 869.1 C278.35 881.22 261.95 891.42 245.56 901.45 C244.63 902.02 243.7 902.59 242.74 903.18 C231.63 909.94 220.12 915.67 208.34 921.15 C206.29 922.11 204.25 923.07 202.22 924.05 C192.74 928.57 183.1 932.52 173.31 936.32 C171.82 936.91 170.32 937.49 168.83 938.08 C157.8 942.39 146.74 945.99 134.84 942.69 C132.81 941.7 132.81 941.7 129.56 939.45 C128.64 938.85 127.71 938.25 126.75 937.63 C122.16 933.05 120.7 926.88 120.45 920.55 C120.45 919.48 120.45 918.41 120.46 917.31 C120.46 916.08 120.46 914.84 120.46 913.57 C120.47 912.21 120.47 910.85 120.48 909.49 C120.49 908.05 120.49 906.61 120.49 905.17 C120.5 902.07 120.51 898.97 120.52 895.87 C120.54 890.96 120.55 886.04 120.55 881.13 C120.58 867.15 120.61 853.17 120.66 839.19 C120.68 831.47 120.7 823.75 120.71 816.02 C120.72 811.95 120.73 807.87 120.74 803.79 C120.91 766.68 118.83 729.31 91.96 700.85 C91.5 700.39 91.04 699.92 90.56 699.45 C90.89 698.46 91.22 697.47 91.56 696.45 C92.87 696.27 92.87 696.27 94.19 696.1 C131.14 691.13 166.8 683.9 200.56 667.45 C201.22 667.13 201.88 666.82 202.56 666.5 C219.7 658.24 235.08 646.81 248.56 633.45 C249.36 632.7 250.15 631.96 250.97 631.19 C262.59 620.1 272.15 606.64 279.56 592.45 C280.11 591.43 280.66 590.41 281.22 589.36 C310.77 532.74 317.16 455.94 298.19 394.93 C291.45 374.31 280.11 352.65 265.11 336.87 C259.55 330.86 259.55 330.86 259.59 327.05 C260.31 324.51 260.31 324.51 261.35 321.77 C262.89 317.54 263.78 313.29 264.69 308.88 C264.86 308.11 265.03 307.33 265.2 306.52 C267.48 295.77 267.8 285.11 267.81 274.13 C267.81 273.43 267.81 272.72 267.82 272 C267.78 247.86 263.19 224.97 254.56 202.45 C254.23 201.46 253.9 200.47 253.56 199.45 C222.92 199.79 190.99 208.52 164.89 225 C162.49 226.49 160.05 227.82 157.56 229.13 C152.35 231.94 147.3 234.98 142.25 238.07 C141.49 238.54 140.72 239.01 139.93 239.49 C135.75 242.06 131.63 244.7 127.56 247.45 C123.43 250.2 120.23 249.26 115.56 248.45 C111.5 247.61 107.47 246.65 103.44 245.7 C68.05 237.61 31.89 233.59 -4.44 234.45 C-5.3 234.46 -6.15 234.48 -7.04 234.5 C-40.07 235.27 -73.09 239.39 -105.1 247.66 C-112.18 249.42 -117.2 250.31 -123.8 246.51 C-124.98 245.69 -126.15 244.85 -127.31 244.01 C-128.63 243.09 -129.96 242.17 -131.29 241.26 C-132.31 240.56 -132.31 240.56 -133.36 239.84 C-139.51 235.72 -145.98 232.08 -152.44 228.45 C-153.17 228.03 -153.9 227.62 -154.65 227.2 C-179.83 213.15 -208.55 200.14 -237.81 200.38 C-239.34 200.39 -239.34 200.39 -240.91 200.4 C-243.42 200.41 -245.93 200.43 -248.44 200.45 C-251.41 206.69 -253.65 212.92 -255.5 219.57 C-255.76 220.49 -256.01 221.41 -256.28 222.35 C-258.39 230 -260.12 237.62 -261.44 245.45 C-261.74 247.1 -261.74 247.1 -262.06 248.79 C-266.44 275.65 -262.98 302.81 -254.44 328.45 C-255.45 330.11 -255.45 330.11 -257.12 332.07 C-262.47 338.62 -267.27 345.54 -272.08 352.49 C-273.19 354.1 -274.32 355.69 -275.45 357.29 C-307.84 405.08 -308.07 470.01 -297.84 524.62 C-292.26 553.19 -283.48 580.97 -267.44 605.45 C-266.87 606.32 -266.87 606.32 -266.29 607.21 C-254.11 625.7 -238.08 640.52 -220.1 653.26 C-218.74 654.23 -217.39 655.21 -216.04 656.2 C-209.6 660.73 -202.53 664.06 -195.45 667.47 C-193.63 668.35 -191.82 669.27 -190.02 670.2 C-161.63 684.31 -129.18 691.13 -97.89 695.03 C-96 695.27 -96 695.27 -94.06 695.51 C-92.47 695.68 -92.47 695.68 -90.85 695.86 C-88.44 696.45 -88.44 696.45 -86.44 699.45 C-86.99 700.01 -87.55 700.57 -88.12 701.14 C-94.65 707.99 -99.09 715.1 -103.44 723.45 C-104.15 724.75 -104.15 724.75 -104.87 726.08 C-108.64 733.56 -110.41 741.57 -112.32 749.68 C-112.51 750.48 -112.7 751.28 -112.9 752.1 C-113.25 753.64 -113.58 755.19 -113.88 756.75 C-114.96 762 -114.96 762 -117.23 764.11 C-145.9 775.62 -178.4 779.6 -207.44 767.45 C-229.57 757.24 -245.74 740.1 -258.1 719.4 C-270.9 698.04 -289.96 682.17 -313.94 674.95 C-324.25 672.49 -336.75 671.3 -346.44 676.45 C-349.13 678.05 -349.13 678.05 -350.44 680.45 C-350.04 686.56 -347.65 688.95 -343.36 693.02 C-339.47 696.25 -335.34 698.97 -331.1 701.72 C-320.88 708.36 -312.76 715.67 -305.44 725.45 C-305.04 725.96 -304.65 726.48 -304.24 727.01 C-294.02 740.41 -286.47 754.78 -279.87 770.26 C-272.27 787.96 -261.65 802.63 -245.44 813.45 C-244.65 814 -243.87 814.55 -243.07 815.11 C-231.73 822.76 -218.7 828.2 -205.44 831.45 C-203.61 831.9 -203.61 831.9 -201.74 832.35 C-175.93 837.83 -147.45 835.32 -121.72 830.7 C-119.44 830.45 -119.44 830.45 -117.44 831.45 C-117.34 843.81 -117.27 856.17 -117.23 868.53 C-117.21 874.27 -117.18 880.01 -117.13 885.75 C-117.09 891.3 -117.07 896.84 -117.06 902.38 C-117.05 904.49 -117.04 906.61 -117.01 908.72 C-116.98 911.68 -116.98 914.65 -116.98 917.61 C-116.97 918.48 -116.95 919.34 -116.94 920.23 C-116.98 926.79 -118.39 933.01 -122.85 938.04 C-129.06 943.51 -135.95 944.51 -144 944.2 C-155.95 943.04 -167.46 937.09 -178.44 932.45 C-180.08 931.77 -180.08 931.77 -181.75 931.07 C-246.85 904.03 -315.7 859.14 -359.55 802.83 C-361.49 800.37 -363.56 798.11 -365.69 795.82 C-372.1 788.76 -377.75 781.1 -383.44 773.45 C-383.99 772.7 -384.55 771.95 -385.13 771.18 C-392.34 761.45 -399.07 751.54 -405.36 741.2 C-406.93 738.65 -408.56 736.14 -410.19 733.63 C-413.54 728.37 -416.51 722.95 -419.44 717.45 C-420.05 716.33 -420.67 715.21 -421.31 714.05 C-425.52 706.37 -429.28 698.58 -432.73 690.52 C-434.03 687.52 -435.29 684.68 -436.99 681.88 C-438.84 678.76 -440.03 675.47 -441.25 672.07 C-442.93 667.43 -444.68 662.84 -446.55 658.28 C-449.93 649.97 -452.8 641.58 -455.44 633.01 C-455.65 632.32 -455.86 631.63 -456.09 630.91 C-469.9 586.17 -477.25 540.24 -478.44 493.45 C-478.46 492.58 -478.48 491.72 -478.51 490.83 C-479.31 456.49 -475.46 422.05 -468.94 388.38 C-468.79 387.64 -468.65 386.9 -468.5 386.13 C-466.55 376.11 -464.2 366.28 -461.44 356.45 C-461.11 355.29 -460.79 354.13 -460.45 352.93 C-456.42 338.71 -452 324.7 -446.75 310.88 C-446.31 309.73 -445.87 308.57 -445.42 307.38 C-442.78 300.56 -439.87 293.9 -436.75 287.29 C-435.58 284.76 -434.54 282.23 -433.56 279.63 C-420.2 245.45 -398.1 213.05 -375.44 184.45 C-374.46 183.2 -374.46 183.2 -373.47 181.93 C-369.59 177.01 -365.57 172.21 -361.5 167.45 C-360.8 166.63 -360.8 166.63 -360.09 165.79 C-358.55 164 -356.99 162.22 -355.44 160.45 C-354.48 159.36 -354.48 159.36 -353.51 158.24 C-347.64 151.63 -341.5 145.33 -335.25 139.08 C-333.57 137.39 -331.89 135.69 -330.21 133.99 C-324.33 128.08 -318.37 122.53 -311.83 117.36 C-309.43 115.44 -307.15 113.44 -304.87 111.38 C-296.95 104.29 -288.55 98.04 -279.84 91.96 C-275.43 88.87 -271.09 85.71 -266.81 82.45 C-263.42 79.88 -260.11 77.51 -256.36 75.51 C-253.74 74.06 -251.23 72.47 -248.69 70.88 C-235.23 62.57 -221.7 54.85 -207.3 48.31 C-204.62 47.07 -202 45.73 -199.37 44.38 C-161.2 25.17 -118.49 13.38 -76.5 6.07 C-74.57 5.73 -74.57 5.73 -72.6 5.39 C-48.49 1.41 -24.4 -0.11 0 0 Z " fill="#161414" transform="translate(637.4364204406738,168.55316925048828)"/>
</svg>
