<?xml version="1.0" encoding="UTF-8"?>
<!-- Generator: visioncortex VTracer 0.6.3 -->
<svg version="1.1" xmlns="http://www.w3.org/2000/svg" width="1280" height="1280">
<path d="M0 0 C15.51 0 31.02 0 47 0 C47 0.66 47 1.32 47 2 C48.05 2.02 49.1 2.04 50.19 2.06 C60.01 3.3 70.59 10.66 78 17 C78 17.66 78 18.32 78 19 C78.99 19.33 79.98 19.66 81 20 C81 20.66 81 21.32 81 22 C81.8 22.34 81.8 22.34 82.62 22.69 C88.27 25.81 91.93 30.09 96 35 C96.83 35.66 97.65 36.32 98.5 37 C101.45 39.36 103.58 42.1 106 45 C106.83 45.66 107.65 46.32 108.5 47 C111.45 49.36 113.58 52.1 116 55 C116.83 55.66 117.65 56.32 118.5 57 C121.45 59.36 123.58 62.1 126 65 C126.83 65.66 127.65 66.32 128.5 67 C131.45 69.36 133.58 72.1 136 75 C136.83 75.66 137.65 76.32 138.5 77 C141.45 79.36 143.58 82.1 146 85 C146.83 85.66 147.65 86.32 148.5 87 C151.45 89.36 153.58 92.1 156 95 C156.83 95.66 157.65 96.32 158.5 97 C161.45 99.36 163.58 102.1 166 105 C166.83 105.66 167.65 106.32 168.5 107 C171.45 109.36 173.58 112.1 176 115 C176.83 115.66 177.65 116.32 178.5 117 C181.45 119.36 183.58 122.1 186 125 C186.83 125.66 187.65 126.32 188.5 127 C191.45 129.36 193.58 132.1 196 135 C196.83 135.66 197.65 136.32 198.5 137 C201 139 201 139 203.44 141.94 C206.05 145.06 208.87 147.4 212 150 C213.33 151.67 214.67 153.33 216 155 C216.99 155.82 217.98 156.65 219 157.5 C221.8 159.84 223.74 162.17 226 165 C226.99 165.82 227.98 166.65 229 167.5 C231.8 169.84 233.74 172.17 236 175 C236.99 175.82 237.98 176.65 239 177.5 C241.8 179.84 243.74 182.17 246 185 C246.99 185.82 247.98 186.65 249 187.5 C251.8 189.84 253.74 192.17 256 195 C256.99 195.82 257.98 196.65 259 197.5 C261.8 199.84 263.74 202.17 266 205 C266.99 205.82 267.98 206.65 269 207.5 C271.8 209.84 273.74 212.17 276 215 C276.99 215.82 277.98 216.65 279 217.5 C281.8 219.84 283.74 222.17 286 225 C286.99 225.82 287.98 226.65 289 227.5 C291.8 229.84 293.74 232.17 296 235 C296.99 235.82 297.98 236.65 299 237.5 C301.8 239.84 303.74 242.17 306 245 C306.99 245.82 307.98 246.65 309 247.5 C311.8 249.84 313.74 252.17 316 255 C316.99 255.82 317.98 256.65 319 257.5 C321.8 259.84 323.74 262.17 326 265 C326.99 265.82 327.98 266.65 329 267.5 C331.8 269.84 333.74 272.17 336 275 C336.99 275.82 337.98 276.65 339 277.5 C341.8 279.84 343.74 282.17 346 285 C346.99 285.82 347.98 286.65 349 287.5 C351.8 289.84 353.74 292.17 356 295 C356.99 295.82 357.98 296.65 359 297.5 C361.8 299.84 363.74 302.17 366 305 C366.99 305.82 367.98 306.65 369 307.5 C371.8 309.84 373.74 312.17 376 315 C376.99 315.82 377.98 316.65 379 317.5 C381.8 319.84 383.74 322.17 386 325 C386.97 325.8 387.94 326.61 388.94 327.44 C392.06 330.05 394.4 332.87 397 336 C397.83 336.66 398.65 337.32 399.5 338 C402.45 340.36 404.58 343.1 407 346 C407.83 346.66 408.65 347.32 409.5 348 C412.45 350.36 414.58 353.1 417 356 C418.24 356.99 418.24 356.99 419.5 358 C422.45 360.36 424.58 363.1 427 366 C428.24 366.99 428.24 366.99 429.5 368 C432.45 370.36 434.58 373.1 437 376 C438.24 376.99 438.24 376.99 439.5 378 C442.45 380.36 444.58 383.1 447 386 C448.24 386.99 448.24 386.99 449.5 388 C452.45 390.36 454.58 393.1 457 396 C458.24 396.99 458.24 396.99 459.5 398 C462.45 400.36 464.58 403.1 467 406 C468.24 406.99 468.24 406.99 469.5 408 C472.45 410.36 474.58 413.1 477 416 C478.24 416.99 478.24 416.99 479.5 418 C482.45 420.36 484.58 423.1 487 426 C488.24 426.99 488.24 426.99 489.5 428 C492.45 430.36 494.58 433.1 497 436 C498.24 436.99 498.24 436.99 499.5 438 C502.45 440.36 504.58 443.1 507 446 C508.24 446.99 508.24 446.99 509.5 448 C512.45 450.36 514.58 453.1 517 456 C518.24 456.99 518.24 456.99 519.5 458 C522.45 460.36 524.58 463.1 527 466 C528.24 466.99 528.24 466.99 529.5 468 C532.45 470.36 534.58 473.1 537 476 C538.24 476.99 538.24 476.99 539.5 478 C542.45 480.36 544.58 483.1 547 486 C548.24 486.99 548.24 486.99 549.5 488 C552.45 490.36 554.58 493.1 557 496 C558.24 496.99 558.24 496.99 559.5 498 C562.45 500.36 564.58 503.1 567 506 C568.24 506.99 568.24 506.99 569.5 508 C572.45 510.36 574.58 513.1 577 516 C577.83 516.66 578.65 517.32 579.5 518 C582 520 582 520 584.44 522.94 C587.05 526.06 589.87 528.4 593 531 C594.33 532.67 595.67 534.33 597 536 C597.99 536.83 598.98 537.65 600 538.5 C602.8 540.84 604.74 543.17 607 546 C607.99 546.83 608.98 547.65 610 548.5 C612.8 550.84 614.74 553.17 617 556 C617.99 556.83 618.98 557.65 620 558.5 C622.8 560.84 624.74 563.17 627 566 C627.99 566.83 628.98 567.65 630 568.5 C632.8 570.84 634.78 573.13 637 576 C637.89 576.87 638.77 577.73 639.69 578.62 C642 581 642 581 643 584 C643.99 584.33 644.98 584.66 646 585 C647.69 586.38 647.69 586.38 649 588 C649 588.99 649 589.98 649 591 C649.99 591.33 650.98 591.66 652 592 C652.33 593.65 652.66 595.3 653 597 C653.66 597 654.32 597 655 597 C656 599 657 601 658 603 C658.35 603.61 658.7 604.23 659.05 604.86 C661.81 609.88 662.74 614.29 663 620 C663.66 620 664.32 620 665 620 C665 633.86 665 647.72 665 662 C664.34 662 663.68 662 663 662 C662.97 662.56 662.95 663.11 662.92 663.69 C662.48 669.68 660.95 673.83 658 679 C656.92 681 655.83 683 654.75 685 C653.83 686.67 652.92 688.33 652 690 C651.34 690 650.68 690 650 690 C649.34 691.65 648.68 693.3 648 695 C647.34 695 646.68 695 646 695 C645.87 695.89 645.87 695.89 645.73 696.79 C644.8 699.59 643.54 700.54 641.25 702.38 C638.7 704.49 636.43 706.52 634.38 709.12 C631.84 712.19 629.05 714.47 626 717 C625.34 717.83 624.68 718.65 624 719.5 C621.64 722.45 618.9 724.58 616 727 C615.34 727.83 614.68 728.65 614 729.5 C611.64 732.45 608.9 734.58 606 737 C605.34 737.83 604.68 738.65 604 739.5 C601.64 742.45 598.9 744.58 596 747 C595.34 747.83 594.68 748.65 594 749.5 C591.64 752.45 588.9 754.58 586 757 C585.34 757.83 584.68 758.65 584 759.5 C581.64 762.45 578.9 764.58 576 767 C575.34 767.83 574.68 768.65 574 769.5 C571.64 772.45 568.9 774.58 566 777 C565.34 777.83 564.68 778.65 564 779.5 C561.63 782.46 558.93 784.61 556 787 C553.16 789.7 550.57 792.5 548.06 795.5 C546.14 797.79 544.21 799.76 541.88 801.62 C538.98 803.85 538.98 803.85 537 806.5 C534.64 809.45 531.9 811.58 529 814 C528.34 814.83 527.68 815.65 527 816.5 C524.64 819.45 521.9 821.58 519 824 C518.34 824.83 517.68 825.65 517 826.5 C514.64 829.45 511.9 831.58 509 834 C508.34 834.83 507.68 835.65 507 836.5 C504.64 839.45 501.9 841.58 499 844 C498.34 844.83 497.68 845.65 497 846.5 C494.64 849.45 491.9 851.58 489 854 C488.34 854.83 487.68 855.65 487 856.5 C484.64 859.45 481.9 861.58 479 864 C478.34 864.83 477.68 865.65 477 866.5 C474.64 869.45 471.9 871.58 469 874 C468.34 874.83 467.68 875.65 467 876.5 C464.64 879.45 461.9 881.58 459 884 C458.34 884.83 457.68 885.65 457 886.5 C454.64 889.45 451.9 891.58 449 894 C448.34 894.83 447.68 895.65 447 896.5 C444.64 899.45 441.9 901.58 439 904 C438.34 904.83 437.68 905.65 437 906.5 C434.63 909.46 431.93 911.61 429 914 C426.16 916.7 423.57 919.5 421.06 922.5 C419.14 924.79 417.21 926.76 414.88 928.62 C411.98 930.85 411.98 930.85 410 933.5 C407.64 936.45 404.9 938.58 402 941 C401.34 941.83 400.68 942.65 400 943.5 C397.64 946.45 394.9 948.58 392 951 C391.34 951.83 390.68 952.65 390 953.5 C387.64 956.45 384.9 958.58 382 961 C381.34 961.83 380.68 962.65 380 963.5 C377.64 966.45 374.9 968.58 372 971 C371.34 971.83 370.68 972.65 370 973.5 C367.64 976.45 364.9 978.58 362 981 C361.34 981.83 360.68 982.65 360 983.5 C357.64 986.45 354.9 988.58 352 991 C351.34 991.83 350.68 992.65 350 993.5 C347.64 996.45 344.9 998.58 342 1001 C341.34 1001.83 340.68 1002.65 340 1003.5 C337.64 1006.45 334.9 1008.58 332 1011 C331.34 1011.83 330.68 1012.65 330 1013.5 C327.64 1016.45 324.9 1018.58 322 1021 C321.34 1021.83 320.68 1022.65 320 1023.5 C317.64 1026.45 314.9 1028.58 312 1031 C311.34 1031.83 310.68 1032.65 310 1033.5 C307.63 1036.46 304.93 1038.61 302 1041 C299.16 1043.7 296.57 1046.5 294.06 1049.5 C292.14 1051.79 290.21 1053.76 287.88 1055.62 C284.98 1057.85 284.98 1057.85 283 1060.5 C280.64 1063.45 277.9 1065.58 275 1068 C274.34 1068.83 273.68 1069.65 273 1070.5 C270.64 1073.45 267.9 1075.58 265 1078 C264.34 1078.83 263.68 1079.65 263 1080.5 C260.64 1083.45 257.9 1085.58 255 1088 C254.34 1088.83 253.68 1089.65 253 1090.5 C250.64 1093.45 247.9 1095.58 245 1098 C244.34 1098.83 243.68 1099.65 243 1100.5 C240.64 1103.45 237.9 1105.58 235 1108 C234.34 1108.83 233.68 1109.65 233 1110.5 C230.64 1113.45 227.9 1115.58 225 1118 C224.34 1118.83 223.68 1119.65 223 1120.5 C220.64 1123.45 217.9 1125.58 215 1128 C214.34 1128.83 213.68 1129.65 213 1130.5 C210.64 1133.45 207.9 1135.58 205 1138 C204.34 1138.83 203.68 1139.65 203 1140.5 C200.64 1143.45 197.9 1145.58 195 1148 C194.34 1148.83 193.68 1149.65 193 1150.5 C190.64 1153.45 187.9 1155.58 185 1158 C184.34 1158.83 183.68 1159.65 183 1160.5 C180.63 1163.46 177.93 1165.61 175 1168 C172.16 1170.7 169.57 1173.5 167.06 1176.5 C165.14 1178.79 163.21 1180.76 160.88 1182.62 C157.98 1184.85 157.98 1184.85 156 1187.5 C153.64 1190.45 150.9 1192.58 148 1195 C147.34 1195.83 146.68 1196.65 146 1197.5 C143.64 1200.45 140.9 1202.58 138 1205 C137.34 1205.83 136.68 1206.65 136 1207.5 C133.64 1210.45 130.9 1212.58 128 1215 C127.34 1215.83 126.68 1216.65 126 1217.5 C123.64 1220.45 120.9 1222.58 118 1225 C117.34 1225.83 116.68 1226.65 116 1227.5 C113.64 1230.45 110.9 1232.58 108 1235 C107.34 1235.83 106.68 1236.65 106 1237.5 C103.64 1240.45 100.9 1242.58 98 1245 C97.34 1245.83 96.68 1246.65 96 1247.5 C93.64 1250.45 90.9 1252.58 88 1255 C87.36 1255.83 86.72 1256.65 86.06 1257.5 C83.47 1260.64 80.52 1262.96 77 1265 C76.34 1265 75.68 1265 75 1265 C75 1265.66 75 1266.32 75 1267 C72.32 1268.48 69.64 1269.95 66.95 1271.4 C65.22 1272.34 63.51 1273.28 61.8 1274.25 C56.93 1276.93 52.54 1277.74 47 1278 C47 1278.66 47 1279.32 47 1280 C33.14 1280 19.28 1280 5 1280 C5 1279.34 5 1278.68 5 1278 C4.44 1277.97 3.89 1277.95 3.31 1277.92 C-2.65 1277.48 -6.84 1275.92 -12 1273 C-13.15 1272.42 -14.31 1271.85 -15.5 1271.25 C-16.33 1270.84 -17.15 1270.42 -18 1270 C-18 1269.34 -18 1268.68 -18 1268 C-19.65 1267.67 -21.3 1267.34 -23 1267 C-23.33 1266.01 -23.66 1265.02 -24 1264 C-24.99 1264 -25.98 1264 -27 1264 C-28.23 1262.58 -29.44 1261.14 -30.59 1259.66 C-32.04 1257.95 -33.56 1256.64 -35.31 1255.25 C-36.2 1254.51 -37.09 1253.77 -38 1253 C-38 1252.34 -38 1251.68 -38 1251 C-38.99 1250.67 -39.98 1250.34 -41 1250 C-42.35 1248.35 -43.69 1246.68 -45 1245 C-45.99 1244.34 -46.98 1243.68 -48 1243 C-48 1242.34 -48 1241.68 -48 1241 C-48.99 1240.67 -49.98 1240.34 -51 1240 C-52.35 1238.35 -53.69 1236.68 -55 1235 C-55.99 1234.34 -56.98 1233.68 -58 1233 C-58 1232.34 -58 1231.68 -58 1231 C-58.99 1230.67 -59.98 1230.34 -61 1230 C-62.35 1228.35 -63.69 1226.68 -65 1225 C-65.99 1224.34 -66.98 1223.68 -68 1223 C-68 1222.34 -68 1221.68 -68 1221 C-68.99 1220.67 -69.98 1220.34 -71 1220 C-72.35 1218.35 -73.69 1216.68 -75 1215 C-75.99 1214.34 -76.98 1213.68 -78 1213 C-78 1212.34 -78 1211.68 -78 1211 C-78.99 1210.67 -79.98 1210.34 -81 1210 C-82.35 1208.35 -83.69 1206.68 -85 1205 C-85.99 1204.34 -86.98 1203.68 -88 1203 C-88 1202.34 -88 1201.68 -88 1201 C-88.99 1200.67 -89.98 1200.34 -91 1200 C-93.19 1198.06 -93.19 1198.06 -95 1196 C-95 1195.34 -95 1194.68 -95 1194 C-95.99 1193.67 -96.98 1193.34 -98 1193 C-98 1192.34 -98 1191.68 -98 1191 C-98.54 1190.77 -99.07 1190.55 -99.62 1190.31 C-105.27 1187.19 -108.93 1182.91 -113 1178 C-113.82 1177.34 -114.65 1176.68 -115.5 1176 C-118.45 1173.64 -120.58 1170.9 -123 1168 C-123.82 1167.34 -124.65 1166.68 -125.5 1166 C-128.45 1163.64 -130.58 1160.9 -133 1158 C-133.82 1157.34 -134.65 1156.68 -135.5 1156 C-138.45 1153.64 -140.58 1150.9 -143 1148 C-143.82 1147.34 -144.65 1146.68 -145.5 1146 C-148.45 1143.64 -150.58 1140.9 -153 1138 C-153.82 1137.34 -154.65 1136.68 -155.5 1136 C-158.45 1133.64 -160.58 1130.9 -163 1128 C-163.82 1127.34 -164.65 1126.68 -165.5 1126 C-168.45 1123.64 -170.58 1120.9 -173 1118 C-173.82 1117.34 -174.65 1116.68 -175.5 1116 C-178.45 1113.64 -180.58 1110.9 -183 1108 C-183.82 1107.34 -184.65 1106.68 -185.5 1106 C-188.45 1103.64 -190.58 1100.9 -193 1098 C-193.82 1097.34 -194.65 1096.68 -195.5 1096 C-198.45 1093.64 -200.58 1090.9 -203 1088 C-203.82 1087.34 -204.65 1086.68 -205.5 1086 C-208.45 1083.64 -210.58 1080.9 -213 1078 C-213.82 1077.34 -214.65 1076.68 -215.5 1076 C-218.45 1073.64 -220.58 1070.9 -223 1068 C-223.82 1067.34 -224.65 1066.68 -225.5 1066 C-228.45 1063.64 -230.58 1060.9 -233 1058 C-233.82 1057.34 -234.65 1056.68 -235.5 1056 C-238.45 1053.64 -240.58 1050.9 -243 1048 C-243.82 1047.34 -244.65 1046.68 -245.5 1046 C-248.45 1043.64 -250.58 1040.9 -253 1038 C-253.82 1037.34 -254.65 1036.68 -255.5 1036 C-258.45 1033.64 -260.58 1030.9 -263 1028 C-263.82 1027.34 -264.65 1026.68 -265.5 1026 C-268.45 1023.64 -270.58 1020.9 -273 1018 C-273.82 1017.34 -274.65 1016.68 -275.5 1016 C-278 1014 -278 1014 -280.44 1011.06 C-283.05 1007.94 -285.87 1005.6 -289 1003 C-290.33 1001.33 -291.67 999.67 -293 998 C-293.99 997.17 -294.98 996.35 -296 995.5 C-298.8 993.16 -300.74 990.83 -303 988 C-303.99 987.17 -304.98 986.35 -306 985.5 C-308.8 983.16 -310.74 980.83 -313 978 C-313.99 977.17 -314.98 976.35 -316 975.5 C-318.8 973.16 -320.74 970.83 -323 968 C-323.99 967.17 -324.98 966.35 -326 965.5 C-328.8 963.16 -330.74 960.83 -333 958 C-333.99 957.17 -334.98 956.35 -336 955.5 C-338.8 953.16 -340.74 950.83 -343 948 C-343.99 947.17 -344.98 946.35 -346 945.5 C-348.8 943.16 -350.74 940.83 -353 938 C-353.99 937.17 -354.98 936.35 -356 935.5 C-358.8 933.16 -360.74 930.83 -363 928 C-363.99 927.17 -364.98 926.35 -366 925.5 C-368.8 923.16 -370.74 920.83 -373 918 C-373.99 917.17 -374.98 916.35 -376 915.5 C-378.8 913.16 -380.74 910.83 -383 908 C-383.99 907.17 -384.98 906.35 -386 905.5 C-388.8 903.16 -390.74 900.83 -393 898 C-393.99 897.17 -394.98 896.35 -396 895.5 C-398.8 893.16 -400.74 890.83 -403 888 C-403.99 887.17 -404.98 886.35 -406 885.5 C-408.8 883.16 -410.74 880.83 -413 878 C-413.99 877.17 -414.98 876.35 -416 875.5 C-418.8 873.16 -420.74 870.83 -423 868 C-423.99 867.17 -424.98 866.35 -426 865.5 C-428.8 863.16 -430.74 860.83 -433 858 C-433.99 857.17 -434.98 856.35 -436 855.5 C-438.8 853.16 -440.74 850.83 -443 848 C-443.99 847.17 -444.98 846.35 -446 845.5 C-448.8 843.16 -450.74 840.83 -453 838 C-453.99 837.17 -454.98 836.35 -456 835.5 C-458.8 833.16 -460.74 830.83 -463 828 C-463.99 827.17 -464.98 826.35 -466 825.5 C-468.8 823.16 -470.74 820.83 -473 818 C-473.97 817.2 -474.94 816.39 -475.94 815.56 C-479.06 812.95 -481.4 810.13 -484 807 C-484.82 806.34 -485.65 805.68 -486.5 805 C-489.45 802.64 -491.58 799.9 -494 797 C-494.82 796.34 -495.65 795.68 -496.5 795 C-499.45 792.64 -501.58 789.9 -504 787 C-504.82 786.34 -505.65 785.68 -506.5 785 C-509.45 782.64 -511.58 779.9 -514 777 C-514.83 776.34 -515.65 775.68 -516.5 775 C-519.45 772.64 -521.58 769.9 -524 767 C-524.83 766.34 -525.65 765.68 -526.5 765 C-529.45 762.64 -531.58 759.9 -534 757 C-534.83 756.34 -535.65 755.68 -536.5 755 C-539.45 752.64 -541.58 749.9 -544 747 C-544.83 746.34 -545.65 745.68 -546.5 745 C-549.45 742.64 -551.58 739.9 -554 737 C-554.83 736.34 -555.65 735.68 -556.5 735 C-559.45 732.64 -561.58 729.9 -564 727 C-564.83 726.34 -565.65 725.68 -566.5 725 C-569.45 722.64 -571.58 719.9 -574 717 C-574.83 716.34 -575.65 715.68 -576.5 715 C-579.45 712.64 -581.58 709.9 -584 707 C-584.78 706.38 -585.57 705.76 -586.38 705.12 C-590.02 702.17 -593.18 698.76 -596 695 C-596 694.34 -596 693.68 -596 693 C-596.99 692.67 -597.98 692.34 -599 692 C-606.14 683.75 -612.57 673.06 -613 662 C-613.66 662 -614.32 662 -615 662 C-615 646.49 -615 630.98 -615 615 C-614.34 615 -613.68 615 -613 615 C-612.84 614.15 -612.84 614.15 -612.67 613.28 C-610.41 602.28 -605.26 592.61 -598 584 C-597.34 584 -596.68 584 -596 584 C-595.73 583.4 -595.46 582.8 -595.19 582.19 C-594 580 -592.9 578.59 -591 577 C-590.34 577 -589.68 577 -589 577 C-588.67 576.01 -588.34 575.02 -588 574 C-587.34 574 -586.68 574 -586 574 C-585.73 573.4 -585.46 572.8 -585.19 572.19 C-584 570 -582.9 568.59 -581 567 C-580.34 567 -579.68 567 -579 567 C-578.67 566.01 -578.34 565.02 -578 564 C-577.34 564 -576.68 564 -576 564 C-575.6 563.1 -575.6 563.1 -575.19 562.19 C-574 560 -572.9 558.59 -571 557 C-570.34 557 -569.68 557 -569 557 C-568.67 556.01 -568.34 555.02 -568 554 C-567.34 554 -566.68 554 -566 554 C-565.6 553.1 -565.6 553.1 -565.19 552.19 C-564 550 -562.9 548.59 -561 547 C-560.34 547 -559.68 547 -559 547 C-558.67 546.01 -558.34 545.02 -558 544 C-557.34 544 -556.68 544 -556 544 C-555.6 543.1 -555.6 543.1 -555.19 542.19 C-554 540 -552.9 538.59 -551 537 C-550.34 537 -549.68 537 -549 537 C-548.67 536.01 -548.34 535.02 -548 534 C-547.34 534 -546.68 534 -546 534 C-545.6 533.1 -545.6 533.1 -545.19 532.19 C-544 530 -542.9 528.59 -541 527 C-540.34 527 -539.68 527 -539 527 C-538.67 526.01 -538.34 525.02 -538 524 C-537.34 524 -536.68 524 -536 524 C-535.34 522.68 -534.68 521.36 -534 520 C-533.34 520 -532.68 520 -532 520 C-531.67 519.01 -531.34 518.02 -531 517 C-530.34 517 -529.68 517 -529 517 C-528.67 516.01 -528.34 515.02 -528 514 C-527.34 514 -526.68 514 -526 514 C-525.34 512.68 -524.68 511.36 -524 510 C-523.34 510 -522.68 510 -522 510 C-521.67 509.01 -521.34 508.02 -521 507 C-520.34 507 -519.68 507 -519 507 C-518.67 506.01 -518.34 505.02 -518 504 C-517.34 504 -516.68 504 -516 504 C-515.34 502.68 -514.68 501.36 -514 500 C-513.34 500 -512.68 500 -512 500 C-511.67 499.01 -511.34 498.02 -511 497 C-510.34 497 -509.68 497 -509 497 C-508.67 496.01 -508.34 495.02 -508 494 C-507.34 494 -506.68 494 -506 494 C-505.34 492.68 -504.68 491.36 -504 490 C-503.34 490 -502.68 490 -502 490 C-501.67 489.01 -501.34 488.02 -501 487 C-500.34 487 -499.68 487 -499 487 C-498.67 486.01 -498.34 485.02 -498 484 C-497.34 484 -496.68 484 -496 484 C-495.34 482.68 -494.68 481.36 -494 480 C-493.34 480 -492.68 480 -492 480 C-491.67 479.01 -491.34 478.02 -491 477 C-490.34 477 -489.68 477 -489 477 C-488.67 476.01 -488.34 475.02 -488 474 C-487.34 474 -486.68 474 -486 474 C-485.34 472.68 -484.68 471.36 -484 470 C-483.34 470 -482.68 470 -482 470 C-481.67 469.01 -481.34 468.02 -481 467 C-480.34 467 -479.68 467 -479 467 C-478.67 466.01 -478.34 465.02 -478 464 C-477.34 464 -476.68 464 -476 464 C-475.34 462.68 -474.68 461.36 -474 460 C-473.34 460 -472.68 460 -472 460 C-471.67 459.01 -471.34 458.02 -471 457 C-470.34 457 -469.68 457 -469 457 C-468.73 456.4 -468.46 455.8 -468.19 455.19 C-467 453 -465.9 451.59 -464 450 C-463.34 450 -462.68 450 -462 450 C-461.67 449.01 -461.34 448.02 -461 447 C-460.34 447 -459.68 447 -459 447 C-458.73 446.4 -458.46 445.8 -458.19 445.19 C-457 443 -455.9 441.59 -454 440 C-453.34 440 -452.68 440 -452 440 C-451.67 439.01 -451.34 438.02 -451 437 C-450.34 437 -449.68 437 -449 437 C-448.73 436.4 -448.46 435.8 -448.19 435.19 C-447 433 -445.9 431.59 -444 430 C-443.34 430 -442.68 430 -442 430 C-441.67 429.01 -441.34 428.02 -441 427 C-440.34 427 -439.68 427 -439 427 C-438.73 426.4 -438.46 425.8 -438.19 425.19 C-437 423 -435.9 421.59 -434 420 C-433.34 420 -432.68 420 -432 420 C-431.67 419.01 -431.34 418.02 -431 417 C-430.34 417 -429.68 417 -429 417 C-428.73 416.4 -428.46 415.8 -428.19 415.19 C-427 413 -425.9 411.59 -424 410 C-423.34 410 -422.68 410 -422 410 C-421.67 409.01 -421.34 408.02 -421 407 C-420.34 407 -419.68 407 -419 407 C-418.73 406.4 -418.46 405.8 -418.19 405.19 C-417 403 -415.9 401.59 -414 400 C-413.34 400 -412.68 400 -412 400 C-411.67 399.01 -411.34 398.02 -411 397 C-410.34 397 -409.68 397 -409 397 C-408.34 395.68 -407.68 394.36 -407 393 C-406.34 393 -405.68 393 -405 393 C-404.67 392.01 -404.34 391.02 -404 390 C-403.34 390 -402.68 390 -402 390 C-401.67 389.01 -401.34 388.02 -401 387 C-400.34 387 -399.68 387 -399 387 C-398.34 385.68 -397.68 384.36 -397 383 C-396.34 383 -395.68 383 -395 383 C-394.67 382.01 -394.34 381.02 -394 380 C-393.34 380 -392.68 380 -392 380 C-391.67 379.01 -391.34 378.02 -391 377 C-390.34 377 -389.68 377 -389 377 C-388.34 375.68 -387.68 374.36 -387 373 C-386.34 373 -385.68 373 -385 373 C-384.67 372.01 -384.34 371.02 -384 370 C-383.34 370 -382.68 370 -382 370 C-381.67 369.01 -381.34 368.02 -381 367 C-380.34 367 -379.68 367 -379 367 C-378.34 365.68 -377.68 364.36 -377 363 C-376.34 363 -375.68 363 -375 363 C-374.67 362.01 -374.34 361.02 -374 360 C-373.34 360 -372.68 360 -372 360 C-371.67 359.01 -371.34 358.02 -371 357 C-370.34 357 -369.68 357 -369 357 C-368.34 355.68 -367.68 354.36 -367 353 C-366.34 353 -365.68 353 -365 353 C-364.67 352.01 -364.34 351.02 -364 350 C-363.34 350 -362.68 350 -362 350 C-361.67 349.01 -361.34 348.02 -361 347 C-360.34 347 -359.68 347 -359 347 C-358.34 345.68 -357.68 344.36 -357 343 C-356.34 343 -355.68 343 -355 343 C-354.67 342.01 -354.34 341.02 -354 340 C-353.34 340 -352.68 340 -352 340 C-351.67 339.01 -351.34 338.02 -351 337 C-350.34 337 -349.68 337 -349 337 C-348.34 335.68 -347.68 334.36 -347 333 C-346.34 333 -345.68 333 -345 333 C-344.67 332.01 -344.34 331.02 -344 330 C-343.34 330 -342.68 330 -342 330 C-341.73 329.4 -341.46 328.8 -341.19 328.19 C-340 326 -338.9 324.59 -337 323 C-336.34 323 -335.68 323 -335 323 C-334.67 322.01 -334.34 321.02 -334 320 C-333.34 320 -332.68 320 -332 320 C-331.73 319.4 -331.46 318.8 -331.19 318.19 C-330 316 -328.9 314.59 -327 313 C-326.34 313 -325.68 313 -325 313 C-324.67 312.01 -324.34 311.02 -324 310 C-323.34 310 -322.68 310 -322 310 C-321.73 309.4 -321.46 308.8 -321.19 308.19 C-320 306 -318.9 304.59 -317 303 C-316.34 303 -315.68 303 -315 303 C-314.67 302.01 -314.34 301.02 -314 300 C-313.34 300 -312.68 300 -312 300 C-311.73 299.4 -311.46 298.8 -311.19 298.19 C-310 296 -308.9 294.59 -307 293 C-306.34 293 -305.68 293 -305 293 C-304.67 292.01 -304.34 291.02 -304 290 C-303.34 290 -302.68 290 -302 290 C-301.73 289.4 -301.46 288.8 -301.19 288.19 C-300 286 -298.9 284.59 -297 283 C-296.34 283 -295.68 283 -295 283 C-294.67 282.01 -294.34 281.02 -294 280 C-293.34 280 -292.68 280 -292 280 C-291.73 279.4 -291.46 278.8 -291.19 278.19 C-290 276 -288.9 274.59 -287 273 C-286.34 273 -285.68 273 -285 273 C-284.67 272.01 -284.34 271.02 -284 270 C-283.34 270 -282.68 270 -282 270 C-281.34 268.68 -280.68 267.36 -280 266 C-279.34 266 -278.68 266 -278 266 C-277.67 265.01 -277.34 264.02 -277 263 C-276.34 263 -275.68 263 -275 263 C-274.67 262.01 -274.34 261.02 -274 260 C-273.34 260 -272.68 260 -272 260 C-271.34 258.68 -270.68 257.36 -270 256 C-269.34 256 -268.68 256 -268 256 C-267.67 255.01 -267.34 254.02 -267 253 C-266.34 253 -265.68 253 -265 253 C-264.67 252.01 -264.34 251.02 -264 250 C-263.34 250 -262.68 250 -262 250 C-261.34 248.68 -260.68 247.36 -260 246 C-259.34 246 -258.68 246 -258 246 C-257.67 245.01 -257.34 244.02 -257 243 C-256.34 243 -255.68 243 -255 243 C-254.67 242.01 -254.34 241.02 -254 240 C-253.34 240 -252.68 240 -252 240 C-251.34 238.68 -250.68 237.36 -250 236 C-249.34 236 -248.68 236 -248 236 C-247.67 235.01 -247.34 234.02 -247 233 C-246.34 233 -245.68 233 -245 233 C-244.67 232.01 -244.34 231.02 -244 230 C-243.34 230 -242.68 230 -242 230 C-241.34 228.68 -240.68 227.36 -240 226 C-239.34 226 -238.68 226 -238 226 C-237.67 225.01 -237.34 224.02 -237 223 C-236.34 223 -235.68 223 -235 223 C-234.67 222.01 -234.34 221.02 -234 220 C-233.34 220 -232.68 220 -232 220 C-231.34 218.68 -230.68 217.36 -230 216 C-229.34 216 -228.68 216 -228 216 C-227.67 215.01 -227.34 214.02 -227 213 C-226.34 213 -225.68 213 -225 213 C-224.67 212.01 -224.34 211.02 -224 210 C-223.34 210 -222.68 210 -222 210 C-221.34 208.68 -220.68 207.36 -220 206 C-219.34 206 -218.68 206 -218 206 C-217.67 205.01 -217.34 204.02 -217 203 C-216.34 203 -215.68 203 -215 203 C-214.73 202.4 -214.46 201.8 -214.19 201.19 C-212.94 198.89 -212.17 197.47 -210 196 C-206.81 196.31 -206.81 196.31 -204 197 C-203.67 197.99 -203.34 198.98 -203 200 C-202.01 200.33 -201.02 200.66 -200 201 C-200 201.66 -200 202.32 -200 203 C-199.01 203.33 -198.02 203.66 -197 204 C-194.81 205.94 -194.81 205.94 -193 208 C-193 208.66 -193 209.32 -193 210 C-192.01 210.33 -191.02 210.66 -190 211 C-190 211.66 -190 212.32 -190 213 C-189.01 213.33 -188.02 213.66 -187 214 C-184.81 215.94 -184.81 215.94 -183 218 C-183 218.66 -183 219.32 -183 220 C-182.01 220.33 -181.02 220.66 -180 221 C-180 221.66 -180 222.32 -180 223 C-179.01 223.33 -178.02 223.66 -177 224 C-174.81 225.94 -174.81 225.94 -173 228 C-173 228.66 -173 229.32 -173 230 C-172.01 230.33 -171.02 230.66 -170 231 C-170 231.66 -170 232.32 -170 233 C-169.01 233.33 -168.02 233.66 -167 234 C-164.81 235.94 -164.81 235.94 -163 238 C-163 238.66 -163 239.32 -163 240 C-162.01 240.33 -161.02 240.66 -160 241 C-160 241.66 -160 242.32 -160 243 C-159.01 243.33 -158.02 243.66 -157 244 C-154.81 245.94 -154.81 245.94 -153 248 C-153 248.66 -153 249.32 -153 250 C-152.01 250.33 -151.02 250.66 -150 251 C-150 251.66 -150 252.32 -150 253 C-149.01 253.33 -148.02 253.66 -147 254 C-144.81 255.94 -144.81 255.94 -143 258 C-143 258.66 -143 259.32 -143 260 C-142.01 260.33 -141.02 260.66 -140 261 C-140 261.66 -140 262.32 -140 263 C-139.01 263.33 -138.02 263.66 -137 264 C-134.81 265.94 -134.81 265.94 -133 268 C-133 268.66 -133 269.32 -133 270 C-132.01 270.33 -131.02 270.66 -130 271 C-130 271.66 -130 272.32 -130 273 C-128.68 273.66 -127.36 274.32 -126 275 C-126 275.66 -126 276.32 -126 277 C-125.01 277.33 -124.02 277.66 -123 278 C-123 278.66 -123 279.32 -123 280 C-122.01 280.33 -121.02 280.66 -120 281 C-117.81 282.94 -117.81 282.94 -116 285 C-116 285.66 -116 286.32 -116 287 C-115.01 287.33 -114.02 287.66 -113 288 C-113 288.66 -113 289.32 -113 290 C-112.01 290.33 -111.02 290.66 -110 291 C-107.81 292.94 -107.81 292.94 -106 295 C-106 295.66 -106 296.32 -106 297 C-105.01 297.33 -104.02 297.66 -103 298 C-103 298.66 -103 299.32 -103 300 C-102.01 300.33 -101.02 300.66 -100 301 C-97.81 302.94 -97.81 302.94 -96 305 C-96 305.66 -96 306.32 -96 307 C-95.01 307.33 -94.02 307.66 -93 308 C-93 308.66 -93 309.32 -93 310 C-92.01 310.33 -91.02 310.66 -90 311 C-87.81 312.94 -87.81 312.94 -86 315 C-86 315.66 -86 316.32 -86 317 C-85.01 317.33 -84.02 317.66 -83 318 C-83 318.66 -83 319.32 -83 320 C-82.01 320.33 -81.02 320.66 -80 321 C-77.81 322.94 -77.81 322.94 -76 325 C-76 325.66 -76 326.32 -76 327 C-75.01 327.33 -74.02 327.66 -73 328 C-73 328.66 -73 329.32 -73 330 C-72.01 330.33 -71.02 330.66 -70 331 C-67.81 332.94 -67.81 332.94 -66 335 C-66 335.66 -66 336.32 -66 337 C-65.01 337.33 -64.02 337.66 -63 338 C-61.38 340.95 -60.78 343 -61.51 346.33 C-62.5 349.32 -63.59 352.18 -65 355 C-65.37 357.24 -65.7 359.5 -66 361.75 C-66.96 368.8 -66.96 368.8 -67.56 371.83 C-68.63 379.6 -67.94 387.22 -66.75 394.94 C-66.55 396.25 -66.55 396.25 -66.35 397.58 C-65.29 404.05 -63.75 410.02 -61 416 C-60.54 417.03 -60.54 417.03 -60.07 418.08 C-56.93 424.67 -53.04 430.93 -49 437 C-49 437.99 -49 438.98 -49 440 C-48.01 440.33 -47.02 440.66 -46 441 C-44.65 442.65 -43.31 444.32 -42 446 C-41.01 446.66 -40.02 447.32 -39 448 C-39 448.66 -39 449.32 -39 450 C-38.01 450.33 -37.02 450.66 -36 451 C-34.33 452.67 -32.67 454.33 -31 456 C-28.83 457.3 -28.83 457.3 -27 458 C-27 458.66 -27 459.32 -27 460 C-26.3 460.27 -25.6 460.54 -24.88 460.81 C-21.84 462.07 -18.93 463.5 -16 465 C-16 465.66 -16 466.32 -16 467 C-15.24 466.9 -14.47 466.79 -13.69 466.69 C-12.8 466.79 -11.91 466.89 -11 467 C-8.16 470.7 -7.62 473.47 -7.62 478.07 C-7.61 479.3 -7.61 480.52 -7.6 481.79 C-7.61 483.15 -7.61 484.5 -7.62 485.86 C-7.62 487.31 -7.61 488.75 -7.6 490.2 C-7.59 494.17 -7.6 498.14 -7.61 502.11 C-7.61 506.39 -7.6 510.68 -7.6 514.96 C-7.58 523.35 -7.59 531.74 -7.59 540.13 C-7.6 546.95 -7.6 553.77 -7.6 560.58 C-7.6 561.55 -7.6 562.52 -7.6 563.52 C-7.6 565.49 -7.6 567.46 -7.59 569.43 C-7.59 587.9 -7.6 606.38 -7.61 624.85 C-7.63 640.71 -7.62 656.58 -7.61 672.44 C-7.59 690.85 -7.59 709.26 -7.6 727.67 C-7.6 729.63 -7.6 731.59 -7.6 733.55 C-7.6 734.52 -7.6 735.48 -7.6 736.48 C-7.6 743.29 -7.6 750.1 -7.59 756.91 C-7.58 765.21 -7.58 773.51 -7.6 781.8 C-7.61 786.04 -7.61 790.27 -7.6 794.51 C-7.59 798.38 -7.6 802.26 -7.61 806.13 C-7.62 807.54 -7.62 808.94 -7.61 810.34 C-7.6 812.25 -7.61 814.15 -7.62 816.06 C-7.62 817.11 -7.62 818.17 -7.62 819.26 C-8.06 822.4 -8.77 823.77 -11 826 C-14.19 826.75 -14.19 826.75 -17 827 C-17 827.66 -17 828.32 -17 829 C-17.87 829.41 -18.74 829.82 -19.64 830.24 C-22.96 831.98 -25.77 833.93 -28.75 836.19 C-33.78 840 -33.78 840 -36 840 C-36.33 840.99 -36.66 841.98 -37 843 C-38.65 844.35 -40.32 845.69 -42 847 C-42.66 847.99 -43.32 848.98 -44 850 C-44.66 850 -45.32 850 -46 850 C-46.39 850.85 -46.39 850.85 -46.8 851.72 C-48.09 854.16 -49.6 856.23 -51.25 858.44 C-57.22 866.87 -60.9 876.21 -64 886 C-64.33 886.33 -64.66 886.66 -65 887 C-65.68 890.28 -66.09 893.62 -66.56 896.94 C-66.77 898.31 -66.77 898.31 -66.98 899.71 C-68.09 907.43 -68.94 915.33 -67.06 923 C-66.09 927.29 -65.63 931.48 -65.34 935.87 C-65.1 938.29 -65.1 938.29 -63 941 C-62.48 942.4 -62 943.82 -61.56 945.25 C-59.39 951.96 -56.54 958 -52.99 964.08 C-52 966 -52 966 -52 968 C-51.34 968 -50.68 968 -50 968 C-49.85 968.96 -49.85 968.96 -49.69 969.94 C-49.46 970.62 -49.23 971.3 -49 972 C-48.01 972.33 -47.02 972.66 -46 973 C-44.18 974.78 -44.18 974.78 -42.31 976.94 C-41.69 977.65 -41.07 978.36 -40.43 979.09 C-39 981 -39 981 -39 983 C-38.14 983.39 -38.14 983.39 -37.27 983.79 C-34.82 985.1 -32.84 986.62 -30.69 988.38 C-26.94 991.34 -23.21 993.76 -19 996 C-19 996.66 -19 997.32 -19 998 C-18.07 998.12 -17.14 998.25 -16.19 998.38 C-13 999 -13 999 -10 1001 C-8 1001.68 -6 1002.35 -4 1003 C-3.67 1003.33 -3.34 1003.66 -3 1004 C-1.17 1004.37 0.66 1004.7 2.5 1005 C7.89 1005.89 7.89 1005.89 9 1007 C11.68 1007.11 14.33 1007.16 17.02 1007.17 C17.82 1007.17 18.63 1007.17 19.46 1007.18 C21.18 1007.18 22.89 1007.19 24.61 1007.19 C27.23 1007.19 29.84 1007.21 32.46 1007.22 C34.12 1007.23 35.79 1007.23 37.45 1007.23 C38.23 1007.24 39.01 1007.24 39.82 1007.25 C44.02 1007.23 47.21 1006.82 51 1005 C53.17 1004.66 53.17 1004.66 55.19 1004.5 C59.01 1004.39 59.01 1004.39 61 1002 C62.99 1001.31 64.99 1000.64 67 1000 C67.72 999.63 68.44 999.26 69.19 998.88 C71 998 71 998 74 998 C74 997.34 74 996.68 74 996 C75.27 995.41 75.27 995.41 76.56 994.81 C79.2 993.42 81.38 992.06 83.75 990.31 C87 988 87 988 89 988 C89.33 987.01 89.66 986.02 90 985 C91.65 983.65 93.32 982.31 95 981 C95.66 980.01 96.32 979.02 97 978 C97.66 978 98.32 978 99 978 C99.33 977.01 99.66 976.02 100 975 C100.66 975 101.32 975 102 975 C102.33 973.68 102.66 972.36 103 971 C103.66 971 104.32 971 105 971 C105.23 970.34 105.45 969.68 105.69 969 C107.41 965.07 109.68 961.6 112 958 C116.03 951.64 118.23 945.81 119.47 938.43 C120 936 120 936 121.01 933.86 C122.29 930.14 122.31 926.62 122.3 922.73 C122.31 921.55 122.31 921.55 122.31 920.33 C122.32 918.66 122.32 916.98 122.32 915.31 C122.31 912.77 122.34 910.24 122.36 907.7 C122.39 899.63 122.39 892.47 119 885 C118.66 883.95 118.32 882.9 117.96 881.82 C116.93 878.79 115.78 875.84 114.56 872.88 C114.15 871.86 113.74 870.85 113.32 869.8 C112.12 867 112.12 867 110.34 864.82 C109 863 109 863 109 860 C108.01 859.67 107.02 859.34 106 859 C104.95 857.36 103.96 855.69 103 854 C102.28 853.11 101.56 852.23 100.81 851.31 C99 849 99 849 99 847 C98.4 846.73 97.8 846.46 97.19 846.19 C95 845 93.59 843.9 92 842 C92 841.34 92 840.68 92 840 C91.44 839.91 90.88 839.83 90.3 839.74 C87.31 838.78 85.52 837.16 83.12 835.12 C79.55 832.17 76.22 829.96 72 828 C70.36 826.79 70.36 826.79 69 825 C68.62 822.41 68.62 822.41 68.62 819.24 C68.61 818.03 68.61 816.82 68.6 815.57 C68.61 814.22 68.61 812.87 68.62 811.52 C68.62 810.1 68.61 808.67 68.6 807.24 C68.59 803.31 68.6 799.38 68.61 795.44 C68.61 791.21 68.6 786.97 68.6 782.73 C68.58 774.43 68.59 766.12 68.59 757.82 C68.6 751.07 68.6 744.32 68.6 737.58 C68.6 736.62 68.6 735.66 68.6 734.67 C68.6 732.72 68.6 730.78 68.59 728.83 C68.59 710.55 68.6 692.26 68.61 673.98 C68.63 658.29 68.62 642.59 68.61 626.89 C68.59 608.67 68.59 590.46 68.6 572.25 C68.6 570.3 68.6 568.36 68.6 566.42 C68.6 565.47 68.6 564.51 68.6 563.53 C68.6 556.79 68.6 550.05 68.59 543.3 C68.58 535.09 68.58 526.88 68.6 518.67 C68.61 514.47 68.61 510.28 68.6 506.09 C68.59 502.25 68.6 498.42 68.61 494.59 C68.62 493.2 68.62 491.8 68.61 490.41 C68.6 488.53 68.61 486.65 68.62 484.76 C68.62 483.72 68.62 482.67 68.62 481.59 C69.05 478.66 69.7 477.78 72 476 C76.32 478.72 79.86 481.6 83.5 485.22 C84.02 485.73 84.54 486.24 85.07 486.77 C86.8 488.48 88.51 490.19 90.23 491.91 C91.47 493.14 92.71 494.37 93.95 495.6 C97.31 498.94 100.67 502.28 104.02 505.62 C106.11 507.71 108.21 509.79 110.31 511.88 C116.87 518.42 123.42 524.95 129.97 531.5 C137.53 539.05 145.1 546.58 152.69 554.11 C158.55 559.93 164.41 565.76 170.25 571.61 C173.74 575.09 177.24 578.58 180.74 582.05 C184.04 585.31 187.32 588.59 190.59 591.87 C191.79 593.08 193 594.28 194.21 595.47 C195.87 597.1 197.5 598.75 199.14 600.4 C200.06 601.32 200.98 602.24 201.93 603.18 C204.41 606.56 204.83 608.85 205 613 C204.67 613.99 204.34 614.98 204 616 C203.34 616 202.68 616 202 616 C201.95 616.74 201.9 617.47 201.85 618.23 C201.78 619.21 201.7 620.18 201.62 621.19 C201.52 622.63 201.52 622.63 201.41 624.11 C201 627 201 627 199.99 629.26 C198.8 632.55 198.74 635.2 198.73 638.69 C198.73 639.97 198.73 641.24 198.73 642.55 C198.73 643.21 198.73 643.87 198.74 644.55 C198.75 646.56 198.74 648.57 198.73 650.58 C198.73 651.86 198.73 653.13 198.73 654.44 C198.74 655.6 198.74 656.77 198.74 657.96 C198.99 660.91 199.54 662.48 201 665 C201.31 667.15 201.31 667.15 201.44 669.38 C201.8 673.51 203.07 676.31 205 680 C205.19 682.87 205.19 682.87 205 685 C205.66 685 206.32 685 207 685 C208.89 689.29 210.58 693.53 212 698 C212.66 698 213.32 698 214 698 C215.33 699.79 215.33 699.79 216.81 702.19 C218.65 705.06 220.4 707.59 222.88 709.94 C223.93 710.96 223.93 710.96 225 712 C225 712.66 225 713.32 225 714 C225.99 714.33 226.98 714.66 228 715 C228.52 715.7 229.03 716.4 229.56 717.12 C235.27 723.85 243.84 728.82 252 732 C253.59 732.82 255.17 733.65 256.75 734.5 C260.89 736.61 264.72 737.84 269.29 738.64 C271 739 271 739 272 740 C283.79 741.96 295.93 742.41 307.81 741.25 C308.69 741.16 309.58 741.08 310.49 740.99 C314.47 740.53 316.58 740.28 320 738 C321.92 737.54 323.84 737.07 325.77 736.62 C334.6 734.18 342.45 729.04 350 724 C350.99 724 351.98 724 353 724 C353.33 723.01 353.66 722.02 354 721 C355.65 719.65 357.32 718.31 359 717 C359.66 716.01 360.32 715.02 361 714 C361.66 714 362.32 714 363 714 C363.33 713.01 363.66 712.02 364 711 C365.11 709.92 365.11 709.92 366.25 708.81 C369.08 705.92 370.9 703.07 372.89 699.57 C373.25 699.05 373.62 698.54 374 698 C374.66 698 375.32 698 376 698 C376.25 697.15 376.5 696.31 376.75 695.44 C377.87 692.37 379.27 689.84 380.92 687.04 C384.58 680.13 386.44 672.8 387.61 665.12 C388 663 388 663 389 662 C389.22 657.66 389.19 653.3 389.19 648.95 C389.19 646.77 389.21 644.59 389.22 642.41 C389.23 641.02 389.23 639.63 389.23 638.23 C389.24 636.34 389.24 636.34 389.24 634.4 C389.01 631.12 388.37 628.96 387 626 C386.67 624.42 386.38 622.84 386.12 621.25 C384.92 614.89 382.29 609.54 379.38 603.81 C377.97 600.93 376.95 598.06 376 595 C375.34 595 374.68 595 374 595 C370 589.71 370 589.71 370 586 C369.01 585.67 368.02 585.34 367 585 C365.46 583.4 365.46 583.4 363.81 581.38 C359.28 576.04 354.44 570.94 348 568 C348 567.34 348 566.68 348 566 C347.42 565.88 346.84 565.77 346.24 565.65 C343.85 564.96 342.24 564.01 340.19 562.62 C334.43 558.94 328.81 556.78 322.11 555.53 C320 555 320 555 318.05 553.98 C307.27 548.82 280.7 550.08 269.61 553.8 C268.91 554.1 268.22 554.39 267.5 554.69 C264 556 264 556 261.38 555.5 C256.78 552.6 252.63 549.04 249 545 C249 544.34 249 543.68 249 543 C248.01 542.67 247.02 542.34 246 542 C244.65 540.35 243.31 538.68 242 537 C241.01 536.34 240.02 535.68 239 535 C239 534.34 239 533.68 239 533 C238.01 532.67 237.02 532.34 236 532 C234.66 530.34 233.33 528.67 232 527 C231.01 526.17 230.02 525.35 229 524.5 C226.2 522.16 224.26 519.83 222 517 C221.01 516.17 220.02 515.35 219 514.5 C216.2 512.16 214.26 509.83 212 507 C211.01 506.18 210.02 505.35 209 504.5 C206.2 502.16 204.26 499.83 202 497 C201.01 496.18 200.02 495.35 199 494.5 C196.2 492.16 194.26 489.83 192 487 C191.01 486.18 190.02 485.35 189 484.5 C186.2 482.16 184.26 479.83 182 477 C181.01 476.18 180.02 475.35 179 474.5 C176.2 472.16 174.26 469.83 172 467 C171.01 466.18 170.02 465.35 169 464.5 C166.2 462.16 164.26 459.83 162 457 C161.01 456.18 160.02 455.35 159 454.5 C156.2 452.16 154.26 449.83 152 447 C151.01 446.18 150.02 445.35 149 444.5 C146.2 442.16 144.26 439.83 142 437 C140.02 435.31 138.02 433.64 136 432 C133.63 429.81 133.63 429.81 132 428 C132 427.34 132 426.68 132 426 C131.01 425.67 130.02 425.34 129 425 C127.63 423.36 126.31 421.69 125 420 C123.35 418.31 121.69 416.64 120 415 C119 414 119 414 118.75 411.06 C118.78 407.99 119.41 405.7 120.49 402.84 C122.62 395.95 122.45 388.98 122.39 381.84 C122.38 379.5 122.39 377.17 122.41 374.83 C122.42 366.8 121.99 359.56 119 352 C118.62 350.88 118.25 349.76 117.86 348.6 C115.34 341.83 112.32 335.72 108.55 329.56 C107 327 107 327 105.89 324.76 C105.06 322.89 105.06 322.89 103.38 321.38 C102.92 320.92 102.47 320.47 102 320 C102 319.34 102 318.68 102 318 C101.34 318 100.68 318 100 318 C98.41 316.36 98.41 316.36 96.62 314.19 C94.76 311.94 93.13 310.1 90.77 308.36 C90.19 307.91 89.6 307.46 89 307 C89 306.34 89 305.68 89 305 C88.01 305 87.02 305 86 305 C85.67 304.34 85.34 303.68 85 303 C83.35 301.97 81.68 300.97 80 300 C79.01 299.32 78.02 298.64 77 297.94 C74.31 296.2 71.97 295.15 69 294 C68.08 293.6 67.15 293.2 66.2 292.78 C60.15 290.15 54.47 288.27 48 287 C47.67 286.67 47.34 286.34 47 286 C43.47 285.61 39.92 285.52 36.38 285.38 C34.81 285.31 34.81 285.31 33.22 285.24 C19.74 284.15 19.74 284.15 7 287.04 C4.2 288.39 1.84 288.19 -1.25 288.12 C-2.33 288.11 -3.41 288.09 -4.52 288.07 C-5.75 288.04 -5.75 288.04 -7 288 C-7.33 287.01 -7.66 286.02 -8 285 C-8.99 284.67 -9.98 284.34 -11 284 C-11 283.34 -11 282.68 -11 282 C-11.99 281.67 -12.98 281.34 -14 281 C-16.19 279.06 -16.19 279.06 -18 277 C-18 276.34 -18 275.68 -18 275 C-18.99 274.67 -19.98 274.34 -21 274 C-21 273.34 -21 272.68 -21 272 C-21.99 271.67 -22.98 271.34 -24 271 C-26.19 269.06 -26.19 269.06 -28 267 C-28 266.34 -28 265.68 -28 265 C-28.99 264.67 -29.98 264.34 -31 264 C-31 263.34 -31 262.68 -31 262 C-31.99 261.67 -32.98 261.34 -34 261 C-36.19 259.06 -36.19 259.06 -38 257 C-38 256.34 -38 255.68 -38 255 C-38.99 254.67 -39.98 254.34 -41 254 C-41 253.34 -41 252.68 -41 252 C-41.99 251.67 -42.98 251.34 -44 251 C-46.19 249.06 -46.19 249.06 -48 247 C-48 246.34 -48 245.68 -48 245 C-48.99 244.67 -49.98 244.34 -51 244 C-51 243.34 -51 242.68 -51 242 C-51.99 241.67 -52.98 241.34 -54 241 C-56.19 239.06 -56.19 239.06 -58 237 C-58 236.34 -58 235.68 -58 235 C-58.99 234.67 -59.98 234.34 -61 234 C-61 233.34 -61 232.68 -61 232 C-61.99 231.67 -62.98 231.34 -64 231 C-66.19 229.06 -66.19 229.06 -68 227 C-68 226.34 -68 225.68 -68 225 C-68.99 224.67 -69.98 224.34 -71 224 C-73.19 222.06 -73.19 222.06 -75 220 C-75 219.34 -75 218.68 -75 218 C-75.99 217.67 -76.98 217.34 -78 217 C-78 216.34 -78 215.68 -78 215 C-78.99 214.67 -79.98 214.34 -81 214 C-83.19 212.06 -83.19 212.06 -85 210 C-85 209.34 -85 208.68 -85 208 C-85.99 207.67 -86.98 207.34 -88 207 C-88 206.34 -88 205.68 -88 205 C-88.99 204.67 -89.98 204.34 -91 204 C-93.19 202.06 -93.19 202.06 -95 200 C-95 199.34 -95 198.68 -95 198 C-95.99 197.67 -96.98 197.34 -98 197 C-98 196.34 -98 195.68 -98 195 C-98.99 194.67 -99.98 194.34 -101 194 C-103.19 192.06 -103.19 192.06 -105 190 C-105 189.34 -105 188.68 -105 188 C-105.99 187.67 -106.98 187.34 -108 187 C-108 186.34 -108 185.68 -108 185 C-108.99 184.67 -109.98 184.34 -111 184 C-113.19 182.06 -113.19 182.06 -115 180 C-115 179.34 -115 178.68 -115 178 C-115.99 177.67 -116.98 177.34 -118 177 C-118 176.34 -118 175.68 -118 175 C-118.99 174.67 -119.98 174.34 -121 174 C-123.19 172.06 -123.19 172.06 -125 170 C-125 169.34 -125 168.68 -125 168 C-125.99 167.67 -126.98 167.34 -128 167 C-128 166.34 -128 165.68 -128 165 C-128.99 164.67 -129.98 164.34 -131 164 C-133.19 162.06 -133.19 162.06 -135 160 C-135 159.34 -135 158.68 -135 158 C-135.99 157.67 -136.98 157.34 -138 157 C-138 156.34 -138 155.68 -138 155 C-138.99 154.67 -139.98 154.34 -141 154 C-143.19 152.06 -143.19 152.06 -145 150 C-145 149.34 -145 148.68 -145 148 C-145.99 147.67 -146.98 147.34 -148 147 C-148 146.34 -148 145.68 -148 145 C-148.99 144.67 -149.98 144.34 -151 144 C-151.62 141.69 -151.62 141.69 -152 139 C-151.34 138.01 -150.68 137.02 -150 136 C-149.34 136 -148.68 136 -148 136 C-147.67 135.01 -147.34 134.02 -147 133 C-146.34 133 -145.68 133 -145 133 C-144.34 131.68 -143.68 130.36 -143 129 C-142.34 129 -141.68 129 -141 129 C-140.67 128.01 -140.34 127.02 -140 126 C-139.34 126 -138.68 126 -138 126 C-137.67 125.01 -137.34 124.02 -137 123 C-136.34 123 -135.68 123 -135 123 C-134.34 121.68 -133.68 120.36 -133 119 C-132.34 119 -131.68 119 -131 119 C-130.67 118.01 -130.34 117.02 -130 116 C-129.34 116 -128.68 116 -128 116 C-127.67 115.01 -127.34 114.02 -127 113 C-126.34 113 -125.68 113 -125 113 C-124.34 111.68 -123.68 110.36 -123 109 C-122.34 109 -121.68 109 -121 109 C-120.67 108.01 -120.34 107.02 -120 106 C-119.34 106 -118.68 106 -118 106 C-117.67 105.01 -117.34 104.02 -117 103 C-116.34 103 -115.68 103 -115 103 C-114.34 101.68 -113.68 100.36 -113 99 C-112.34 99 -111.68 99 -111 99 C-110.67 98.01 -110.34 97.02 -110 96 C-109.34 96 -108.68 96 -108 96 C-107.67 95.01 -107.34 94.02 -107 93 C-106.34 93 -105.68 93 -105 93 C-104.34 91.68 -103.68 90.36 -103 89 C-102.34 89 -101.68 89 -101 89 C-100.67 88.01 -100.34 87.02 -100 86 C-99.34 86 -98.68 86 -98 86 C-97.67 85.01 -97.34 84.02 -97 83 C-96.34 83 -95.68 83 -95 83 C-94.34 81.68 -93.68 80.36 -93 79 C-92.34 79 -91.68 79 -91 79 C-90.67 78.01 -90.34 77.02 -90 76 C-89.34 76 -88.68 76 -88 76 C-87.73 75.4 -87.46 74.8 -87.19 74.19 C-86 72 -84.9 70.59 -83 69 C-82.34 69 -81.68 69 -81 69 C-80.67 68.01 -80.34 67.02 -80 66 C-79.34 66 -78.68 66 -78 66 C-77.73 65.4 -77.46 64.8 -77.19 64.19 C-76 62 -74.9 60.59 -73 59 C-72.34 59 -71.68 59 -71 59 C-70.67 58.01 -70.34 57.02 -70 56 C-69.34 56 -68.68 56 -68 56 C-67.73 55.4 -67.46 54.8 -67.19 54.19 C-66 52 -64.9 50.59 -63 49 C-62.34 49 -61.68 49 -61 49 C-60.67 48.01 -60.34 47.02 -60 46 C-59.34 46 -58.68 46 -58 46 C-57.73 45.4 -57.46 44.8 -57.19 44.19 C-56 42 -54.9 40.59 -53 39 C-52.34 39 -51.68 39 -51 39 C-50.67 38.01 -50.34 37.02 -50 36 C-49.34 36 -48.68 36 -48 36 C-47.73 35.4 -47.46 34.8 -47.19 34.19 C-46 32 -44.9 30.59 -43 29 C-42.34 29 -41.68 29 -41 29 C-40.67 28.01 -40.34 27.02 -40 26 C-39.34 26 -38.68 26 -38 26 C-37.73 25.4 -37.46 24.8 -37.19 24.19 C-36 22 -34.9 20.59 -33 19 C-32.34 19 -31.68 19 -31 19 C-30.67 18.01 -30.34 17.02 -30 16 C-27.89 14.28 -27.89 14.28 -25.25 12.5 C-23.96 11.62 -23.96 11.62 -22.64 10.72 C-15.28 5.93 -8.8 2.77 0 2 C0 1.34 0 0.68 0 0 Z " fill="#ED5031" transform="translate(615,0)"/>
</svg>
