<?xml version="1.0" encoding="UTF-8"?>
<!-- Generator: visioncortex VTracer 0.6.3 -->
<svg version="1.1" xmlns="http://www.w3.org/2000/svg" width="1280" height="1280">
<path d="M0 0 C1.98 1.98 1.98 1.98 4 4 C3.34 4 2.68 4 2 4 C1.92 4.54 1.84 5.07 1.75 5.62 C1 8 1 8 -1 10.88 C-3.1 14.15 -3.52 16.2 -4 20 C-4.62 21.68 -5.28 23.36 -6 25 C-6.66 25 -7.32 25 -8 25 C-8.14 25.64 -8.29 26.28 -8.44 26.94 C-9 29 -9 29 -10 30 C-10.15 31.76 -10.15 31.76 -10.31 33.56 C-10.76 37.62 -12.08 40.61 -14.01 44.17 C-15.2 46.38 -16.12 48.65 -17 51 C-17.66 51 -18.32 51 -19 51 C-18.93 52.5 -18.93 52.5 -18.86 54.04 C-19.01 58.29 -19.9 61.44 -21.31 65.44 C-21.74 66.67 -22.17 67.91 -22.61 69.18 C-23.3 71.12 -24.01 73.04 -24.77 74.95 C-26.96 80.53 -28.26 86.13 -29.46 92 C-30.35 96.07 -31.37 98.79 -34 102 C-34.17 105.13 -34.17 105.13 -34 108 C-34.33 108.33 -34.66 108.66 -35 109 C-35.21 110.83 -35.37 112.66 -35.5 114.5 C-35.89 119.89 -35.89 119.89 -37 121 C-37.28 123.51 -37.45 126.03 -37.62 128.55 C-38 131 -38 131 -40 134 C-40.27 136.37 -40.45 138.75 -40.56 141.12 C-40.9 147.9 -40.9 147.9 -42 149 C-42.23 151.18 -42.41 153.37 -42.56 155.56 C-42.69 157.36 -42.69 157.36 -42.82 159.19 C-42.88 160.12 -42.94 161.05 -43 162 C-43.33 162 -43.66 162 -44 162 C-43.98 162.97 -43.96 163.94 -43.94 164.94 C-44 168 -44 168 -45 169 C-45.15 171.51 -45.23 173.99 -45.28 176.5 C-45.3 177.25 -45.32 178 -45.34 178.78 C-45.4 181.18 -45.45 183.59 -45.5 186 C-45.57 189.17 -45.64 192.33 -45.72 195.5 C-45.73 196.24 -45.75 196.97 -45.76 197.73 C-45.89 202.89 -45.89 202.89 -47 204 C-47.19 206.93 -47.31 209.84 -47.39 212.78 C-47.41 213.66 -47.44 214.54 -47.46 215.45 C-47.52 217.32 -47.57 219.19 -47.61 221.06 C-47.69 223.92 -47.78 226.79 -47.87 229.65 C-47.92 231.47 -47.97 233.28 -48.01 235.09 C-48.04 235.95 -48.07 236.81 -48.1 237.7 C-48.14 239.8 -48.08 241.9 -48 244 C-47.34 244.66 -46.68 245.32 -46 246 C-45.77 248.55 -45.65 251.01 -45.62 253.56 C-45.6 254.31 -45.59 255.06 -45.57 255.83 C-45.52 258.22 -45.48 260.61 -45.44 263 C-45.39 265.39 -45.35 267.78 -45.29 270.17 C-45.26 271.66 -45.24 273.15 -45.21 274.64 C-45.2 278.45 -45.2 278.45 -44 282 C-44.01 285.63 -44.08 289.25 -44.21 292.88 C-44.25 294.92 -44.14 296.96 -44 299 C-43.01 299.66 -42.02 300.32 -41 301 C-40.64 303.71 -40.44 306.22 -40.38 308.94 C-40.23 314.55 -40.23 314.55 -39 320 C-39.01 322.32 -39.13 324.62 -39.26 326.94 C-39.17 327.62 -39.09 328.3 -39 329 C-38.01 329.66 -37.02 330.32 -36 331 C-35.27 333.98 -34.99 336.63 -35.06 339.69 C-35.2 342.28 -35.2 342.28 -33 345 C-32.88 347.19 -32.88 347.19 -33 349.56 C-33.17 351.89 -33.17 351.89 -33 354 C-32.34 354.66 -31.68 355.32 -31 356 C-30.59 358.38 -30.59 358.38 -30.38 361.12 C-30.26 362.49 -30.26 362.49 -30.15 363.88 C-30.1 364.58 -30.05 365.28 -30 366 C-29.34 366 -28.68 366 -28 366 C-28.07 368.02 -28.13 370.04 -28.2 372.05 C-28.18 374.24 -28.18 374.24 -26 376 C-26.44 378.06 -26.44 378.06 -27 380 C-26.67 380.33 -26.34 380.66 -26 381 C-22.79 384.48 -22.61 387.39 -22 392 C-20.54 397.14 -18.59 402.11 -16.68 407.1 C-16.04 408.89 -15.52 410.73 -15 412.56 C-13.94 416.2 -12.5 419.52 -11 423 C-10.24 425.17 -9.53 427.35 -8.82 429.54 C-5.99 438.1 -5.99 438.1 -2.31 446.31 C-0.89 449.22 -0.52 451.82 0 455 C0.66 455.33 1.32 455.66 2 456 C1.67 456.66 1.34 457.32 1 458 C1.33 458.33 1.66 458.66 2 459 C3.01 460.66 4.01 462.33 5 464 C5.99 465.49 5.99 465.49 7 467 C7.5 468.59 7.95 470.2 8.38 471.81 C9.62 476.16 11.34 479.32 14 483 C14.69 484.66 15.36 486.32 16 488 C16.5 488.83 16.99 489.65 17.5 490.5 C18.97 492.95 19.94 495.35 21 498 C21.5 498.83 21.99 499.65 22.5 500.5 C23.97 502.95 24.94 505.35 26 508 C26.5 508.83 26.99 509.65 27.5 510.5 C29 513 29 513 30 515.62 C30.84 518.05 30.84 518.05 32.62 519.62 C33.08 520.08 33.53 520.53 34 521 C34 521.99 34 522.98 34 524 C34.66 524.33 35.32 524.66 36 525 C36.9 526.76 37.72 528.56 38.5 530.38 C40.27 534.47 42.05 537.87 44.94 541.31 C47 544 47 544 48.38 546.81 C50.16 550.31 52.33 553.13 54.79 556.17 C56 558 56 558 56 561 C57.64 562.69 59.31 564.35 61 566 C63.31 569.23 65.23 572.46 67 576 C67.66 576.66 68.32 577.32 69 578 C71.67 581.08 72 581.68 72 586 C72.6 586.27 73.2 586.54 73.81 586.81 C76.02 588.01 77.44 589.04 79 591 C79 591.99 79 592.98 79 594 C79.66 593.67 80.32 593.34 81 593 C81.25 593.74 81.5 594.49 81.75 595.25 C82.84 598.1 82.84 598.1 85.12 600.06 C87 602 87 602 87 606 C87.6 606.27 88.2 606.54 88.81 606.81 C92.22 608.66 93.66 610.31 95.38 613.81 C97.41 617.8 99.88 621.94 104 624 C104.29 624.6 104.58 625.2 104.88 625.82 C106.21 628.4 107.81 629.91 109.94 631.88 C113.21 635.05 115.06 637.85 117 642 C118.63 643.7 120.3 645.36 122 647 C123.75 648.73 125.5 650.46 127.25 652.19 C128.12 653.05 128.99 653.91 129.89 654.79 C132 657 132 657 133 659 C136.12 663.16 139.65 666.78 143.34 670.44 C143.94 671.04 144.55 671.64 145.17 672.26 C147.09 674.18 149.01 676.09 150.94 678 C152.23 679.28 153.51 680.57 154.8 681.85 C157.7 684.74 160.6 687.62 163.5 690.51 C164.93 691.93 166.35 693.36 167.76 694.8 C169.92 697.02 169.92 697.02 172.25 698.69 C174 700 174 700 175 702 C175.55 702.24 176.1 702.48 176.67 702.73 C180.15 704.63 182.54 707.46 185.25 710.31 C189.85 715.04 194.21 718.8 200 722 C208 728 208 728 210 732 C210.56 732.27 211.11 732.54 211.69 732.81 C213.82 733.91 215.31 735.02 217.12 736.56 C219.72 738.96 219.72 738.96 222 740 C222 740.66 222 741.32 222 742 C222.99 742 223.98 742 225 742 C226.13 743.13 227.25 744.26 228.34 745.43 C232.29 749.17 237.13 752.56 242 755 C242 755.66 242 756.32 242 757 C242.55 757.07 243.09 757.15 243.66 757.22 C246.9 758.3 248.91 760.22 251.5 762.44 C255.93 766.23 255.93 766.23 261 769 C265.62 771.06 268.48 773.39 272 777 C273.31 777.71 274.65 778.38 276 779 C277.38 779.66 278.75 780.33 280.12 781 C280.81 781.33 281.49 781.66 282.2 782 C284.55 783.31 285.79 784.59 287 787 C289.53 787.66 289.53 787.66 292 788 C292.33 788.99 292.66 789.98 293 791 C293.7 791.08 294.4 791.16 295.12 791.25 C298.66 792.17 301.02 793.93 304 796 C304.99 796.33 305.98 796.66 307 797 C307 797.66 307 798.32 307 799 C307.76 799.21 308.53 799.41 309.31 799.62 C322.83 804.67 322.83 804.67 325 809 C327 809.68 329 810.34 331 811 C335.61 813.07 340.02 815.55 344.44 818 C348.51 820.24 352.61 822.23 356.88 824.07 C361.22 825.98 365.43 828.19 369.65 830.37 C373.85 832.41 378.13 834.21 382.44 836 C384.08 836.69 385.73 837.37 387.37 838.06 C388.16 838.39 388.95 838.72 389.76 839.06 C391.78 839.91 393.79 840.76 395.8 841.63 C402.15 844.35 408.49 846.87 415.06 849 C419.48 850.44 423.65 852.13 427.86 854.06 C433.27 856.44 438.92 858 444.62 859.5 C448.96 860.65 452.88 862.23 457 864 C459.47 864.75 461.96 865.4 464.46 866.05 C467.27 866.8 470.06 867.6 472.85 868.42 C481.92 871.08 490.88 873.59 500.19 875.26 C503.51 875.9 506.76 876.66 510.05 877.45 C517.05 879.08 524.07 880.15 531.19 881.12 C533.58 881.46 535.97 881.79 538.36 882.13 C539.39 882.28 540.43 882.42 541.5 882.57 C544 883 544 883 546 884 C548.4 884.37 550.79 884.69 553.2 884.97 C553.92 885.06 554.63 885.15 555.37 885.24 C556.89 885.42 558.4 885.6 559.92 885.78 C562.23 886.06 564.53 886.34 566.84 886.63 C568.32 886.81 569.79 886.98 571.27 887.16 C571.95 887.24 572.63 887.33 573.34 887.42 C576.39 887.77 579.35 888 582.42 887.99 C585 888 585 888 586 889 C587.99 889.22 590 889.37 592 889.5 C593.27 889.58 594.53 889.66 595.84 889.75 C597.22 889.83 598.61 889.92 600 890 C601.06 890.06 601.06 890.06 602.13 890.13 C607.09 890.43 612.04 890.72 617 891 C618.08 891.06 619.16 891.12 620.27 891.19 C646.22 892.63 672.34 892.45 698.31 891.56 C700.05 891.5 700.05 891.5 701.81 891.44 C707.5 891.27 707.5 891.27 713 890 C714.68 889.86 716.36 889.78 718.04 889.72 C719.01 889.68 719.98 889.64 720.99 889.61 C723.04 889.54 725.1 889.46 727.15 889.39 C728.12 889.36 729.1 889.32 730.1 889.28 C730.99 889.25 731.88 889.22 732.8 889.19 C735.04 889.13 735.04 889.13 737 888 C738.51 887.79 740.02 887.63 741.54 887.5 C742.87 887.38 742.87 887.38 744.24 887.25 C746.12 887.08 748.01 886.92 749.9 886.75 C751.24 886.63 751.24 886.63 752.6 886.5 C753.42 886.43 754.24 886.36 755.08 886.28 C757 886.19 757 886.19 758 885 C761.36 884.67 764.72 884.49 768.09 884.28 C770.89 884.32 770.89 884.32 772 883 C774.14 882.58 776.29 882.21 778.44 881.88 C780.2 881.59 780.2 881.59 782 881.3 C785 881 785 881 787 882 C787 881.34 787 880.68 787 880 C788.46 879.81 789.92 879.62 791.38 879.44 C792.19 879.33 793 879.23 793.84 879.12 C796 879 796 879 798 880 C798 879.34 798 878.68 798 878 C798.57 877.89 799.14 877.78 799.72 877.66 C802.34 877.15 804.95 876.64 807.56 876.12 C808.46 875.95 809.35 875.78 810.28 875.6 C815.27 874.61 820.12 873.45 825 872 C827.14 871.45 829.29 870.91 831.44 870.38 C833.01 869.98 833.01 869.98 834.62 869.59 C835.8 869.3 835.8 869.3 837 869 C837 868.67 837 868.34 837 868 C837.64 867.87 838.28 867.73 838.93 867.6 C839.76 867.42 840.59 867.24 841.44 867.06 C842.26 866.89 843.08 866.71 843.93 866.54 C845.98 866.19 845.98 866.19 847 865 C849 864.96 851 864.96 853 865 C853 864.34 853 863.68 853 863 C858.1 861.09 862.46 859.57 868 860 C868 859.34 868 858.68 868 858 C869.95 857.54 871.91 857.09 873.86 856.63 C876.08 855.98 877.94 855.06 880 854 C881.49 853.38 882.99 852.78 884.5 852.19 C889.5 850.22 894.42 848.11 899.34 845.95 C902 845 902 845 906 845 C906 844.34 906 843.68 906 843 C909.3 842.01 912.6 841.02 916 840 C916 839.34 916 838.68 916 838 C919.3 837.01 922.6 836.02 926 835 C926 834.34 926 833.68 926 833 C929.32 831.58 932.44 830.61 936 830 C936 829.34 936 828.68 936 828 C942.62 825 942.62 825 946 825 C946 824.34 946 823.68 946 823 C950.36 819.95 957.58 815 963 815 C963.21 814.4 963.41 813.8 963.62 813.19 C965.53 810.16 967.77 809.42 971 808 C971.72 807.63 972.44 807.26 973.19 806.88 C975 806 975 806 978 805 C978 804.34 978 803.68 978 803 C979.57 801.82 979.57 801.82 981.69 800.56 C982.42 800.13 983.14 799.69 983.89 799.24 C984.59 798.83 985.28 798.42 986 798 C987.42 797.1 987.42 797.1 988.88 796.19 C991 795 991 795 993 795 C993.4 794.1 993.4 794.1 993.81 793.19 C995.54 790.01 996.95 788.39 1000.38 787.12 C1003.22 786.11 1003.22 786.11 1005.5 783.44 C1008.25 780.76 1009.39 780.68 1013 780 C1013.28 779.44 1013.56 778.87 1013.85 778.29 C1015.36 775.29 1017.38 773.31 1019.75 770.94 C1020.59 770.08 1021.43 769.22 1022.3 768.34 C1025 766 1025 766 1027.71 764.78 C1031.95 762.48 1034.92 759.51 1038.3 756.1 C1038.97 755.43 1039.65 754.76 1040.34 754.07 C1041.76 752.65 1043.18 751.23 1044.59 749.8 C1046.75 747.63 1048.92 745.47 1051.1 743.31 C1052.48 741.93 1053.86 740.55 1055.23 739.16 C1055.88 738.52 1056.53 737.88 1057.2 737.22 C1060.4 733.96 1062.58 731.43 1064 727 C1065.91 725.05 1065.91 725.05 1068.06 723.31 C1070.98 721.02 1070.98 721.02 1073 718 C1073.66 718 1074.32 718 1075 718 C1076.21 715.67 1077.17 713.5 1078 711 C1081.06 709.31 1081.06 709.31 1084 708 C1084 709.98 1084 711.96 1084 714 C1083.34 714 1082.68 714 1082 714 C1081.67 715.32 1081.34 716.64 1081 718 C1080.34 718 1079.68 718 1079 718 C1078.67 718.99 1078.34 719.98 1078 721 C1078.33 721.33 1078.66 721.66 1079 722 C1078.67 722.99 1078.34 723.98 1078 725 C1077.67 724.67 1077.34 724.34 1077 724 C1077.12 725.05 1077.12 725.05 1077.25 726.12 C1076.92 729.95 1075.2 731.9 1073 735 C1072.3 736.65 1071.63 738.32 1071 740 C1070.02 742.01 1069.02 744.01 1068 746 C1067.01 746 1066.02 746 1065 746 C1065.22 746.57 1065.45 747.14 1065.68 747.72 C1066.12 750.87 1065.05 751.92 1063.19 754.44 C1060.92 757.54 1059.31 760.38 1058 764 C1057.01 763.67 1056.02 763.34 1055 763 C1055.33 764.65 1055.66 766.3 1056 768 C1055.2 768.58 1054.39 769.15 1053.56 769.75 C1050.92 772.07 1050.55 772.71 1050 776 C1049.34 776.66 1048.68 777.32 1048 778 C1047.54 779.18 1047.54 779.18 1047.06 780.38 C1046.01 782.98 1044.76 784.84 1043 787 C1043 786.34 1043 785.68 1043 785 C1042.01 785 1041.02 785 1040 785 C1040 785.99 1040 786.98 1040 788 C1040.99 788.5 1040.99 788.5 1042 789 C1039.46 793.23 1036.82 797.37 1033.94 801.38 C1033.24 802.35 1033.24 802.35 1032.53 803.34 C1031 805 1031 805 1028.85 806.04 C1028.24 806.36 1027.63 806.67 1027 807 C1026.62 808.99 1026.29 810.99 1026 813 C1024.62 814.87 1024.62 814.87 1023 816 C1022.01 816 1021.02 816 1020 816 C1020.99 816.5 1020.99 816.5 1022 817 C1020.6 820.11 1018.93 822.37 1016.62 824.88 C1013.73 828.1 1011.29 831.33 1009 835 C1008.01 834.67 1007.02 834.34 1006 834 C1003.72 836.82 1003.72 836.82 1004 840 C1000.66 845.89 995.93 850.17 991.04 854.79 C987.45 858.27 984.96 861.3 983 866 C982.34 866 981.68 866 981 866 C980.6 866.93 980.6 866.93 980.19 867.88 C979 870 979 870 976 872 C975.67 871.67 975.34 871.34 975 871 C974.34 872.65 973.68 874.3 973 876 C971.68 875.34 970.36 874.68 969 874 C968.67 875.32 968.34 876.64 968 878 C966.68 878.33 965.36 878.66 964 879 C964 880.98 964 882.96 964 885 C961 885 961 885 959 884 C959 885.98 959 887.96 959 890 C958.01 890 957.02 890 956 890 C955.34 890.33 954.68 890.66 954 891 C953.34 893.53 953.34 893.53 953 896 C952.01 895.67 951.02 895.34 950 895 C949.84 895.89 949.67 896.77 949.5 897.69 C947.67 901.72 946.1 902.37 942.36 904.43 C938.43 907.04 935.4 910.55 932.2 913.99 C930 916 930 916 927 916 C927 916.66 927 917.32 927 918 C924.36 919.78 922.03 920.99 919 922 C919 922.99 919 923.98 919 925 C916.81 926.44 916.81 926.44 914 928 C910.45 930.53 910.45 930.53 908 934 C905.1 935.37 903.24 936 900 936 C899.34 935.67 898.68 935.34 898 935 C898 935.99 898 936.98 898 938 C898.99 938.49 898.99 938.49 900 939 C897.45 941.98 894.5 943.32 891 945 C890.01 945.66 889.02 946.32 888 947 C887.01 946.34 886.02 945.68 885 945 C885 945.99 885 946.98 885 948 C885.99 948.49 885.99 948.49 887 949 C882 952 882 952 879.5 953.44 C876.98 954.93 876.98 954.93 874.88 956.81 C871.28 959.55 867.43 961.54 863.43 963.63 C860.92 964.9 860.92 964.9 859 967 C857.68 967 856.36 967 855 967 C855 967.66 855 968.32 855 969 C854.22 969.27 853.43 969.54 852.62 969.81 C849.72 970.85 849.72 970.85 848 974 C845.06 975.12 845.06 975.12 842 976 C838.88 976.65 838.88 976.65 838 979 C836.02 979.73 834.02 980.39 832 981 C828.88 981.65 828.88 981.65 828 984 C826.02 984.73 824.02 985.39 822 986 C818.88 986.65 818.88 986.65 818 989 C816.02 989.73 814.02 990.39 812 991 C808.88 991.65 808.88 991.65 808 994 C806.02 994.73 804.02 995.39 802 996 C798.88 996.65 798.88 996.65 798 999 C791.77 1002 791.77 1002 788 1002 C788 1001.34 788 1000.68 788 1000 C787.01 1000 786.02 1000 785 1000 C785.33 1000.99 785.66 1001.98 786 1003 C785.07 1003.39 784.14 1003.78 783.19 1004.19 C779.95 1005.57 776.76 1007.03 773.56 1008.5 C769.1 1010.54 764.61 1012.34 760 1014 C758.65 1014.52 757.29 1015.04 755.94 1015.56 C752.34 1016.91 748.69 1017.94 745 1019 C742.95 1019.81 740.92 1020.64 738.89 1021.51 C737 1022 737 1022 734.95 1021.39 C734.31 1021.26 733.66 1021.13 733 1021 C731.97 1021.97 730.98 1022.98 730 1024 C727.77 1024.63 727.77 1024.63 725.25 1025 C720.79 1025.78 717.16 1027.2 713 1029 C706.71 1030.82 700.48 1032.09 694 1033 C693.07 1033.33 692.14 1033.66 691.19 1034 C687.47 1035.17 683.95 1035.47 680.07 1035.75 C678.01 1035.78 678.01 1035.78 677 1037 C675.04 1037.23 673.07 1037.45 671.11 1037.62 C668.97 1037.89 668.97 1037.89 667.12 1039 C664.33 1040.31 661.88 1040.39 658.81 1040.56 C655.09 1040.47 655.09 1040.47 652 1042 C648.77 1042.29 645.54 1042.45 642.3 1042.62 C639.09 1042.83 639.09 1042.83 636.69 1044 C632.62 1045.51 628.56 1045.43 624.25 1045.56 C622.53 1045.62 620.8 1045.69 619.08 1045.75 C617.94 1045.79 617.94 1045.79 616.78 1045.83 C614.98 1045.81 614.98 1045.81 614 1047 C612.31 1047.15 610.61 1047.23 608.91 1047.28 C607.36 1047.34 607.36 1047.34 605.79 1047.39 C603.6 1047.46 601.4 1047.54 599.21 1047.61 C597.67 1047.66 597.67 1047.66 596.09 1047.72 C595.14 1047.75 594.19 1047.78 593.21 1047.81 C591.03 1047.76 591.03 1047.76 590 1049 C584.64 1049.99 579.43 1050.14 573.99 1050.13 C573.12 1050.13 572.25 1050.13 571.35 1050.13 C568.47 1050.14 565.6 1050.14 562.73 1050.13 C560.72 1050.13 558.71 1050.13 556.7 1050.14 C552.5 1050.14 548.29 1050.14 544.09 1050.13 C538.72 1050.12 533.34 1050.13 527.97 1050.13 C523.82 1050.14 519.68 1050.14 515.53 1050.13 C513.55 1050.13 511.57 1050.13 509.59 1050.14 C506.81 1050.14 504.04 1050.13 501.26 1050.13 C500.05 1050.13 500.05 1050.13 498.82 1050.14 C484.08 1050.08 484.08 1050.08 482 1048 C480.66 1047.84 479.31 1047.75 477.96 1047.68 C477.16 1047.64 476.35 1047.6 475.51 1047.56 C474.24 1047.5 474.24 1047.5 472.94 1047.44 C472.08 1047.39 471.23 1047.35 470.35 1047.31 C468.23 1047.2 466.12 1047.1 464 1047 C464 1046.34 464 1045.68 464 1045 C463.1 1045.13 463.1 1045.13 462.19 1045.25 C456.14 1045.96 450.26 1046.02 444.19 1045.69 C443.47 1045.65 442.75 1045.62 442.02 1045.58 C437.68 1045.31 434.09 1044.39 430 1043 C427.72 1042.72 425.42 1042.52 423.12 1042.38 C421.97 1042.3 420.82 1042.23 419.63 1042.15 C418.76 1042.1 417.9 1042.05 417 1042 C417 1041.34 417 1040.68 417 1040 C416.46 1040.17 415.93 1040.34 415.38 1040.52 C412.46 1041.11 409.96 1040.94 407 1040.69 C405.45 1040.57 405.45 1040.57 403.88 1040.45 C401 1040 401 1040 399.01 1038.99 C396.29 1037.65 393.89 1037.61 390.88 1037.44 C385.19 1037.1 385.19 1037.1 383 1036 C381.11 1035.66 379.21 1035.35 377.31 1035.06 C372.74 1034.33 368.41 1033.4 364 1032 C364 1031.34 364 1030.68 364 1030 C363.01 1030.33 362.02 1030.66 361 1031 C358.77 1030.55 358.77 1030.55 356.38 1029.75 C355.58 1029.5 354.78 1029.24 353.96 1028.98 C352 1028 352 1028 351 1025 C350.36 1025.23 349.72 1025.45 349.06 1025.69 C344.73 1026.13 340.86 1025.01 337 1023 C336.67 1022.01 336.34 1021.02 336 1020 C335.36 1020.23 334.72 1020.45 334.06 1020.69 C329.73 1021.13 325.86 1020.01 322 1018 C321.67 1017.01 321.34 1016.02 321 1015 C320.36 1015.23 319.72 1015.45 319.06 1015.69 C314.58 1016.15 311.17 1014.54 307 1013 C305.4 1012.5 303.79 1012 302.19 1011.5 C298.49 1010.27 295.77 1008.77 293 1006 C292.34 1006.33 291.68 1006.66 291 1007 C291 1006.34 291 1005.68 291 1005 C289.78 1004.9 288.57 1004.79 287.31 1004.69 C283.51 1004.21 281.23 1003.1 278 1001 C275.91 1000.22 273.8 999.52 271.67 998.84 C270 998 270 998 269 995 C268.01 995.33 267.02 995.66 266 996 C263.97 995.05 261.98 994.05 260 993 C257.76 992.31 257.76 992.31 256 992 C256 991.34 256 990.68 256 990 C254.76 989.9 253.52 989.79 252.25 989.69 C248.57 989.22 246.89 988.37 244 986 C242.76 985.41 241.51 984.85 240.25 984.31 C235.68 982.34 231.21 980.2 226.75 978 C226.06 977.67 225.38 977.34 224.67 976.99 C220.71 975.02 217.41 972.87 214 970 C209.79 967.71 205.42 965.85 201 964 C201 963.34 201 962.68 201 962 C200.27 961.89 199.54 961.79 198.79 961.68 C195.78 960.95 193.96 959.89 191.44 958.12 C190.69 957.61 189.95 957.1 189.18 956.57 C187.71 955.51 186.27 954.42 184.85 953.3 C183.1 951.81 183.1 951.81 181 952 C180.67 951.34 180.34 950.68 180 950 C179.22 949.69 178.43 949.38 177.62 949.06 C175 948 175 948 173.62 946.56 C171.62 944.63 169.41 943.85 166.85 942.82 C163.95 941.54 161.49 939.94 159 938 C159 937.01 159 936.02 159 935 C158.01 935.33 157.02 935.66 156 936 C152.48 933.9 149.27 931.46 146 929 C145.01 928.36 144.02 927.72 143 927.06 C140 925 140 925 138 922.94 C136.05 920.85 136.05 920.85 133.25 919.62 C128.12 917.06 123.82 913.47 119.38 909.88 C116.97 907.92 116.97 907.92 114.12 906.12 C111.11 904.07 108.47 901.85 105.74 899.45 C103.29 897.41 100.67 895.74 98 894 C96 892 96 892 94.38 889.69 C92.26 887.29 90.87 886.19 88.19 884.62 C84.43 882.41 81.64 879.83 78.64 876.69 C76.27 874.25 73.64 872.15 71 870 C68.97 868.24 66.96 866.46 64.94 864.68 C63.31 863.27 61.63 861.91 59.94 860.56 C57.01 858.01 54.63 855.33 52.12 852.38 C48.14 847.91 43.83 843.75 39.56 839.54 C35.75 835.77 31.98 831.97 28.21 828.17 C26.41 826.36 24.61 824.56 22.81 822.75 C21.9 821.83 20.98 820.9 20.04 819.95 C18.73 818.64 18.73 818.64 17.39 817.3 C16.6 816.5 15.8 815.7 14.98 814.87 C13.14 812.95 13.14 812.95 11 812 C10.75 811.28 10.5 810.55 10.25 809.81 C8.33 805.48 4.84 802.71 1.43 799.55 C-2 796.27 -3.9 793.31 -6 789 C-6.99 788.67 -7.98 788.34 -9 788 C-9.72 786.69 -10.38 785.35 -11 784 C-11.86 782.91 -12.76 781.84 -13.69 780.81 C-18.22 775.65 -22.59 770.32 -26.25 764.5 C-27.82 761.73 -27.82 761.73 -31 761 C-31.67 759.33 -32.33 757.67 -33 756 C-33.84 754.93 -34.72 753.89 -35.62 752.88 C-38 750 -38 750 -38 747 C-38.66 746.67 -39.32 746.34 -40 746 C-41.21 744.35 -42.42 742.69 -43.59 741 C-44.94 739.08 -46.37 737.23 -47.81 735.38 C-58.88 720.67 -58.88 720.67 -60 714 C-60.66 714 -61.32 714 -62 714 C-66 707.25 -66 707.25 -66 705 C-66.66 705 -67.32 705 -68 705 C-69 702.59 -69.93 700.3 -70.5 697.75 C-70.67 697.17 -70.83 696.6 -71 696 C-71.66 695.67 -72.32 695.34 -73 695 C-73.66 694.34 -74.32 693.68 -75 693 C-75 691.68 -75 690.36 -75 689 C-75.66 689 -76.32 689 -77 689 C-78.27 686.63 -79.54 684.25 -80.81 681.88 C-81.17 681.21 -81.53 680.54 -81.89 679.86 C-83.53 676.8 -85.12 673.75 -86.64 670.63 C-87.87 667.93 -87.87 667.93 -90 666 C-90.4 664.01 -90.74 662.01 -91 660 C-91.66 660 -92.32 660 -93 660 C-93 658.68 -93 657.36 -93 656 C-93.66 656 -94.32 656 -95 656 C-95.5 653.03 -95.5 653.03 -96 650 C-96.66 650 -97.32 650 -98 650 C-98 648.68 -98 647.36 -98 646 C-98.66 646 -99.32 646 -100 646 C-100.33 645.14 -100.33 645.14 -100.66 644.27 C-103.09 638.06 -105.8 632.01 -108.63 625.98 C-109.84 623.35 -110.94 620.7 -112 618 C-113.47 614.56 -114.95 611.12 -116.44 607.69 C-116.96 606.46 -117.48 605.23 -118 604 C-118.55 602.72 -118.55 602.72 -119.11 601.41 C-119.49 600.51 -119.86 599.61 -120.25 598.69 C-120.61 597.85 -120.96 597 -121.33 596.14 C-122 594 -122 594 -121 592 C-121.66 591.67 -122.32 591.34 -123 591 C-123.81 589.23 -123.81 589.23 -124.59 586.91 C-124.88 586.07 -125.16 585.23 -125.46 584.36 C-125.76 583.46 -126.06 582.55 -126.38 581.62 C-127 579.8 -127.62 577.97 -128.25 576.14 C-128.7 574.81 -128.7 574.81 -129.16 573.45 C-130.48 569.6 -131.92 565.8 -133.37 562 C-134 560 -134 560 -134 557 C-134.66 556.34 -135.32 555.68 -136 555 C-137.7 549.77 -138.91 544.4 -140.22 539.06 C-141.08 535.69 -142.04 532.35 -143 529 C-146.25 517.18 -149.31 505.38 -151.42 493.3 C-151.89 490.61 -152.44 487.97 -153.06 485.31 C-154.15 480.59 -154.83 475.81 -155.54 471.02 C-155.95 468.32 -156.46 465.67 -157 463 C-159.05 451.91 -160.5 441.31 -160 430 C-160.66 429.67 -161.32 429.34 -162 429 C-163 415.05 -163.35 401.09 -163.61 387.1 C-163.66 384.56 -163.72 382.01 -163.78 379.46 C-164.27 359.07 -164.52 338.18 -161 318 C-160.83 316.66 -160.67 315.31 -160.54 313.97 C-160.42 312.89 -160.42 312.89 -160.3 311.78 C-160.22 311.03 -160.14 310.28 -160.06 309.5 C-159.22 301.64 -158.18 293.82 -157 286 C-156.34 286 -155.68 286 -155 286 C-155.5 284.51 -155.5 284.51 -156 283 C-155.62 278.5 -154.93 274.48 -153.6 270.16 C-152.79 267.24 -152.19 264.28 -151.56 261.31 C-147.62 242.62 -147.62 242.62 -146 241 C-145.63 238.67 -145.3 236.34 -145 234 C-144.34 234 -143.68 234 -143 234 C-143.33 233.01 -143.66 232.02 -144 231 C-143.35 229.19 -142.69 227.38 -141.96 225.6 C-140.31 221.12 -139.18 216.49 -137.96 211.88 C-137 209 -137 209 -135 208 C-135.04 207.24 -135.08 206.47 -135.12 205.69 C-135 203 -135 203 -133 200 C-132.42 198.45 -131.88 196.89 -131.38 195.31 C-131.11 194.5 -130.85 193.7 -130.59 192.86 C-130.39 192.25 -130.2 191.63 -130 191 C-129.34 191 -128.68 191 -128 191 C-127.92 189.99 -127.84 188.98 -127.75 187.94 C-127.15 183.61 -125.24 180.71 -123 177 C-122.24 174.73 -122.24 174.73 -122 173 C-121.34 173 -120.68 173 -120 173 C-120.06 172.28 -120.12 171.56 -120.19 170.81 C-119.96 167.44 -119 165.69 -117 163 C-116.34 163 -115.68 163 -115 163 C-115.33 162.01 -115.66 161.02 -116 160 C-115.34 160 -114.68 160 -114 160 C-113.86 159.22 -113.71 158.43 -113.56 157.62 C-113 155 -113 155 -112 153 C-111.34 153 -110.68 153 -110 153 C-110.33 152.01 -110.66 151.02 -111 150 C-110.53 149.59 -110.05 149.18 -109.56 148.75 C-107.84 146.82 -107.43 145.52 -107 143 C-106.34 143 -105.68 143 -105 143 C-104.92 142.32 -104.84 141.64 -104.75 140.94 C-103.78 137.13 -102.04 134.36 -100 131 C-99.34 131 -98.68 131 -98 131 C-97.67 129.35 -97.34 127.7 -97 126 C-96.34 126 -95.68 126 -95 126 C-94.92 125.05 -94.83 124.1 -94.75 123.12 C-94.38 121.58 -94.38 121.58 -94 120 C-92.68 119.32 -91.34 118.65 -90 118 C-89.28 116.02 -88.62 114.02 -88 112 C-87.02 110.98 -86.02 109.98 -85 109 C-84.31 107.83 -83.65 106.64 -83 105.44 C-81 102 -81 102 -78 100 C-77.54 98.82 -77.54 98.82 -77.06 97.62 C-75.53 93.83 -72.85 91.78 -69.88 89.06 C-67.82 86.8 -67.08 84.84 -66 82 C-64.56 80.2 -64.56 80.2 -63 78.69 C-62.48 78.18 -61.97 77.66 -61.44 77.14 C-60 76 -60 76 -58 76 C-57.63 74.64 -57.63 74.64 -57.25 73.25 C-55.95 69.88 -54.78 68.26 -52 66 C-51.34 66 -50.68 66 -50 66 C-49.79 65.15 -49.59 64.31 -49.38 63.44 C-47.69 59.23 -45.34 56.06 -42 53 C-41.34 53 -40.68 53 -40 53 C-39.72 51.73 -39.72 51.73 -39.44 50.44 C-37.78 46.48 -35.74 44.6 -32.66 41.72 C-30.46 39.44 -29.39 36.84 -28 34 C-26.13 31.77 -24.18 29.95 -22 28 C-21.34 28 -20.68 28 -20 28 C-19.66 26.67 -19.66 26.67 -19.31 25.31 C-17.82 21.55 -15.87 19.8 -13 17 C-12.84 16.34 -12.67 15.68 -12.5 15 C-11.7 11.79 -9.37 10.21 -7 8 C-3.77 4.99 -3.77 4.99 -2 1 C-1.34 0.67 -0.68 0.34 0 0 Z M-3 9 C-2 11 -2 11 -2 11 Z M-15 39 C-14 41 -14 41 -14 41 Z M-48 168 C-48 177.57 -48 187.14 -48 197 C-47.67 197 -47.34 197 -47 197 C-46.67 187.43 -46.34 177.86 -46 168 C-46.66 168 -47.32 168 -48 168 Z M-50 239 C-49 242 -49 242 -49 242 Z M-30 367 C-30 368.65 -30 370.3 -30 372 C-29.67 372 -29.34 372 -29 372 C-29 370.35 -29 368.7 -29 367 C-29.33 367 -29.66 367 -30 367 Z M-25 385 C-25 386.98 -25 388.96 -25 391 C-24.67 391 -24.34 391 -24 391 C-24 389.02 -24 387.04 -24 385 C-24.33 385 -24.66 385 -25 385 Z M-15 417 C-14 421 -14 421 -14 421 Z M5 467 C6 471 6 471 6 471 Z M50 552 C51 554 51 554 51 554 Z M60 567 C61 569 61 569 61 569 Z M1078 715 C1077.67 715.66 1077.34 716.32 1077 717 C1077.99 716.67 1078.98 716.34 1080 716 C1079.34 715.67 1078.68 715.34 1078 715 Z M1075 724 C1074.67 724.66 1074.34 725.32 1074 726 C1074.66 726 1075.32 726 1076 726 C1075.67 725.34 1075.34 724.68 1075 724 Z M1060 754 C1061 756 1061 756 1061 756 Z M1016 820 C1016.66 820.66 1017.32 821.32 1018 822 C1018 821.34 1018 820.68 1018 820 C1017.34 820 1016.68 820 1016 820 Z M943 900 C943.33 900.66 943.66 901.32 944 902 C944.33 901.34 944.66 900.68 945 900 C944.34 900 943.68 900 943 900 Z M905 930 C905 930.99 905 931.98 905 933 C905.99 932.67 906.98 932.34 908 932 C907.67 931.34 907.34 930.68 907 930 C906.34 930 905.68 930 905 930 Z " fill="#0067AA" transform="translate(167,202)"/>
<path d="M0 0 C0 3 0 3 -1.94 5.38 C-4.09 8.11 -4.44 9.66 -5 13 C-5.66 13.33 -6.32 13.66 -7 14 C-7.66 16.53 -7.66 16.53 -8 19 C-8.66 19 -9.32 19 -10 19 C-10.19 20.08 -10.19 20.08 -10.38 21.19 C-10.99 23.96 -11.88 26.4 -13 29 C-13.66 29 -14.32 29 -15 29 C-14.96 29.93 -14.92 30.86 -14.88 31.81 C-15 35 -15 35 -17 38 C-17.99 38 -18.98 38 -20 38 C-19.34 38.33 -18.68 38.66 -18 39 C-18.38 40.94 -18.38 40.94 -19 43 C-19.99 43.5 -19.99 43.5 -21 44 C-21.61 47.32 -21.96 50.64 -22.34 54 C-23 57 -23 57 -26 59 C-26.47 60.93 -26.47 60.93 -26.5 63.12 C-26.86 67.89 -28.19 71.59 -30 76 C-30 76.33 -30 76.66 -30 77 C-31 83.68 -32.41 89.75 -35 96 C-35.33 96 -35.66 96 -36 96 C-35.98 96.97 -35.96 97.94 -35.94 98.94 C-36 102 -36 102 -37 103 C-37.03 105.17 -36.93 107.32 -36.84 109.48 C-37 112 -37 112 -37.97 114.89 C-39.08 118.23 -39.37 121.12 -39.56 124.62 C-39.84 129.45 -40.48 133.44 -42 138 C-42.1 140.59 -42.15 143.14 -42.15 145.73 C-42.15 146.51 -42.15 147.3 -42.16 148.11 C-42.16 150.71 -42.17 153.31 -42.17 155.91 C-42.17 157.71 -42.17 159.52 -42.18 161.32 C-42.18 165.1 -42.19 168.89 -42.19 172.67 C-42.19 177.52 -42.2 182.37 -42.22 187.23 C-42.23 190.95 -42.23 194.68 -42.23 198.41 C-42.23 200.19 -42.23 201.98 -42.24 203.77 C-42.25 206.27 -42.25 208.77 -42.24 211.27 C-42.25 212.01 -42.25 212.76 -42.26 213.52 C-42.24 217.24 -42.12 218.82 -40 222 C-39.75 224.24 -39.6 226.5 -39.5 228.75 C-39.21 233.83 -38.47 238.12 -37 243 C-36.26 248.37 -35.95 253.65 -36.12 259.06 C-36.08 260.36 -36.04 261.66 -36 263 C-35.01 263.66 -34.02 264.32 -33 265 C-32.27 267.36 -32.27 267.36 -31.81 270.19 C-31.65 271.17 -31.49 272.15 -31.33 273.16 C-31.05 275.53 -30.96 277.69 -31.06 280.06 C-31.04 281.03 -31.02 282 -31 283 C-30.01 283.66 -29.02 284.32 -28 285 C-26.84 288.47 -26.93 291.36 -27 295 C-26.34 295 -25.68 295 -25 295 C-24.92 295.97 -24.83 296.94 -24.75 297.94 C-24.2 301.86 -22.73 305.04 -21.05 308.6 C-19.62 311.87 -18.66 315.21 -17.71 318.64 C-16.95 321.17 -15.99 323.56 -15 326 C-14.02 328.76 -13.06 331.52 -12.1 334.28 C-10.97 337.06 -9.58 339.46 -8 342 C-5.7 346.89 -4.14 351.75 -2.75 356.96 C-2.2 359.19 -2.2 359.19 0 360 C-0.33 360.66 -0.66 361.32 -1 362 C-0.03 362.97 0.98 363.89 2 364.81 C4.13 367.14 4.35 368.04 5 371 C5.46 372.4 5.94 373.8 6.44 375.19 C6.68 375.88 6.93 376.58 7.18 377.29 C7.88 379.2 7.88 379.2 10 380 C10.12 380.58 10.25 381.15 10.38 381.75 C10.88 384.16 10.88 384.16 12.81 386.25 C16.04 390.31 19 394.71 19 400 C18.67 400.33 18.34 400.66 18 401 C18.99 401 19.98 401 21 401 C23.81 404.08 25.9 407.41 28 411 C28.68 411.99 29.36 412.98 30.06 414 C32 417 32 417 33.06 419.69 C33.84 422.03 33.84 422.03 35.5 423.5 C37 425 37 425 37.88 427.31 C39.36 430.85 41.46 433.13 44 436 C43.67 436.66 43.34 437.32 43 438 C43.56 438.23 44.11 438.45 44.69 438.69 C49.99 441.7 52.35 445.7 55 451 C56.87 453.45 58.93 455.72 61 458 C62.27 459.41 63.55 460.83 64.81 462.25 C65.4 462.89 65.98 463.54 66.58 464.2 C68 466 68 466 69 469 C69.66 469 70.32 469 71 469 C71 469.99 71 470.98 71 472 C72.61 473.77 74.25 475.37 76 477 C77.33 478.31 78.65 479.62 79.96 480.93 C80.7 481.67 81.44 482.4 82.21 483.16 C85.54 486.46 88.86 489.77 92.19 493.08 C93.94 494.82 95.7 496.57 97.47 498.32 C100.01 500.83 102.55 503.36 105.08 505.89 C106.27 507.06 106.27 507.06 107.49 508.26 C108.21 508.98 108.94 509.71 109.68 510.46 C110.33 511.09 110.97 511.73 111.63 512.39 C113 514 113 514 113 516 C113.55 516.22 114.1 516.44 114.66 516.66 C118.32 518.76 120.97 521.89 123.85 524.92 C126.7 527.88 129.46 529.96 133 532 C134.92 533.53 136.82 535.1 138.69 536.69 C139.75 537.58 140.8 538.47 141.86 539.36 C142.39 539.81 142.91 540.25 143.46 540.71 C148.17 544.65 152.88 548.59 158 552 C161.73 554.49 165.1 557.32 168.54 560.2 C170.98 561.98 173.2 562.91 176 564 C177.69 565.65 179.36 567.31 181 569 C181.66 569 182.32 569 183 569 C183 569.66 183 570.32 183 571 C183.99 571 184.98 571 186 571 C186.66 571.66 187.32 572.32 188 573 C188.99 573.33 189.98 573.66 191 574 C191 574.66 191 575.32 191 576 C191.54 576.27 192.07 576.54 192.62 576.81 C193.8 577.4 193.8 577.4 195 578 C196.58 578.74 196.58 578.74 198.19 579.5 C201 581 201 581 202 583 C203.98 583.72 205.98 584.38 208 585 C208.66 585.33 209.32 585.66 210 586 C210 586.66 210 587.32 210 588 C210.87 588.29 211.73 588.58 212.62 588.88 C213.74 589.25 214.85 589.62 216 590 C217.07 590.31 218.14 590.62 219.25 590.94 C222 592 222 592 224 595 C226.06 595.72 226.06 595.72 228 596 C228 596.66 228 597.32 228 598 C229.09 598.31 230.19 598.62 231.31 598.94 C233.55 599.58 235.79 600.26 238 601 C238 601.66 238 602.32 238 603 C239 603.26 239.99 603.51 241.02 603.78 C245.14 604.96 248.9 606.69 252.75 608.56 C257.78 611 257.78 611 263 613 C263 613.66 263 614.32 263 615 C265.31 615.33 267.62 615.66 270 616 C270 616.66 270 617.32 270 618 C270.99 617.67 271.98 617.34 273 617 C275.53 618.11 275.53 618.11 278.5 619.75 C284.2 622.74 289.73 624.59 296 626 C296 626.66 296 627.32 296 628 C296.94 628.1 297.89 628.19 298.86 628.29 C303.86 629.01 308.5 630.72 313.25 632.38 C320.45 634.83 327.61 637.17 335 639 C335.96 639.24 336.91 639.48 337.9 639.73 C339.92 640.24 341.94 640.75 343.96 641.25 C345.99 641.75 348.02 642.26 350.04 642.79 C355.97 644.31 361.86 645.56 367.92 646.47 C368.61 646.65 369.29 646.82 370 647 C370.33 647.66 370.66 648.32 371 649 C373.61 649.4 373.61 649.4 376.75 649.5 C394.15 650.58 394.15 650.58 399 653 C421.75 656.9 445.19 656.28 468.19 656.25 C469.32 656.25 469.32 656.25 470.47 656.25 C474.9 656.25 479.33 656.24 483.77 656.21 C485.78 656.2 487.79 656.2 489.8 656.19 C504.24 656.88 504.24 656.88 518 654 C521.23 653.74 524.45 653.56 527.68 653.39 C531.13 653.5 531.13 653.5 534 652 C535.63 651.67 537.28 651.39 538.93 651.13 C539.94 650.97 540.96 650.81 542.01 650.64 C543.65 650.39 543.65 650.39 545.31 650.12 C552.84 648.91 560.24 647.65 567.6 645.65 C570.01 645 572.43 644.46 574.88 643.94 C579.16 643 583.24 641.74 587.29 640.03 C591.19 638.55 595.2 637.71 599.26 636.78 C602.18 636.1 602.18 636.1 605 634 C608.19 633.88 608.19 633.88 611 634 C611 633.34 611 632.68 611 632 C612.65 632 614.3 632 616 632 C616 631.34 616 630.68 616 630 C617.25 629.49 618.5 628.99 619.75 628.5 C620.45 628.22 621.14 627.94 621.86 627.66 C624 627 624 627 628 627 C628 626.34 628 625.68 628 625 C630.64 624.67 633.28 624.34 636 624 C636 623.34 636 622.68 636 622 C642.62 619 642.62 619 646 619 C646 618.34 646 617.68 646 617 C652.62 614 652.62 614 656 614 C656 613.34 656 612.68 656 612 C662.62 609 662.62 609 666 609 C666 608.34 666 607.68 666 607 C671.75 604 671.75 604 674 604 C674 603.34 674 602.68 674 602 C674.7 601.75 675.4 601.5 676.12 601.25 C679.38 599.84 682.09 598.02 685 596 C688 594 688 594 691 594 C691 593.34 691 592.68 691 592 C692.83 590.63 692.83 590.63 695.25 589.12 C698.58 586.99 701.25 584.85 704 582 C705.67 581 707.33 580 709 579 C709.64 578.34 710.28 577.68 710.94 577 C713 575 713 575 715.78 573.72 C719.38 571.8 721.88 569.39 724.62 566.44 C730.19 560.51 730.19 560.51 734 559 C734 558.34 734 557.68 734 557 C734.69 556.59 735.38 556.19 736.09 555.77 C739.78 553.52 742.54 550.75 745.56 547.69 C746.13 547.13 746.69 546.58 747.27 546 C749.84 543.42 752 541 754.02 537.96 C756.75 533.87 760.18 530.76 763.75 527.41 C766.85 524.43 768.58 522.03 770 518 C771.44 516.2 771.44 516.2 773 514.69 C773.52 514.18 774.03 513.66 774.56 513.14 C776 512 776 512 778 512 C778.33 510.35 778.66 508.7 779 507 C779.66 507.33 780.32 507.66 781 508 C781.54 518.24 781.54 518.24 778 523 C777.67 523.83 777.34 524.65 777 525.5 C776 528 776 528 774.56 530.31 C772.88 533.21 771.82 536.07 770.75 539.23 C770 541 770 541 768 543 C767.45 544.31 766.96 545.65 766.5 547 C765.57 549.74 765.09 550.91 763 553 C762.45 554.31 761.96 555.65 761.5 557 C760.57 559.74 760.09 560.91 758 563 C757.01 563 756.02 563 755 563 C755.66 563.33 756.32 563.66 757 564 C757 564.99 757 565.98 757 567 C756.38 567.45 755.76 567.91 755.12 568.38 C752.56 570.34 752.1 572.02 751 575 C750.34 575.33 749.68 575.66 749 576 C748.86 576.66 748.71 577.32 748.56 578 C748.38 578.66 748.19 579.32 748 580 C747.01 580.33 746.02 580.66 745 581 C744.92 581.95 744.84 582.9 744.75 583.88 C744.5 584.91 744.26 585.94 744 587 C742.68 587.7 741.35 588.37 740 589 C739.84 589.83 739.67 590.65 739.5 591.5 C739.34 592.33 739.17 593.15 739 594 C738.34 594.31 737.68 594.62 737 594.94 C736.34 595.29 735.68 595.64 735 596 C734.63 597.99 734.29 599.99 734 602 C733.01 602.66 732.02 603.32 731 604 C729.09 605.91 728.18 608.6 727 611 C726.67 610.34 726.34 609.68 726 609 C725.01 609 724.02 609 723 609 C723.66 610.32 724.32 611.64 725 613 C724.53 613.52 724.06 614.04 723.57 614.57 C720.33 618.21 717.3 621.66 715 626 C714.34 625.67 713.68 625.34 713 625 C712.34 626.65 711.68 628.3 711 630 C710.01 629.67 709.02 629.34 708 629 C707.34 630.98 706.68 632.96 706 635 C705.01 634.67 704.02 634.34 703 634 C702.73 634.93 702.46 635.86 702.19 636.81 C701.03 639.92 700.33 640.85 698 643 C697.58 643.74 697.17 644.48 696.74 645.24 C694.72 648.44 692.3 650.99 689.62 653.62 C689.16 654.1 688.69 654.58 688.2 655.07 C685.35 657.91 682.51 660.05 679 662 C678.3 662.56 677.6 663.11 676.88 663.69 C675 665 675 665 672 665 C671.67 666.65 671.34 668.3 671 670 C670.01 669.67 669.02 669.34 668 669 C668 669.99 668 670.98 668 672 C665.16 675.39 661.78 677.75 658 680 C655 680 655 680 653 679 C653.66 680.32 654.32 681.64 655 683 C650.78 686.48 646.36 689.35 641.72 692.22 C639 694 636.5 695.93 634 698 C634 697.34 634 696.68 634 696 C633.01 696 632.02 696 631 696 C631.33 696.99 631.66 697.98 632 699 C631.34 699.33 630.68 699.66 630 700 C629.34 699.67 628.68 699.34 628 699 C627.75 699.6 627.51 700.2 627.25 700.81 C625.8 703.36 624.52 704.52 622 706 C620.68 706 619.36 706 618 706 C617.75 706.64 617.51 707.28 617.25 707.94 C616 710 616 710 613.94 710.62 C612.98 710.81 612.98 710.81 612 711 C611.67 711.66 611.34 712.32 611 713 C609.02 713.73 607.02 714.39 605 715 C601.88 715.65 601.88 715.65 601 718 C599.02 718.73 597.02 719.39 595 720 C591.88 720.65 591.88 720.65 591 723 C589.02 723.73 587.02 724.39 585 725 C581.88 725.65 581.88 725.65 581 728 C579.02 728.73 577.02 729.39 575 730 C571.88 730.65 571.88 730.65 571 733 C564.77 736 564.77 736 561 736 C561 735.34 561 734.68 561 734 C560.01 734 559.02 734 558 734 C558.66 734.33 559.32 734.66 560 735 C560 735.66 560 736.32 560 737 C559.18 737.31 558.36 737.63 557.51 737.95 C555.83 738.6 555.83 738.6 554.12 739.25 C552.33 739.94 552.33 739.94 550.5 740.64 C547.67 741.74 544.87 742.89 542.06 744.06 C534.27 747.2 526.09 749.39 517.88 751.12 C514.23 751.78 514.23 751.78 512.02 753.03 C509.8 754.09 508.2 754.29 505.75 754.44 C502.62 754.72 500.08 755.23 497.19 756.44 C492.76 758.27 488.26 758.89 483.54 759.57 C481.02 759.87 481.02 759.87 479 761 C477.42 761.18 475.84 761.32 474.25 761.44 C471.28 761.7 468.95 762.02 466.12 763 C462.01 764.32 458.01 764.49 453.71 764.75 C450.9 764.9 450.9 764.9 448 766 C446.53 766.13 445.06 766.22 443.59 766.28 C442.74 766.32 441.9 766.36 441.03 766.39 C439.25 766.47 437.47 766.54 435.7 766.61 C434.85 766.64 434.01 766.68 433.15 766.72 C431.99 766.76 431.99 766.76 430.81 766.81 C428.98 766.81 428.98 766.81 428 768 C422.44 768.87 417.02 769.15 411.4 769.15 C410.17 769.15 410.17 769.15 408.92 769.16 C406.24 769.16 403.55 769.17 400.87 769.17 C398.99 769.17 397.12 769.17 395.24 769.18 C391.31 769.18 387.39 769.19 383.47 769.19 C378.45 769.19 373.43 769.2 368.41 769.22 C364.53 769.23 360.66 769.23 356.79 769.23 C354.94 769.23 353.09 769.23 351.24 769.24 C348.65 769.25 346.06 769.25 343.47 769.24 C342.71 769.25 341.96 769.25 341.18 769.26 C336.46 769.23 332.53 768.45 328 767 C325.51 766.65 325.51 766.65 323.16 766.59 C322.33 766.55 321.49 766.51 320.63 766.47 C319.78 766.44 318.94 766.41 318.06 766.38 C317.19 766.34 316.31 766.3 315.41 766.26 C313.28 766.16 311.14 766.08 309 766 C309 765.34 309 764.68 309 764 C307.99 764.19 306.98 764.37 305.94 764.56 C297.18 765.66 288.32 764.82 280 762 C277.92 761.75 275.84 761.56 273.75 761.44 C268.2 761.1 268.2 761.1 266 760 C262.92 759.52 259.84 759.1 256.75 758.7 C254 758 254 758 252 755 C249.71 754.49 249.71 754.49 247.12 754.44 C243.5 754.26 241.18 753.74 238 752 C235.67 751.33 233.33 750.66 231 750 C228.27 749.1 225.66 748.1 223 747 C222.67 746.34 222.34 745.68 222 745 C219.84 744.64 219.84 744.64 217.31 744.56 C212.9 744.22 209.87 743.23 206 741 C205.34 741 204.68 741 204 741 C204 740.34 204 739.68 204 739 C202.82 738.92 201.65 738.84 200.44 738.75 C195.8 738.19 192.96 736.42 189 734 C187.89 733.65 186.77 733.3 185.62 732.94 C184.76 732.63 183.89 732.32 183 732 C182.67 731.01 182.34 730.02 182 729 C181.01 729.33 180.02 729.66 179 730 C176.73 729.11 176.73 729.11 174.19 727.75 C173.31 727.28 172.42 726.82 171.52 726.34 C170.69 725.9 169.86 725.45 169 725 C167.82 724.46 166.65 723.93 165.44 723.38 C163 722 163 722 162 719 C161.67 719.66 161.34 720.32 161 721 C160.34 721 159.68 721 159 721 C158.67 720.34 158.34 719.68 158 719 C157.17 718.69 156.35 718.38 155.5 718.06 C154.67 717.71 153.85 717.36 153 717 C152.67 716.01 152.34 715.02 152 714 C151.01 714.33 150.02 714.66 149 715 C146.06 713.69 146.06 713.69 143 712 C140.81 710.88 138.6 709.81 136.37 708.77 C129.75 705.62 123.98 702.03 118.18 697.54 C116.17 695.81 116.17 695.81 114 696 C114 695.34 114 694.68 114 694 C113.07 693.73 112.14 693.46 111.19 693.19 C108.11 692.04 107.17 691.27 105 689 C104.36 688.86 103.72 688.71 103.06 688.56 C100.23 687.79 99.03 686.09 97 684 C95.34 682.99 93.67 681.99 92 681 C90.06 679.59 88.16 678.14 86.26 676.68 C82.97 674.23 79.59 671.93 76.2 669.61 C74 668 74 668 72.52 666.48 C70.97 664.85 70.97 664.85 68.58 663.59 C64.98 661.37 62.44 658.43 59.57 655.35 C57.43 653.4 55.65 652.13 53.18 650.68 C48.56 647.9 45.07 644.34 41.38 640.44 C40.12 639.12 38.85 637.8 37.59 636.5 C36.77 635.63 36.77 635.63 35.93 634.75 C33.93 632.85 33.93 632.85 31.1 631.09 C27.98 628.98 25.48 626.74 22.82 624.09 C21.43 622.7 21.43 622.7 20.01 621.28 C19.54 620.8 19.06 620.33 18.58 619.84 C17.11 618.36 15.64 616.9 14.17 615.45 C13.25 614.52 12.33 613.6 11.38 612.65 C10.54 611.8 9.7 610.96 8.83 610.09 C7 608 7 608 7 606 C6.01 605.67 5.02 605.34 4 605 C3.55 604.22 3.09 603.43 2.62 602.62 C1.21 599.88 1.21 599.88 -1.31 598.69 C-4.59 596.63 -6.17 594.24 -8.39 591.11 C-10 589.01 -11.7 587.26 -13.62 585.44 C-16.92 582.26 -18.92 579.07 -21 575 C-21.66 575 -22.32 575 -23 575 C-23.47 574.11 -23.47 574.11 -23.95 573.21 C-25.9 569.62 -27.75 566.31 -30.31 563.12 C-32 561 -32 561 -32 558 C-32.66 558 -33.32 558 -34 558 C-35.63 555.91 -37.14 553.82 -38.62 551.62 C-39.05 551.02 -39.47 550.42 -39.9 549.8 C-43 545.27 -43 545.27 -43 543 C-43.66 542.67 -44.32 542.34 -45 542 C-45.98 540.68 -46.91 539.32 -47.81 537.94 C-48.61 536.72 -48.61 536.72 -49.41 535.48 C-51.64 532 -53.83 528.51 -56 525 C-56.87 523.64 -56.87 523.64 -57.75 522.25 C-58.93 520.13 -59.42 518.33 -60 516 C-60.66 515.67 -61.32 515.34 -62 515 C-63.29 513.22 -63.29 513.22 -64.62 511.06 C-65.29 510 -65.29 510 -65.98 508.91 C-67 507 -67 507 -67 505 C-67.66 504.67 -68.32 504.34 -69 504 C-70 502.29 -70 502.29 -71 500.19 C-71.5 499.16 -71.5 499.16 -72 498.11 C-72.33 497.41 -72.66 496.72 -73 496 C-73.37 495.32 -73.74 494.63 -74.12 493.93 C-75 492 -75 492 -75 489 C-75.66 488.67 -76.32 488.34 -77 488 C-78.06 486.03 -79.04 484.02 -80 482 C-80.83 480.35 -81.66 478.71 -82.5 477.06 C-88 466.01 -88 466.01 -88 461 C-88.66 460.67 -89.32 460.34 -90 460 C-93.02 454.55 -94.98 448.48 -97.06 442.63 C-97.87 440.37 -98.71 438.12 -99.56 435.88 C-103.73 424.8 -106.96 413.42 -110 402 C-110.21 401.24 -110.42 400.48 -110.63 399.7 C-111.61 396.06 -112.24 392.78 -112 389 C-112.66 388.67 -113.32 388.34 -114 388 C-114.56 385.92 -114.56 385.92 -115 383.19 C-115.16 382.2 -115.33 381.21 -115.5 380.19 C-115.66 379.14 -115.83 378.09 -116 377 C-116.35 374.87 -116.71 372.75 -117.06 370.62 C-117.22 369.67 -117.37 368.71 -117.54 367.73 C-117.82 366.05 -118.13 364.37 -118.46 362.71 C-120.62 351.82 -122.23 340.88 -122.79 329.79 C-122.9 327.14 -122.9 327.14 -123.49 325.18 C-124.1 322.56 -124.22 320.1 -124.32 317.41 C-124.38 315.78 -124.38 315.78 -124.44 314.12 C-124.48 312.96 -124.52 311.81 -124.56 310.62 C-124.6 309.44 -124.65 308.25 -124.69 307.03 C-125.11 294.42 -125 281.92 -124.56 269.31 C-124.52 268.15 -124.48 266.99 -124.44 265.79 C-124.4 264.7 -124.36 263.61 -124.32 262.49 C-124.28 261.5 -124.24 260.52 -124.21 259.51 C-124 257 -124 257 -123 254 C-122.8 251.71 -122.64 249.42 -122.5 247.12 C-122.25 242.98 -121.88 239.06 -121 235 C-120.64 232.73 -120.28 230.46 -119.94 228.19 C-119.76 227.03 -119.58 225.86 -119.4 224.67 C-119.2 223.35 -119.2 223.35 -119 222 C-118.34 222 -117.68 222 -117 222 C-117.33 221.01 -117.66 220.02 -118 219 C-117.38 212.22 -115.73 205.72 -113.66 199.25 C-112.77 196.21 -112.44 193.13 -112 190 C-111.69 189.39 -111.38 188.78 -111.06 188.16 C-109.8 185.6 -109.25 183.15 -108.62 180.38 C-107.44 175.44 -105.88 170.92 -103.91 166.25 C-102.69 163.23 -101.86 160.14 -101 157 C-100.36 155.32 -99.7 153.65 -99 152 C-98.34 152 -97.68 152 -97 152 C-97.06 151.32 -97.12 150.64 -97.19 149.94 C-96.94 146.08 -95.64 143.49 -94 140 C-93.34 140 -92.68 140 -92 140 C-91.88 139.28 -91.75 138.56 -91.62 137.81 C-91.01 135.04 -90.12 132.6 -89 130 C-88.34 130 -87.68 130 -87 130 C-86.88 129.28 -86.75 128.56 -86.62 127.81 C-86.01 125.04 -85.12 122.6 -84 120 C-83.34 120 -82.68 120 -82 120 C-81.83 119.41 -81.66 118.82 -81.48 118.21 C-79.98 113.29 -78.38 109.95 -75 106 C-74.65 104.67 -74.31 103.34 -74 102 C-73.02 100.98 -72.02 99.98 -71 99 C-70.32 97.68 -69.65 96.34 -69 95 C-68 93.67 -67 92.33 -66 91 C-65.3 89.68 -64.63 88.35 -64 87 C-63.34 87 -62.68 87 -62 87 C-61.5 85.51 -61.5 85.51 -61 84 C-59.66 81.56 -58.46 79.44 -56.44 77.5 C-54.81 75.99 -54.81 75.99 -54 73.44 C-53 71 -53 71 -50 69 C-49.32 67.34 -48.65 65.67 -48 64 C-47 63 -46 62 -45 61 C-44.34 59.82 -43.69 58.63 -43.06 57.44 C-41.4 54.37 -40.14 53.52 -37 52 C-36.62 50.34 -36.29 48.68 -36 47 C-35.02 45.98 -34.02 44.98 -33 44 C-32.54 42.73 -32.54 42.73 -32.06 41.44 C-31 39 -31 39 -29 38.06 C-26.68 37.13 -26.68 37.13 -26.06 34.19 C-24.79 30.37 -22.84 28.77 -20 26 C-19.64 24.67 -19.3 23.34 -19 22 C-17.69 20.65 -16.35 19.31 -15 18 C-14.5 16.52 -14.5 16.52 -14 15 C-12 13.37 -12 13.37 -10 12 C-9.67 11.67 -9.34 11.34 -9 11 C-9 9.68 -9 8.36 -9 7 C-7.82 6.88 -7.82 6.88 -6.62 6.75 C-3.87 6.28 -3.87 6.28 -2.81 4.06 C-2.54 3.38 -2.28 2.7 -2 2 C-1.34 1.34 -0.68 0.68 0 0 Z M-10 14 C-9 18 -9 18 -9 18 Z M-22 311 C-21 315 -21 315 -21 315 Z M768 538 C769 540 769 540 769 540 Z M763 548 C764 550 764 550 764 550 Z M661 674 C661.33 674.66 661.66 675.32 662 676 C662.33 675.34 662.66 674.68 663 674 C662.34 674 661.68 674 661 674 Z M649 684 C649.33 684.66 649.66 685.32 650 686 C650.33 685.34 650.66 684.68 651 684 C650.34 684 649.68 684 649 684 Z " fill="#0067AA" transform="translate(499,83)"/>
<path d="M0 0 C1.56 1.06 1.56 1.06 3 3 C2.78 7.18 2.34 9.49 0 13 C-0.99 13 -1.98 13 -3 13 C-2.01 13.5 -2.01 13.5 -1 14 C-1 14.99 -1 15.98 -1 17 C-1.66 17 -2.32 17 -3 17 C-3 19.31 -3 21.62 -3 24 C-3.66 24 -4.32 24 -5 24 C-5.04 24.63 -5.07 25.26 -5.11 25.91 C-5.5 30.97 -6.27 35.11 -8.24 39.78 C-9.55 43.6 -10 47.57 -10.57 51.56 C-11 54 -11 54 -12 55 C-12.21 57.61 -12.38 60.2 -12.5 62.81 C-12.76 68.19 -13.3 72.89 -15 78 C-15.1 80.46 -15.14 82.88 -15.13 85.34 C-15.13 86.05 -15.13 86.77 -15.14 87.51 C-15.14 89.02 -15.13 90.54 -15.13 92.05 C-15.13 94.36 -15.13 96.67 -15.14 98.98 C-15.14 100.45 -15.13 101.92 -15.13 103.4 C-15.13 104.09 -15.14 104.77 -15.14 105.48 C-15.12 109.11 -14.86 112.47 -14 116 C-13.67 116 -13.34 116 -13 116 C-12.95 117 -12.9 118 -12.85 119.04 C-12.78 120.38 -12.7 121.72 -12.62 123.06 C-12.52 125.03 -12.52 125.03 -12.41 127.04 C-12.01 130.9 -11.11 134.28 -10 138 C-10 140 -10 142 -10 144 C-9.34 144.99 -8.68 145.98 -8 147 C-7.69 148.95 -7.69 148.95 -7.56 151.12 C-7.06 156.72 -5.51 161.97 -3 167 C-3.02 167.99 -3.04 168.98 -3.06 170 C-3.34 173.12 -3.34 173.12 -1 175 C-0.31 177.33 0.35 179.66 1 182 C1.33 182.66 1.66 183.32 2 184 C3.7 187.39 5 191.19 5 195 C5.66 195 6.32 195 7 195 C7.1 195.54 7.21 196.07 7.31 196.62 C7.97 199.16 7.97 199.16 9.5 201.94 C10.86 204.72 11.55 206.96 12 210 C12.66 210 13.32 210 14 210 C14.12 210.57 14.23 211.14 14.36 211.73 C15.05 214.19 16.04 216.1 17.31 218.31 C17.98 219.49 17.98 219.49 18.66 220.69 C19.49 222.12 20.32 223.54 21.15 224.96 C22.64 227.52 23.99 229.99 25.06 232.75 C25.84 235.04 25.84 235.04 27.5 236.44 C29 238 29 238 29.81 240.75 C31.16 244.44 32.96 246.48 35.56 249.36 C37.37 251.42 38.64 253.62 40 256 C41.97 259.02 43.99 262.01 46 265 C46.99 266.49 46.99 266.49 48 268 C50.33 271.11 52.82 273.82 55.62 276.5 C58.38 279.18 59.71 281.35 61 285 C61.99 285.33 62.98 285.66 64 286 C64.67 287.33 65.33 288.67 66 290 C67.1 291.13 68.2 292.25 69.32 293.35 C71.42 295.41 73.48 297.51 75.54 299.61 C77.23 301.32 78.93 303.04 80.62 304.75 C81.48 305.63 82.34 306.5 83.23 307.4 C84.05 308.23 84.88 309.07 85.73 309.92 C86.48 310.68 87.22 311.44 87.99 312.22 C89.97 314.21 89.97 314.21 93 315 C93.27 315.62 93.54 316.24 93.81 316.88 C95.52 319.92 97.87 320.64 101 322 C101 322.66 101 323.32 101 324 C101.56 324.25 102.11 324.5 102.69 324.75 C105.4 326.22 107.62 328.05 110 330 C110.66 330.33 111.32 330.66 112 331 C112 331.66 112 332.32 112 333 C114.33 334.21 116.5 335.17 119 336 C119 336.66 119 337.32 119 338 C119.78 338.31 120.57 338.62 121.38 338.94 C124 340 124 340 126 341 C126 341.66 126 342.32 126 343 C126.78 343.12 127.57 343.25 128.38 343.38 C131 344 131 344 133 346 C133.33 346.66 133.66 347.32 134 348 C136.63 349.17 139.27 350.09 142 351 C142 351.66 142 352.32 142 353 C143.65 353.33 145.3 353.66 147 354 C147 354.66 147 355.32 147 356 C147.58 356.12 148.17 356.25 148.77 356.38 C151.01 357 152.7 357.83 154.71 359 C155.74 359.59 155.74 359.59 156.79 360.19 C157.86 360.81 157.86 360.81 158.94 361.44 C163.22 363.92 167.35 366.27 172 368 C174.25 368.98 176.5 369.96 178.75 370.94 C183.39 372.95 188.03 374.77 192.86 376.29 C195.29 377.09 197.63 378.03 200 379 C204.61 380.87 209.26 382.49 214 384 C214.95 384.32 215.91 384.64 216.89 384.97 C224.33 387.39 231.68 388.99 239.37 390.29 C243 391 243 391 245.85 391.98 C248.95 392.98 251.88 393.58 255.1 394.07 C256.79 394.33 256.79 394.33 258.53 394.6 C260.28 394.86 260.28 394.86 262.06 395.12 C263.82 395.4 263.82 395.4 265.61 395.68 C272.77 396.76 272.77 396.76 280 397 C280 397.66 280 398.32 280 399 C281.68 398.98 281.68 398.98 283.4 398.96 C284.91 398.96 286.43 398.95 287.94 398.94 C288.67 398.93 289.41 398.92 290.17 398.91 C293.86 398.9 297.44 399.01 301.11 399.5 C307.13 400.23 313.17 400.15 319.22 400.13 C321.26 400.12 323.3 400.13 325.34 400.14 C326.63 400.14 327.93 400.13 329.27 400.13 C330.44 400.13 331.61 400.13 332.82 400.13 C335.68 400.01 338.21 399.61 341 399 C343.65 398.85 346.29 398.73 348.94 398.62 C355.97 398.3 362.41 397.25 369.24 395.52 C372 395 372 395 375 396 C375 395.34 375 394.68 375 394 C376.13 393.9 377.27 393.79 378.44 393.69 C382.58 393.19 386.23 392 390.12 390.52 C392 390 392 390 394 391 C394 390.34 394 389.68 394 389 C395.55 388.6 395.55 388.6 397.12 388.19 C399.72 387.46 401.64 386.66 404.06 385.38 C407.31 383.86 409.46 383.75 413 384 C413 383.34 413 382.68 413 382 C419.62 379 419.62 379 423 379 C423 378.34 423 377.68 423 377 C429.62 374 429.62 374 433 374 C433 373.34 433 372.68 433 372 C434.57 370.82 434.57 370.82 436.69 369.56 C437.42 369.13 438.14 368.69 438.89 368.24 C439.59 367.83 440.28 367.42 441 367 C441.95 366.4 442.9 365.8 443.88 365.19 C446 364 446 364 448 364 C448.27 363.4 448.54 362.8 448.81 362.19 C450.51 359.06 451.89 357.39 455.29 356.2 C458.56 354.75 460.45 352.92 462.98 350.39 C463.89 349.47 464.81 348.55 465.76 347.6 C466.46 346.88 466.46 346.88 467.18 346.15 C468.62 344.69 470.07 343.25 471.52 341.81 C475.59 337.7 479.05 333.99 482 329 C482.66 328.67 483.32 328.34 484 328 C484.66 327.01 485.32 326.02 486 325 C486.66 325.66 487.32 326.32 488 327 C486.8 332.08 485.46 334.98 482 339 C481.67 339.99 481.34 340.98 481 342 C480.34 342 479.68 342 479 342 C479 342.66 479 343.32 479 344 C478.34 344 477.68 344 477 344 C476.9 344.93 476.79 345.86 476.69 346.81 C475.95 350.22 475.49 350.8 473 353 C472.48 353.89 471.97 354.77 471.44 355.69 C470.73 356.83 470.73 356.83 470 358 C469.34 358 468.68 358 468 358 C467.67 358.66 467.34 359.32 467 360 C467.66 360.33 468.32 360.66 469 361 C467.38 362.71 465.71 364.37 464 366 C463.34 366 462.68 366 462 366 C461.9 366.95 461.79 367.9 461.69 368.88 C461 372 461 372 458 374 C456.57 375.43 455.72 377.13 454.69 378.88 C452.75 382.01 451.07 383.92 448 386 C446.64 387.64 445.3 389.31 444 391 C443.34 391.66 442.68 392.32 442 393 C441.34 392.67 440.68 392.34 440 392 C440.23 392.76 440.45 393.53 440.69 394.31 C441 397 441 397 439.69 398.81 C438 400 438 400 436 400 C436 400.66 436 401.32 436 402 C434.42 403.23 432.78 404.38 431.12 405.5 C425.84 409.22 421.48 413.36 417.09 418.09 C415 420 415 420 412 420 C412 420.66 412 421.32 412 422 C409.36 423.78 407.03 424.99 404 426 C404.33 426.66 404.66 427.32 405 428 C403.82 428.4 403.82 428.4 402.62 428.81 C399.72 429.85 399.72 429.85 398 433 C396.35 433.7 394.68 434.36 393 435 C390.67 436.52 388.43 438.13 386.18 439.76 C384 441 384 441 380 441 C380 441.66 380 442.32 380 443 C374.25 445 374.25 445 372 445 C371.34 445.99 370.68 446.98 370 448 C367.68 449.03 367.68 449.03 364.88 449.94 C361.47 451.1 358.28 452.28 355.12 454 C347.99 457.73 339.94 459.82 332 461 C332 460.34 332 459.68 332 459 C328.96 460.67 328.96 460.67 328 463 C324.99 464 322.96 464.1 319.81 464.06 C318.91 464.05 318.01 464.04 317.08 464.04 C316.05 464.02 316.05 464.02 315 464 C315 464.66 315 465.32 315 466 C314.28 466.05 313.55 466.1 312.8 466.15 C311.35 466.26 311.35 466.26 309.88 466.38 C308.92 466.44 307.97 466.51 306.99 466.59 C303.99 466.89 303.99 466.89 301.28 468 C296.76 469.38 292.39 469.42 287.69 469.56 C285.88 469.62 284.07 469.69 282.26 469.75 C281.47 469.78 280.67 469.8 279.85 469.83 C277.98 469.8 277.98 469.8 277 471 C275.63 471.1 274.25 471.13 272.88 471.13 C272 471.13 271.13 471.14 270.23 471.14 C268.8 471.14 268.8 471.14 267.35 471.13 C266.38 471.13 265.41 471.13 264.41 471.14 C262.35 471.14 260.29 471.13 258.24 471.13 C255.08 471.13 251.92 471.13 248.77 471.14 C246.77 471.14 244.78 471.13 242.79 471.13 C241.84 471.13 240.89 471.14 239.91 471.14 C239.03 471.14 238.15 471.13 237.25 471.13 C236.48 471.13 235.7 471.13 234.9 471.13 C233 471 233 471 231 470 C229.38 469.87 227.76 469.8 226.13 469.75 C225.16 469.72 224.2 469.69 223.2 469.65 C221.16 469.59 219.12 469.54 217.07 469.48 C216.1 469.45 215.13 469.41 214.13 469.38 C213.24 469.35 212.36 469.33 211.44 469.3 C208.87 468.98 207.27 468.22 205 467 C202.93 466.72 200.84 466.51 198.75 466.38 C197.67 466.3 196.59 466.23 195.48 466.15 C194.66 466.1 193.84 466.05 193 466 C193 465.34 193 464.68 193 464 C192.3 464.18 191.61 464.37 190.89 464.55 C187.58 465.06 185.04 464.72 181.75 464.12 C180.16 463.85 180.16 463.85 178.55 463.57 C176 463 176 463 175 462 C173.87 461.9 172.73 461.79 171.56 461.69 C167.09 461.2 163.31 459.69 159.2 457.94 C156.89 456.92 156.89 456.92 154 456 C154 455.34 154 454.68 154 454 C153.01 454.33 152.02 454.66 151 455 C148.98 454.04 146.98 453.03 145 452 C143.38 451.55 141.75 451.09 140.12 450.66 C135.28 449.15 130.65 447.03 126 445 C124.98 444.56 124.98 444.56 123.93 444.11 C122.31 443.38 122.31 443.38 120 442 C119.67 441.01 119.34 440.02 119 439 C118.01 439.33 117.02 439.66 116 440 C112.88 438.75 112.88 438.75 110 437 C109.67 436.01 109.34 435.02 109 434 C108.01 434.33 107.02 434.66 106 435 C102.29 433.46 99.8 431.8 97 429 C95.34 428.33 93.67 427.66 92 427 C91.67 426.34 91.34 425.68 91 425 C89.67 424.65 88.34 424.32 87 424 C85.04 422.91 85.04 422.91 83.06 421.62 C80.83 420.18 78.61 418.77 76.31 417.44 C73.69 415.81 71.4 413.94 69 412 C67.19 410.7 65.38 409.42 63.55 408.15 C62 407 62 407 60 405 C59.38 404.69 58.76 404.38 58.12 404.06 C54.97 402.48 52.54 401.14 51 397.88 C50.67 397.26 50.34 396.64 50 396 C49.42 395.89 48.84 395.78 48.24 395.67 C45.01 394.7 43.46 392.76 41.12 390.34 C40.2 389.4 39.28 388.46 38.33 387.5 C37.37 386.5 36.4 385.5 35.44 384.5 C33.55 382.55 31.65 380.6 29.75 378.66 C28.91 377.79 28.07 376.92 27.2 376.03 C25.09 373.8 25.09 373.8 22 373 C20.99 371.34 19.99 369.67 19 368 C17 366.31 17 366.31 15 365 C12.87 362.87 10.93 360.62 8.98 358.32 C7.44 356.52 5.89 354.72 4.34 352.93 C-4.08 343.18 -4.08 343.18 -7 338.25 C-8.67 334.75 -8.67 334.75 -12 334 C-13.05 332.03 -14.05 330.02 -15 328 C-15.56 327.28 -16.11 326.56 -16.69 325.81 C-18 324 -18 324 -18 321 C-18.66 320.67 -19.32 320.34 -20 320 C-21.18 318.33 -21.18 318.33 -22.44 316.25 C-22.88 315.53 -23.31 314.81 -23.77 314.07 C-24.75 312.43 -25.72 310.78 -26.69 309.12 C-27.95 306.89 -27.95 306.89 -30 305 C-30.4 303.01 -30.74 301.01 -31 299 C-31.66 299 -32.32 299 -33 299 C-36.48 292.43 -39.59 286.33 -41 279 C-41.66 279 -42.32 279 -43 279 C-43.25 278.28 -43.51 277.55 -43.77 276.8 C-44.11 275.84 -44.46 274.87 -44.81 273.88 C-45.15 272.92 -45.49 271.97 -45.83 270.99 C-46.95 267.98 -46.95 267.98 -48.48 265.17 C-50.31 261.35 -51.43 257.51 -52.56 253.44 C-53.85 248.85 -55.19 244.42 -57 240 C-60.13 229.69 -61.75 218.93 -63.59 208.33 C-63.91 206.5 -64.26 204.68 -64.61 202.86 C-65.12 199.1 -65.11 195.41 -65.06 191.62 C-65.06 190.89 -65.05 190.15 -65.05 189.39 C-65.04 187.6 -65.02 185.8 -65 184 C-65.66 183.67 -66.32 183.34 -67 183 C-66.67 182.67 -66.34 182.34 -66 182 C-66.14 181.21 -66.29 180.43 -66.43 179.62 C-67.19 174.77 -67.11 170.02 -67.06 165.12 C-67.06 164.15 -67.05 163.18 -67.05 162.17 C-67.04 159.78 -67.02 157.39 -67 155 C-66.34 155 -65.68 155 -65 155 C-65.03 153.81 -65.07 152.63 -65.11 151.41 C-65.34 139.6 -64.77 128.31 -61 117 C-60.78 115.33 -60.78 115.33 -60.56 113.62 C-60.06 110.38 -59.26 107.99 -58 105 C-57.63 103.34 -57.29 101.68 -57 100 C-56.34 100 -55.68 100 -55 100 C-54.96 99.43 -54.93 98.86 -54.89 98.28 C-54.43 92.87 -53.27 88.91 -51 84 C-50.66 82.33 -50.32 80.67 -50 79 C-49.34 78.01 -48.68 77.02 -48 76 C-47.37 73.89 -47.37 73.89 -47 72 C-46.34 72 -45.68 72 -45 72 C-44.88 71.28 -44.75 70.56 -44.62 69.81 C-44.01 67.04 -43.12 64.6 -42 62 C-41.34 62 -40.68 62 -40 62 C-39.88 61.28 -39.75 60.56 -39.62 59.81 C-39.01 57.04 -38.12 54.6 -37 52 C-36.34 52 -35.68 52 -35 52 C-34.92 51.28 -34.84 50.56 -34.75 49.81 C-33.84 46.39 -32.23 44.74 -30 42 C-29.35 40.72 -28.73 39.43 -28.12 38.12 C-26.36 34.42 -24.14 31.63 -21.39 28.61 C-19.81 26.87 -19.81 26.87 -18.25 24.06 C-17.63 23.04 -17.63 23.04 -17 22 C-16.34 22 -15.68 22 -15 22 C-14.96 21.3 -14.92 20.6 -14.88 19.88 C-13.8 16.33 -12.12 14.91 -9.38 12.53 C-7.74 10.71 -7.55 9.35 -7 7 C-4.56 4.25 -4.56 4.25 -2 2 C-1.34 2 -0.68 2 0 2 C0 1.34 0 0.68 0 0 Z M0 2 C1 4 1 4 1 4 Z M-1 7 C0 9 0 9 0 9 Z M-2 9 C-2 9.66 -2 10.32 -2 11 C-1.34 10.67 -0.68 10.34 0 10 C-0.66 9.67 -1.32 9.34 -2 9 Z M-5 16 C-5 18.31 -5 20.62 -5 23 C-4.67 23 -4.34 23 -4 23 C-4 20.69 -4 18.38 -4 16 C-4.33 16 -4.66 16 -5 16 Z M-10 147 C-10 149.64 -10 152.28 -10 155 C-9.67 155 -9.34 155 -9 155 C-9 152.36 -9 149.72 -9 147 C-9.33 147 -9.66 147 -10 147 Z M-66 156 C-65 160 -65 160 -65 160 Z M5 196 C6 198 6 198 6 198 Z M20 226 C21 228 21 228 21 228 Z M35 251 C36 253 36 253 36 253 Z M481 331 C482 334 482 334 482 334 Z M474 346 C475 348 475 348 475 348 Z M428 404 C428.33 404.66 428.66 405.32 429 406 C429.33 405.34 429.66 404.68 430 404 C429.34 404 428.68 404 428 404 Z " fill="#0067AA" transform="translate(757,33)"/>
<path d="M0 0 C6.07 5.02 11.59 10.47 17.12 16.06 C18.01 16.95 18.89 17.83 19.79 18.74 C21.48 20.44 23.16 22.13 24.83 23.82 C26.53 25.53 28.25 27.2 29.99 28.87 C31.86 30.85 32.98 32.49 34 35 C33.52 34.58 33.04 34.16 32.54 33.72 C31.59 32.9 31.59 32.9 30.62 32.06 C30 31.52 29.37 30.97 28.73 30.41 C27.04 28.93 27.04 28.93 25 28 C24.67 28.66 24.34 29.32 24 30 C24 29.01 24 28.02 24 27 C21.53 23.72 19.43 21.28 16 19 C15.01 19 14.02 19 13 19 C10.74 17.03 10.74 17.03 8.31 14.5 C7.1 13.25 7.1 13.25 5.86 11.97 C5.25 11.32 4.63 10.67 4 10 C4.33 9.01 4.66 8.02 5 7 C4.01 7 3.02 7 2 7 C1.86 6.4 1.71 5.8 1.56 5.19 C1.11 3.44 0.57 1.71 0 0 Z " fill="#0C86CC" transform="translate(305,868)"/>
<path d="M0 0 C0 3 0 3 -1.94 5.38 C-4.09 8.11 -4.44 9.66 -5 13 C-5.99 13.5 -5.99 13.5 -7 14 C-7.66 16.53 -7.66 16.53 -8 19 C-8.66 19 -9.32 19 -10 19 C-10.19 20.18 -10.19 20.18 -10.38 21.38 C-11.31 25.29 -13.87 26.71 -17 29 C-16.42 26.61 -15.78 24.33 -15 22 C-15.66 21.67 -16.32 21.34 -17 21 C-15.2 16.94 -13.78 14.39 -10 12 C-9.67 11.67 -9.34 11.34 -9 11 C-9 9.68 -9 8.36 -9 7 C-7.82 6.88 -7.82 6.88 -6.62 6.75 C-3.87 6.28 -3.87 6.28 -2.81 4.06 C-2.54 3.38 -2.28 2.7 -2 2 C-1.34 1.34 -0.68 0.68 0 0 Z M-10 14 C-9 18 -9 18 -9 18 Z " fill="#034D7A" transform="translate(499,83)"/>
<path d="M0 0 C0.99 0.66 1.98 1.32 3 2 C1.81 7.05 0.52 10.05 -3 14 C-3.99 15.49 -3.99 15.49 -5 17 C-5.66 17 -6.32 17 -7 17 C-9.43 19.02 -10.71 21.13 -12 24 C-12.99 23.34 -13.98 22.68 -15 22 C-13.02 19.69 -11.04 17.38 -9 15 C-9.66 14.67 -10.32 14.34 -11 14 C-10.24 13.28 -9.47 12.56 -8.69 11.81 C-6.28 9.29 -4.74 6.98 -3 4 C-2.34 3.67 -1.68 3.34 -1 3 C-0.67 2.01 -0.34 1.02 0 0 Z M-4 6 C-3 9 -3 9 -3 9 Z " fill="#03395B" transform="translate(1242,358)"/>
<path d="M0 0 C0.55 2.08 1 3.84 1 6 C0.34 6 -0.32 6 -1 6 C-1.33 7.32 -1.66 8.64 -2 10 C-2.66 10 -3.32 10 -4 10 C-4.33 10.99 -4.66 11.98 -5 13 C-4.67 13.33 -4.34 13.66 -4 14 C-4.33 14.99 -4.66 15.98 -5 17 C-5 16.34 -5 15.68 -5 15 C-5.78 15.52 -6.57 16.03 -7.38 16.56 C-8.24 17.04 -9.11 17.51 -10 18 C-10.66 17.67 -11.32 17.34 -12 17 C-11.67 16.34 -11.34 15.68 -11 15 C-11.66 14.67 -12.32 14.34 -13 14 C-11.62 12 -11.62 12 -10 10 C-9.34 10 -8.68 10 -8 10 C-6.79 7.67 -5.83 5.5 -5 3 C-2.44 1.31 -2.44 1.31 0 0 Z M-5 7 C-5.33 7.66 -5.66 8.32 -6 9 C-5.01 8.67 -4.02 8.34 -3 8 C-3.66 7.67 -4.32 7.34 -5 7 Z " fill="#04446B" transform="translate(1250,910)"/>
<path d="M0 0 C0.66 0.33 1.32 0.66 2 1 C1.22 1.76 0.43 2.53 -0.38 3.31 C-3.07 5.91 -3.07 5.91 -5 9 C-4.52 4.69 -3.25 2.83 0 0 Z M-6 9 C-5.34 9.66 -4.68 10.32 -4 11 C-10.93 17.93 -17.86 24.86 -25 32 C-25.66 31.34 -26.32 30.68 -27 30 C-20.07 23.07 -13.14 16.14 -6 9 Z " fill="#0465A1" transform="translate(1235,925)"/>
<path d="M0 0 C1.32 1.32 2.64 2.64 4 4 C3.34 4 2.68 4 2 4 C1.88 4.64 1.75 5.28 1.62 5.94 C1.42 6.62 1.21 7.3 1 8 C0.01 8.5 0.01 8.5 -1 9 C-3.12 4.38 -3.12 4.38 -2 1 C-1.34 0.67 -0.68 0.34 0 0 Z M-4 6 C-3.34 6.66 -2.68 7.32 -2 8 C-2.38 10.12 -2.38 10.12 -3 12 C-3.66 12 -4.32 12 -5 12 C-5.33 13.65 -5.66 15.3 -6 17 C-8.97 16.5 -8.97 16.5 -12 16 C-12 13 -12 13 -9.69 10.44 C-7 8 -7 8 -4 6 Z " fill="#075888" transform="translate(167,202)"/>
<path d="M0 0 C5.25 1.39 7.96 4.73 11 9 C12.38 11.94 12.38 11.94 13 14 C8.99 13.46 7.06 11.49 4.25 8.69 C3.45 7.91 2.65 7.13 1.83 6.32 C0 4 0 4 0 0 Z " fill="#06639B" transform="translate(283,845)"/>
<path d="M0 0 C-1.58 3.83 -4.02 6.29 -6.94 9.19 C-7.81 10.07 -8.69 10.95 -9.59 11.86 C-12 14 -12 14 -15 15 C-15 11.16 -13.49 10.1 -10.88 7.47 C-10.32 6.92 -9.76 6.38 -9.19 5.81 C-8.64 5.25 -8.09 4.69 -7.53 4.12 C-3.38 0 -3.38 0 0 0 Z " fill="#0B73B0" transform="translate(1233,373)"/>
<path d="M0 0 C0.99 0 1.98 0 3 0 C2.67 0.99 2.34 1.98 2 3 C1.34 2.01 0.68 1.02 0 0 Z M-1 3 C-1 6 -1 6 -2.54 7.65 C-3.23 8.22 -3.92 8.79 -4.62 9.38 C-5.35 9.98 -6.07 10.59 -6.82 11.21 C-7.54 11.8 -8.26 12.39 -9 13 C-10.17 13.98 -11.33 14.96 -12.5 15.94 C-13.33 16.62 -14.15 17.3 -15 18 C-15 15 -15 15 -12.7 12.34 C-11.7 11.34 -10.7 10.35 -9.69 9.38 C-9.19 8.87 -8.69 8.37 -8.17 7.85 C-5.81 5.52 -4.2 4.07 -1 3 Z M-18 17 C-17.34 17.33 -16.68 17.66 -16 18 C-16.33 18.66 -16.66 19.32 -17 20 C-17.99 19.67 -18.98 19.34 -20 19 C-19.34 19 -18.68 19 -18 19 C-18 18.34 -18 17.68 -18 17 Z " fill="#0573B6" transform="translate(1233,640)"/>
<path d="M0 0 C2.12 -0.31 2.12 -0.31 5 0 C7.9 2.16 10.44 4.44 13 7 C12.01 7.33 11.02 7.66 10 8 C9.67 8.66 9.34 9.32 9 10 C7.5 8.52 6 7.04 4.5 5.56 C3.66 4.74 2.83 3.92 1.97 3.07 C0 1 0 1 0 0 Z " fill="#066198" transform="translate(837,342)"/>
<path d="M0 0 C0.33 0.66 0.66 1.32 1 2 C0.49 2.42 -0.02 2.85 -0.54 3.29 C-5.17 7.23 -9.16 11.29 -13 16 C-13.83 14.36 -13.83 14.36 -14 12 C-12.31 9.88 -10.71 8.15 -8.75 6.31 C-8.25 5.81 -7.74 5.32 -7.22 4.8 C-4.84 2.5 -3.18 1.06 0 0 Z " fill="#067BC2" transform="translate(1267,608)"/>
<path d="M0 0 C0 3 0 3 -1.94 5.38 C-4.09 8.11 -4.44 9.66 -5 13 C-5.99 13.5 -5.99 13.5 -7 14 C-7.66 16.53 -7.66 16.53 -8 19 C-8.66 18.67 -9.32 18.34 -10 18 C-10.12 13.25 -10.12 13.25 -9 11 C-9 9.68 -9 8.36 -9 7 C-7.82 6.88 -7.82 6.88 -6.62 6.75 C-3.87 6.28 -3.87 6.28 -2.81 4.06 C-2.54 3.38 -2.28 2.7 -2 2 C-1.34 1.34 -0.68 0.68 0 0 Z " fill="#0871AF" transform="translate(499,83)"/>
<path d="M0 0 C-1.48 3.45 -3.44 5.65 -6.12 8.25 C-6.85 8.96 -7.57 9.66 -8.32 10.39 C-8.87 10.92 -9.43 11.45 -10 12 C-10.66 11.34 -11.32 10.68 -12 10 C-10.38 8.33 -8.75 6.66 -7.12 5 C-6.22 4.07 -5.32 3.14 -4.38 2.19 C-2 0 -2 0 0 0 Z M-14 11 C-13.34 11.33 -12.68 11.66 -12 12 C-12.33 12.66 -12.66 13.32 -13 14 C-13.99 14 -14.98 14 -16 14 C-16 13.34 -16 12.68 -16 12 C-15.34 11.67 -14.68 11.34 -14 11 Z " fill="#0576BB" transform="translate(1209,956)"/>
<path d="M0 0 C0.33 0 0.66 0 1 0 C1 13.53 1 27.06 1 41 C0.67 41 0.34 41 0 41 C0 27.47 0 13.94 0 0 Z " fill="#000002" transform="translate(120,406)"/>
<path d="M0 0 C1.32 0.33 2.64 0.66 4 1 C2.71 2.38 1.37 3.71 0 5 C-0.66 5 -1.32 5 -2 5 C-2 5.99 -2 6.98 -2 8 C-2.66 8 -3.32 8 -4 8 C-3.4 4.64 -2.15 2.62 0 0 Z M-6 9 C-5.34 9.33 -4.68 9.66 -4 10 C-4 10.66 -4 11.32 -4 12 C-4.99 11.67 -5.98 11.34 -7 11 C-6.67 10.34 -6.34 9.68 -6 9 Z M-9 12 C-8.01 12.5 -8.01 12.5 -7 13 C-7.33 13.99 -7.66 14.98 -8 16 C-8.33 14.68 -8.66 13.36 -9 12 Z " fill="#077EC5" transform="translate(87,303)"/>
<path d="M0 0 C0.33 0 0.66 0 1 0 C1 10.89 1 21.78 1 33 C0.67 33 0.34 33 0 33 C0 22.11 0 11.22 0 0 Z " fill="#000002" transform="translate(742,111)"/>
<path d="M0 0 C5.33 1.45 8.36 5.08 12 9 C11.67 9.99 11.34 10.98 11 12 C10.37 11.36 9.75 10.72 9.1 10.07 C8.28 9.24 7.47 8.41 6.62 7.56 C5.81 6.74 5 5.92 4.16 5.07 C2.18 2.97 2.18 2.97 0 2 C0 1.34 0 0.68 0 0 Z " fill="#044E7B" transform="translate(610,598)"/>
<path d="M0 0 C0.99 0.66 1.98 1.32 3 2 C2 5.79 1.19 8.72 -1 12 C-1.66 12 -2.32 12 -3 12 C-3.33 9.69 -3.66 7.38 -4 5 C-3.01 4.34 -2.02 3.68 -1 3 C-0.67 2.01 -0.34 1.02 0 0 Z " fill="#0A75B4" transform="translate(1242,358)"/>
<path d="M0 0 C4.21 1.5 5.74 4.29 8 8 C7.01 8.33 6.02 8.66 5 9 C0 3.38 0 3.38 0 0 Z " fill="#065C90" transform="translate(573,560)"/>
<path d="M0 0 C0.99 0.66 1.98 1.32 3 2 C2.01 2.33 1.02 2.66 0 3 C0 3.66 0 4.32 0 5 C-1.38 6.62 -1.38 6.62 -3 8 C-3.66 8 -4.32 8 -5 8 C-5.33 8.99 -5.66 9.98 -6 11 C-6.71 9.23 -6.71 9.23 -7 7 C-5.57 5.08 -5.57 5.08 -3.56 3.25 C-2.9 2.64 -2.25 2.02 -1.57 1.39 C-1.05 0.93 -0.53 0.47 0 0 Z " fill="#077DC4" transform="translate(145,230)"/>
<path d="M0 0 C0 3 0 3 -1 5 C-0.34 5 0.32 5 1 5 C0.67 6.65 0.34 8.3 0 10 C-2.97 9.5 -2.97 9.5 -6 9 C-6 6 -6 6 -3.56 3.38 C-2.72 2.59 -1.87 1.81 -1 1 C-0.67 0.67 -0.34 0.34 0 0 Z " fill="#012943" transform="translate(161,209)"/>
<path d="M0 0 C0.99 0 1.98 0 3 0 C2 3 2 3 -0.06 4.19 C-0.7 4.46 -1.34 4.72 -2 5 C-2 2 -2 2 0 0 Z M-5 5 C-4.34 5.66 -3.68 6.32 -3 7 C-3.99 7 -4.98 7 -6 7 C-5.67 6.34 -5.34 5.68 -5 5 Z M-8 7 C-7.34 7.33 -6.68 7.66 -6 8 C-6.33 8.66 -6.66 9.32 -7 10 C-7.99 10 -8.98 10 -10 10 C-10 9.34 -10 8.68 -10 8 C-9.34 7.67 -8.68 7.34 -8 7 Z " fill="#0676BA" transform="translate(1203,665)"/>
<path d="M0 0 C-1.56 3.83 -4.07 6.14 -7 9 C-7.66 9.99 -8.32 10.98 -9 12 C-9.74 10.27 -9.74 10.27 -10 8 C-8.42 5.86 -8.42 5.86 -6.19 3.75 C-5.1 2.69 -5.1 2.69 -3.98 1.61 C-2 0 -2 0 0 0 Z " fill="#0679C0" transform="translate(100,290)"/>
<path d="M0 0 C0.33 0.99 0.66 1.98 1 3 C0.05 4.01 -0.91 5 -1.88 6 C-2.41 6.56 -2.94 7.11 -3.49 7.69 C-5 9 -5 9 -7 9 C-6.88 6.75 -6.88 6.75 -6 4 C-2.94 1.69 -2.94 1.69 0 0 Z " fill="#077EC6" transform="translate(107,280)"/>
<path d="M0 0 C1.56 1.06 1.56 1.06 3 3 C2.69 6.69 2.69 6.69 2 10 C0.33 10 -1.33 10 -3 10 C-2.12 6.12 -2.12 6.12 -1 5 C-1.66 4.34 -2.32 3.68 -3 3 C-2.01 2.67 -1.02 2.34 0 2 C0 1.34 0 0.68 0 0 Z M0 2 C1 4 1 4 1 4 Z M-1 7 C0 9 0 9 0 9 Z " fill="#065482" transform="translate(757,33)"/>
<path d="M0 0 C0.55 2.08 1 3.84 1 6 C0.34 6 -0.32 6 -1 6 C-1.33 6.99 -1.66 7.98 -2 9 C-3.5 7.69 -3.5 7.69 -5 6 C-5 5.01 -5 4.02 -5 3 C-2.5 1.31 -2.5 1.31 0 0 Z " fill="#0A75B4" transform="translate(1250,910)"/>
<path d="M0 0 C0.33 0 0.66 0 1 0 C1 8.91 1 17.82 1 27 C0.67 27 0.34 27 0 27 C0 18.09 0 9.18 0 0 Z " fill="#0067AA" transform="translate(2,560)"/>
<path d="M0 0 C0.87 0.37 0.87 0.37 1.75 0.75 C0.42 2.08 -0.92 3.42 -2.25 4.75 C-3.05 5.62 -3.05 5.62 -3.88 6.5 C-5.25 7.75 -5.25 7.75 -7.25 7.75 C-6.67 3.66 -4.62 -0.51 0 0 Z " fill="#077DC5" transform="translate(1212.25,390.25)"/>
<path d="M0 0 C6.27 0 12.54 0 19 0 C19 0.33 19 0.66 19 1 C12.73 1 6.46 1 0 1 C0 0.67 0 0.34 0 0 Z " fill="#0067AA" transform="translate(1066,432)"/>
<path d="M0 0 C1.32 0.99 2.64 1.98 4 3 C3 6 3 6 1 7 C-1 4 -1 4 -0.62 1.81 C-0.42 1.21 -0.21 0.62 0 0 Z " fill="#054369" transform="translate(759,29)"/>
<path d="M0 0 C0.33 0 0.66 0 1 0 C1 5.61 1 11.22 1 17 C0.67 17 0.34 17 0 17 C0 11.39 0 5.78 0 0 Z " fill="#000002" transform="translate(122,465)"/>
<path d="M0 0 C0.33 0 0.66 0 1 0 C1 5.61 1 11.22 1 17 C0.67 17 0.34 17 0 17 C0 11.39 0 5.78 0 0 Z " fill="#000002" transform="translate(457,285)"/>
<path d="M0 0 C0.33 0 0.66 0 1 0 C1 5.28 1 10.56 1 16 C0.67 16 0.34 16 0 16 C0 10.72 0 5.44 0 0 Z " fill="#1098E5" transform="translate(123,485)"/>
<path d="M0 0 C0.33 0 0.66 0 1 0 C1 5.28 1 10.56 1 16 C0.67 16 0.34 16 0 16 C0 10.72 0 5.44 0 0 Z " fill="#000002" transform="translate(122,371)"/>
<path d="M0 0 C0.33 0 0.66 0 1 0 C1 4.95 1 9.9 1 15 C0.67 15 0.34 15 0 15 C0 10.05 0 5.1 0 0 Z " fill="#000002" transform="translate(457,221)"/>
<path d="M0 0 C3.63 0 7.26 0 11 0 C11 0.33 11 0.66 11 1 C7.37 1 3.74 1 0 1 C0 0.67 0 0.34 0 0 Z " fill="#000002" transform="translate(758,1250)"/>
<path d="M0 0 C3.3 0 6.6 0 10 0 C10 0.33 10 0.66 10 1 C6.7 1 3.4 1 0 1 C0 0.67 0 0.34 0 0 Z " fill="#000002" transform="translate(639,1250)"/>
<path d="M0 0 C3.3 0 6.6 0 10 0 C10 0.33 10 0.66 10 1 C6.7 1 3.4 1 0 1 C0 0.67 0 0.34 0 0 Z " fill="#000002" transform="translate(817,850)"/>
<path d="M0 0 C0.33 0 0.66 0 1 0 C1 2.97 1 5.94 1 9 C0.67 9 0.34 9 0 9 C0 6.03 0 3.06 0 0 Z " fill="#1098E5" transform="translate(128,522)"/>
<path d="M0 0 C0.33 0 0.66 0 1 0 C1 2.97 1 5.94 1 9 C0.67 9 0.34 9 0 9 C0 6.03 0 3.06 0 0 Z " fill="#000002" transform="translate(127,510)"/>
<path d="M0 0 C0.33 0 0.66 0 1 0 C1 2.97 1 5.94 1 9 C0.67 9 0.34 9 0 9 C0 6.03 0 3.06 0 0 Z " fill="#1098E5" transform="translate(463,337)"/>
<path d="M0 0 C0.33 0 0.66 0 1 0 C1 2.64 1 5.28 1 8 C0.67 8 0.34 8 0 8 C0 5.36 0 2.72 0 0 Z " fill="#000002" transform="translate(127,336)"/>
<path d="M0 0 C0.66 0 1.32 0 2 0 C1.67 1.65 1.34 3.3 1 5 C0.34 4.01 -0.32 3.02 -1 2 C-0.67 1.34 -0.34 0.68 0 0 Z " fill="#0C8BD6" transform="translate(170,199)"/>
<path d="M0 0 C2.31 0 4.62 0 7 0 C7 0.33 7 0.66 7 1 C4.69 1 2.38 1 0 1 C0 0.67 0 0.34 0 0 Z " fill="#1098E5" transform="translate(623,1248)"/>
<path d="M0 0 C2.31 0 4.62 0 7 0 C7 0.33 7 0.66 7 1 C4.69 1 2.38 1 0 1 C0 0.67 0 0.34 0 0 Z " fill="#000002" transform="translate(928,850)"/>
<path d="M0 0 C2.31 0 4.62 0 7 0 C7 0.33 7 0.66 7 1 C4.69 1 2.38 1 0 1 C0 0.67 0 0.34 0 0 Z " fill="#000002" transform="translate(955,500)"/>
<path d="M0 0 C0.33 0 0.66 0 1 0 C1 1.98 1 3.96 1 6 C0.67 6 0.34 6 0 6 C0 4.02 0 2.04 0 0 Z " fill="#000002" transform="translate(125,496)"/>
<path d="M0 0 C0.33 0 0.66 0 1 0 C1 1.98 1 3.96 1 6 C0.67 6 0.34 6 0 6 C0 4.02 0 2.04 0 0 Z " fill="#1098E5" transform="translate(468,360)"/>
<path d="M0 0 C0.33 0 0.66 0 1 0 C1 1.98 1 3.96 1 6 C0.67 6 0.34 6 0 6 C0 4.02 0 2.04 0 0 Z " fill="#000002" transform="translate(125,351)"/>
<path d="M0 0 C0.33 0 0.66 0 1 0 C1 1.98 1 3.96 1 6 C0.67 6 0.34 6 0 6 C0 4.02 0 2.04 0 0 Z " fill="#000002" transform="translate(132,311)"/>
<path d="M0 0 C0.33 0 0.66 0 1 0 C1 1.98 1 3.96 1 6 C0.67 6 0.34 6 0 6 C0 4.02 0 2.04 0 0 Z " fill="#000002" transform="translate(462,186)"/>
<path d="M0 0 C0.33 0 0.66 0 1 0 C1 1.98 1 3.96 1 6 C0.67 6 0.34 6 0 6 C0 4.02 0 2.04 0 0 Z " fill="#000002" transform="translate(745,88)"/>
<path d="M0 0 C0.33 0.99 0.66 1.98 1 3 C0.01 3.49 0.01 3.49 -1 4 C-0.67 2.68 -0.34 1.36 0 0 Z " fill="#000002" transform="translate(760,37)"/>
<path d="M0 0 C1.98 0.99 1.98 0.99 4 2 C3.01 2.5 3.01 2.5 2 3 C1.34 2.67 0.68 2.34 0 2 C0 1.34 0 0.68 0 0 Z " fill="#000002" transform="translate(762,26)"/>
<path d="M0 0 C1.65 0 3.3 0 5 0 C5 0.33 5 0.66 5 1 C3.35 1 1.7 1 0 1 C0 0.67 0 0.34 0 0 Z " fill="#000002" transform="translate(806,1245)"/>
<path d="M0 0 C1.65 0 3.3 0 5 0 C5 0.33 5 0.66 5 1 C3.35 1 1.7 1 0 1 C0 0.67 0 0.34 0 0 Z " fill="#000002" transform="translate(592,1245)"/>
<path d="M0 0 C0.33 0 0.66 0 1 0 C1 1.65 1 3.3 1 5 C0.67 5 0.34 5 0 5 C0 3.35 0 1.7 0 0 Z " fill="#000002" transform="translate(132,539)"/>
<path d="M0 0 C0.33 0 0.66 0 1 0 C1 1.65 1 3.3 1 5 C0.67 5 0.34 5 0 5 C0 3.35 0 1.7 0 0 Z " fill="#1098E5" transform="translate(148,253)"/>
<path d="M0 0 C0.33 0 0.66 0 1 0 C1 1.65 1 3.3 1 5 C0.67 5 0.34 5 0 5 C0 3.35 0 1.7 0 0 Z " fill="#000002" transform="translate(747,172)"/>
<path d="M0 0 C0.99 0 1.98 0 3 0 C3 0.66 3 1.32 3 2 C2.01 1.67 1.02 1.34 0 1 C0 0.67 0 0.34 0 0 Z " fill="#1098E5" transform="translate(761,29)"/>
<path d="M0 0 C0.33 0.99 0.66 1.98 1 3 C0.34 3 -0.32 3 -1 3 C-0.67 2.01 -0.34 1.02 0 0 Z " fill="#0C8ED9" transform="translate(765,23)"/>
<path d="M0 0 C4 1 4 1 4 1 Z " fill="#000002" transform="translate(560,1240)"/>
<path d="M0 0 C4 1 4 1 4 1 Z " fill="#1098E5" transform="translate(803,848)"/>
<path d="M0 0 C4 1 4 1 4 1 Z " fill="#1098E5" transform="translate(747,838)"/>
<path d="M0 0 C4 1 4 1 4 1 Z " fill="#1098E5" transform="translate(717,828)"/>
<path d="M0 0 C1 4 1 4 1 4 Z " fill="#0067AA" transform="translate(2,588)"/>
<path d="M0 0 C1 4 1 4 1 4 Z " fill="#000002" transform="translate(135,553)"/>
<path d="M0 0 C4 1 4 1 4 1 Z " fill="#000002" transform="translate(1061,500)"/>
<path d="M0 0 C1 4 1 4 1 4 Z " fill="#000002" transform="translate(460,315)"/>
<path d="M0 0 C1 4 1 4 1 4 Z " fill="#000002" transform="translate(745,160)"/>
<path d="M0 0 C3 1 3 1 3 1 Z " fill="#000002" transform="translate(836,1240)"/>
<path d="M0 0 C3 1 3 1 3 1 Z " fill="#1098E5" transform="translate(966,1198)"/>
<path d="M0 0 C3 1 3 1 3 1 Z " fill="#1098E5" transform="translate(976,1193)"/>
<path d="M0 0 C3 1 3 1 3 1 Z " fill="#1098E5" transform="translate(986,1188)"/>
<path d="M0 0 C3 1 3 1 3 1 Z " fill="#1098E5" transform="translate(996,1183)"/>
<path d="M0 0 C0.99 0.49 0.99 0.49 2 1 C1.01 1.49 1.01 1.49 0 2 C0 1.34 0 0.68 0 0 Z " fill="#1098E5" transform="translate(1135,1080)"/>
<path d="M0 0 C3 1 3 1 3 1 Z " fill="#000002" transform="translate(968,845)"/>
<path d="M0 0 C3 1 3 1 3 1 Z " fill="#000002" transform="translate(776,845)"/>
<path d="M0 0 C3 1 3 1 3 1 Z " fill="#1098E5" transform="translate(1071,813)"/>
<path d="M0 0 C3 1 3 1 3 1 Z " fill="#1098E5" transform="translate(1081,808)"/>
<path d="M0 0 C3 1 3 1 3 1 Z " fill="#1098E5" transform="translate(1091,803)"/>
<path d="M0 0 C3 1 3 1 3 1 Z " fill="#1098E5" transform="translate(1101,798)"/>
<path d="" fill="#000002" transform="translate(0,0)"/>
<path d="" fill="#000002" transform="translate(0,0)"/>
<path d="" fill="#000002" transform="translate(0,0)"/>
<path d="" fill="#000002" transform="translate(0,0)"/>
<path d="" fill="#000002" transform="translate(0,0)"/>
<path d="" fill="#000002" transform="translate(0,0)"/>
<path d="" fill="#000002" transform="translate(0,0)"/>
<path d="" fill="#000002" transform="translate(0,0)"/>
<path d="" fill="#000002" transform="translate(0,0)"/>
<path d="" fill="#000002" transform="translate(0,0)"/>
<path d="M0 0 C0.33 0.66 0.66 1.32 1 2 C0.34 1.67 -0.32 1.34 -1 1 C-0.67 0.67 -0.34 0.34 0 0 Z " fill="#000002" transform="translate(485,113)"/>
<path d="" fill="#000002" transform="translate(0,0)"/>
<path d="M0 0 C2 1 2 1 2 1 Z " fill="#000002" transform="translate(535,1235)"/>
<path d="M0 0 C2 1 2 1 2 1 Z " fill="#000002" transform="translate(948,1207)"/>
<path d="M0 0 C2 1 2 1 2 1 Z " fill="#000002" transform="translate(981,1192)"/>
<path d="M0 0 C2 1 2 1 2 1 Z " fill="#000002" transform="translate(991,1187)"/>
<path d="M0 0 C2 1 2 1 2 1 Z " fill="#000002" transform="translate(1001,1182)"/>
<path d="M0 0 C2 1 2 1 2 1 Z " fill="#1098E5" transform="translate(1006,1178)"/>
<path d="M0 0 C2 1 2 1 2 1 Z " fill="#000002" transform="translate(337,1147)"/>
<path d="M0 0 C2 1 2 1 2 1 Z " fill="#1098E5" transform="translate(1094,1118)"/>
<path d="" fill="#000002" transform="translate(0,0)"/>
<path d="" fill="#1098E5" transform="translate(0,0)"/>
<path d="" fill="#087FC7" transform="translate(0,0)"/>
<path d="" fill="#000002" transform="translate(0,0)"/>
<path d="M0 0 C2 1 2 1 2 1 Z " fill="#000002" transform="translate(993,840)"/>
<path d="M0 0 C2 1 2 1 2 1 Z " fill="#000002" transform="translate(1013,835)"/>
<path d="M0 0 C2 1 2 1 2 1 Z " fill="#000002" transform="translate(1076,812)"/>
<path d="M0 0 C2 1 2 1 2 1 Z " fill="#000002" transform="translate(1086,807)"/>
<path d="M0 0 C2 1 2 1 2 1 Z " fill="#000002" transform="translate(665,807)"/>
<path d="M0 0 C2 1 2 1 2 1 Z " fill="#000002" transform="translate(1096,802)"/>
<path d="M0 0 C2 1 2 1 2 1 Z " fill="#000002" transform="translate(655,802)"/>
<path d="M0 0 C2 1 2 1 2 1 Z " fill="#1098E5" transform="translate(1111,793)"/>
<path d="" fill="#000002" transform="translate(0,0)"/>
<path d="" fill="#000002" transform="translate(0,0)"/>
<path d="" fill="#000002" transform="translate(0,0)"/>
<path d="" fill="#1098E5" transform="translate(0,0)"/>
<path d="" fill="#000002" transform="translate(0,0)"/>
<path d="" fill="#000002" transform="translate(0,0)"/>
<path d="" fill="#000002" transform="translate(0,0)"/>
<path d="" fill="#000002" transform="translate(0,0)"/>
<path d="" fill="#000002" transform="translate(0,0)"/>
<path d="" fill="#000002" transform="translate(0,0)"/>
<path d="" fill="#000002" transform="translate(0,0)"/>
<path d="" fill="#000002" transform="translate(0,0)"/>
<path d="M0 0 C2 1 2 1 2 1 Z " fill="#1098E5" transform="translate(947,498)"/>
<path d="M0 0 C2 1 2 1 2 1 Z " fill="#000002" transform="translate(930,495)"/>
<path d="M0 0 C2 1 2 1 2 1 Z " fill="#1098E5" transform="translate(1086,493)"/>
<path d="M0 0 C2 1 2 1 2 1 Z " fill="#000002" transform="translate(905,487)"/>
<path d="M0 0 C2 1 2 1 2 1 Z " fill="#000002" transform="translate(900,485)"/>
<path d="M0 0 C2 1 2 1 2 1 Z " fill="#000002" transform="translate(892,482)"/>
<path d="M0 0 C2 1 2 1 2 1 Z " fill="#1098E5" transform="translate(1129,478)"/>
<path d="M0 0 C2 1 2 1 2 1 Z " fill="#000002" transform="translate(852,462)"/>
<path d="" fill="#000002" transform="translate(0,0)"/>
<path d="M0 0 C2 1 2 1 2 1 Z " fill="#1098E5" transform="translate(1169,453)"/>
<path d="" fill="#000002" transform="translate(0,0)"/>
<path d="" fill="#087FC7" transform="translate(0,0)"/>
<path d="" fill="#000002" transform="translate(0,0)"/>
<path d="" fill="#000002" transform="translate(0,0)"/>
<path d="" fill="#000002" transform="translate(0,0)"/>
<path d="" fill="#1098E5" transform="translate(0,0)"/>
<path d="" fill="#000002" transform="translate(0,0)"/>
<path d="" fill="#000002" transform="translate(0,0)"/>
<path d="" fill="#000002" transform="translate(0,0)"/>
<path d="" fill="#000002" transform="translate(0,0)"/>
<path d="" fill="#000002" transform="translate(0,0)"/>
<path d="" fill="#1098E5" transform="translate(0,0)"/>
<path d="" fill="#000002" transform="translate(0,0)"/>
<path d="" fill="#000002" transform="translate(0,0)"/>
<path d="" fill="#000002" transform="translate(0,0)"/>
<path d="" fill="#000002" transform="translate(0,0)"/>
<path d="" fill="#1098E5" transform="translate(0,0)"/>
<path d="" fill="#000002" transform="translate(0,0)"/>
<path d="" fill="#000002" transform="translate(0,0)"/>
<path d="" fill="#0067AA" transform="translate(0,0)"/>
<path d="" fill="#1098E5" transform="translate(0,0)"/>
<path d="" fill="#000002" transform="translate(0,0)"/>
<path d="" fill="#000002" transform="translate(0,0)"/>
<path d="" fill="#000002" transform="translate(0,0)"/>
<path d="" fill="#0067AA" transform="translate(0,0)"/>
<path d="" fill="#1098E5" transform="translate(0,0)"/>
<path d="" fill="#000002" transform="translate(0,0)"/>
<path d="" fill="#000002" transform="translate(0,0)"/>
<path d="" fill="#000002" transform="translate(0,0)"/>
<path d="" fill="#0067AA" transform="translate(0,0)"/>
<path d="" fill="#1098E5" transform="translate(0,0)"/>
<path d="" fill="#000002" transform="translate(0,0)"/>
<path d="" fill="#000002" transform="translate(0,0)"/>
<path d="" fill="#000002" transform="translate(0,0)"/>
<path d="" fill="#000002" transform="translate(0,0)"/>
<path d="" fill="#000002" transform="translate(0,0)"/>
<path d="" fill="#1098E5" transform="translate(0,0)"/>
<path d="" fill="#000002" transform="translate(0,0)"/>
<path d="" fill="#1098E5" transform="translate(0,0)"/>
<path d="" fill="#000002" transform="translate(0,0)"/>
<path d="" fill="#1098E5" transform="translate(0,0)"/>
<path d="" fill="#000002" transform="translate(0,0)"/>
<path d="" fill="#000002" transform="translate(0,0)"/>
<path d="" fill="#000002" transform="translate(0,0)"/>
<path d="" fill="#000002" transform="translate(0,0)"/>
<path d="" fill="#000002" transform="translate(0,0)"/>
<path d="" fill="#000002" transform="translate(0,0)"/>
<path d="" fill="#000002" transform="translate(0,0)"/>
<path d="" fill="#000002" transform="translate(0,0)"/>
<path d="" fill="#000002" transform="translate(0,0)"/>
<path d="" fill="#000002" transform="translate(0,0)"/>
<path d="" fill="#000002" transform="translate(0,0)"/>
<path d="" fill="#1098E5" transform="translate(0,0)"/>
<path d="" fill="#000002" transform="translate(0,0)"/>
<path d="" fill="#1098E5" transform="translate(0,0)"/>
<path d="" fill="#000002" transform="translate(0,0)"/>
<path d="" fill="#000002" transform="translate(0,0)"/>
<path d="" fill="#1098E5" transform="translate(0,0)"/>
<path d="" fill="#000002" transform="translate(0,0)"/>
<path d="" fill="#000002" transform="translate(0,0)"/>
<path d="" fill="#1098E5" transform="translate(0,0)"/>
<path d="" fill="#1098E5" transform="translate(0,0)"/>
<path d="" fill="#1098E5" transform="translate(0,0)"/>
<path d="" fill="#000002" transform="translate(0,0)"/>
<path d="" fill="#0067AA" transform="translate(0,0)"/>
<path d="" fill="#1098E5" transform="translate(0,0)"/>
<path d="" fill="#1098E5" transform="translate(0,0)"/>
<path d="" fill="#1098E5" transform="translate(0,0)"/>
<path d="" fill="#0067AA" transform="translate(0,0)"/>
<path d="" fill="#1098E5" transform="translate(0,0)"/>
<path d="" fill="#1098E5" transform="translate(0,0)"/>
<path d="" fill="#1098E5" transform="translate(0,0)"/>
<path d="" fill="#0067AA" transform="translate(0,0)"/>
<path d="" fill="#1098E5" transform="translate(0,0)"/>
<path d="" fill="#1098E5" transform="translate(0,0)"/>
<path d="" fill="#1098E5" transform="translate(0,0)"/>
<path d="" fill="#1098E5" transform="translate(0,0)"/>
<path d="" fill="#1098E5" transform="translate(0,0)"/>
<path d="" fill="#0067AA" transform="translate(0,0)"/>
<path d="" fill="#1098E5" transform="translate(0,0)"/>
<path d="" fill="#000002" transform="translate(0,0)"/>
<path d="" fill="#1098E5" transform="translate(0,0)"/>
<path d="" fill="#1098E5" transform="translate(0,0)"/>
<path d="" fill="#0067AA" transform="translate(0,0)"/>
<path d="" fill="#1098E5" transform="translate(0,0)"/>
<path d="" fill="#1098E5" transform="translate(0,0)"/>
<path d="" fill="#1098E5" transform="translate(0,0)"/>
<path d="" fill="#000002" transform="translate(0,0)"/>
<path d="" fill="#000002" transform="translate(0,0)"/>
<path d="" fill="#1098E5" transform="translate(0,0)"/>
<path d="" fill="#1098E5" transform="translate(0,0)"/>
<path d="" fill="#1098E5" transform="translate(0,0)"/>
<path d="" fill="#0067AA" transform="translate(0,0)"/>
<path d="" fill="#000002" transform="translate(0,0)"/>
<path d="" fill="#000002" transform="translate(0,0)"/>
<path d="" fill="#0067AA" transform="translate(0,0)"/>
<path d="" fill="#000002" transform="translate(0,0)"/>
<path d="" fill="#000002" transform="translate(0,0)"/>
<path d="" fill="#000002" transform="translate(0,0)"/>
<path d="" fill="#000002" transform="translate(0,0)"/>
<path d="" fill="#1098E5" transform="translate(0,0)"/>
<path d="" fill="#000002" transform="translate(0,0)"/>
<path d="" fill="#000002" transform="translate(0,0)"/>
<path d="" fill="#000002" transform="translate(0,0)"/>
<path d="" fill="#1098E5" transform="translate(0,0)"/>
<path d="" fill="#000002" transform="translate(0,0)"/>
<path d="" fill="#000002" transform="translate(0,0)"/>
<path d="" fill="#1098E5" transform="translate(0,0)"/>
<path d="" fill="#000002" transform="translate(0,0)"/>
<path d="" fill="#000002" transform="translate(0,0)"/>
<path d="" fill="#1098E5" transform="translate(0,0)"/>
<path d="" fill="#000002" transform="translate(0,0)"/>
<path d="" fill="#000002" transform="translate(0,0)"/>
<path d="" fill="#000002" transform="translate(0,0)"/>
<path d="" fill="#000002" transform="translate(0,0)"/>
<path d="" fill="#1098E5" transform="translate(0,0)"/>
<path d="" fill="#000002" transform="translate(0,0)"/>
<path d="" fill="#000002" transform="translate(0,0)"/>
<path d="" fill="#1098E5" transform="translate(0,0)"/>
<path d="" fill="#000002" transform="translate(0,0)"/>
<path d="" fill="#000002" transform="translate(0,0)"/>
<path d="" fill="#000002" transform="translate(0,0)"/>
<path d="" fill="#000002" transform="translate(0,0)"/>
<path d="" fill="#1098E5" transform="translate(0,0)"/>
<path d="" fill="#000002" transform="translate(0,0)"/>
<path d="" fill="#000002" transform="translate(0,0)"/>
<path d="" fill="#1098E5" transform="translate(0,0)"/>
<path d="" fill="#000002" transform="translate(0,0)"/>
<path d="" fill="#1098E5" transform="translate(0,0)"/>
<path d="" fill="#1098E5" transform="translate(0,0)"/>
<path d="" fill="#000002" transform="translate(0,0)"/>
<path d="" fill="#1098E5" transform="translate(0,0)"/>
<path d="" fill="#000002" transform="translate(0,0)"/>
<path d="" fill="#1098E5" transform="translate(0,0)"/>
<path d="" fill="#000002" transform="translate(0,0)"/>
<path d="" fill="#000002" transform="translate(0,0)"/>
<path d="" fill="#1098E5" transform="translate(0,0)"/>
<path d="" fill="#1098E5" transform="translate(0,0)"/>
<path d="" fill="#0067AA" transform="translate(0,0)"/>
<path d="" fill="#1098E5" transform="translate(0,0)"/>
<path d="" fill="#1098E5" transform="translate(0,0)"/>
<path d="" fill="#1098E5" transform="translate(0,0)"/>
<path d="" fill="#000002" transform="translate(0,0)"/>
<path d="" fill="#0067AA" transform="translate(0,0)"/>
<path d="" fill="#000002" transform="translate(0,0)"/>
<path d="" fill="#000002" transform="translate(0,0)"/>
<path d="" fill="#000002" transform="translate(0,0)"/>
<path d="" fill="#1098E5" transform="translate(0,0)"/>
<path d="" fill="#1098E5" transform="translate(0,0)"/>
<path d="" fill="#1098E5" transform="translate(0,0)"/>
<path d="" fill="#0067AA" transform="translate(0,0)"/>
<path d="" fill="#1098E5" transform="translate(0,0)"/>
<path d="" fill="#1098E5" transform="translate(0,0)"/>
<path d="" fill="#1098E5" transform="translate(0,0)"/>
<path d="" fill="#0067AA" transform="translate(0,0)"/>
<path d="" fill="#1098E5" transform="translate(0,0)"/>
<path d="" fill="#1098E5" transform="translate(0,0)"/>
<path d="" fill="#000002" transform="translate(0,0)"/>
<path d="" fill="#000002" transform="translate(0,0)"/>
<path d="" fill="#000002" transform="translate(0,0)"/>
<path d="" fill="#1098E5" transform="translate(0,0)"/>
<path d="" fill="#000002" transform="translate(0,0)"/>
<path d="" fill="#000002" transform="translate(0,0)"/>
<path d="" fill="#000002" transform="translate(0,0)"/>
<path d="" fill="#1098E5" transform="translate(0,0)"/>
<path d="" fill="#000002" transform="translate(0,0)"/>
<path d="" fill="#000002" transform="translate(0,0)"/>
<path d="" fill="#000002" transform="translate(0,0)"/>
<path d="" fill="#000002" transform="translate(0,0)"/>
<path d="" fill="#000002" transform="translate(0,0)"/>
<path d="" fill="#000002" transform="translate(0,0)"/>
<path d="" fill="#000002" transform="translate(0,0)"/>
<path d="" fill="#000002" transform="translate(0,0)"/>
<path d="" fill="#000002" transform="translate(0,0)"/>
<path d="" fill="#000002" transform="translate(0,0)"/>
<path d="" fill="#0067AA" transform="translate(0,0)"/>
<path d="" fill="#0067AA" transform="translate(0,0)"/>
<path d="" fill="#000002" transform="translate(0,0)"/>
<path d="" fill="#000002" transform="translate(0,0)"/>
<path d="" fill="#000002" transform="translate(0,0)"/>
<path d="" fill="#000002" transform="translate(0,0)"/>
<path d="" fill="#000002" transform="translate(0,0)"/>
<path d="" fill="#1098E5" transform="translate(0,0)"/>
<path d="" fill="#1098E5" transform="translate(0,0)"/>
<path d="" fill="#1098E5" transform="translate(0,0)"/>
<path d="" fill="#000002" transform="translate(0,0)"/>
<path d="" fill="#000002" transform="translate(0,0)"/>
<path d="" fill="#000002" transform="translate(0,0)"/>
<path d="" fill="#000002" transform="translate(0,0)"/>
<path d="" fill="#000002" transform="translate(0,0)"/>
<path d="" fill="#1098E5" transform="translate(0,0)"/>
<path d="" fill="#000002" transform="translate(0,0)"/>
<path d="" fill="#000002" transform="translate(0,0)"/>
<path d="" fill="#000002" transform="translate(0,0)"/>
<path d="" fill="#000002" transform="translate(0,0)"/>
<path d="" fill="#000002" transform="translate(0,0)"/>
<path d="" fill="#1098E5" transform="translate(0,0)"/>
<path d="" fill="#000002" transform="translate(0,0)"/>
<path d="" fill="#000002" transform="translate(0,0)"/>
<path d="" fill="#1098E5" transform="translate(0,0)"/>
<path d="" fill="#000002" transform="translate(0,0)"/>
<path d="" fill="#000002" transform="translate(0,0)"/>
<path d="" fill="#000002" transform="translate(0,0)"/>
<path d="" fill="#1098E5" transform="translate(0,0)"/>
<path d="" fill="#1098E5" transform="translate(0,0)"/>
<path d="" fill="#1098E5" transform="translate(0,0)"/>
<path d="" fill="#000002" transform="translate(0,0)"/>
<path d="" fill="#000002" transform="translate(0,0)"/>
<path d="" fill="#1098E5" transform="translate(0,0)"/>
<path d="" fill="#000002" transform="translate(0,0)"/>
<path d="" fill="#000002" transform="translate(0,0)"/>
<path d="" fill="#1098E5" transform="translate(0,0)"/>
<path d="" fill="#1098E5" transform="translate(0,0)"/>
<path d="" fill="#1098E5" transform="translate(0,0)"/>
<path d="" fill="#000002" transform="translate(0,0)"/>
<path d="" fill="#000002" transform="translate(0,0)"/>
<path d="" fill="#1098E5" transform="translate(0,0)"/>
<path d="" fill="#000002" transform="translate(0,0)"/>
<path d="" fill="#000002" transform="translate(0,0)"/>
<path d="" fill="#000002" transform="translate(0,0)"/>
<path d="" fill="#1098E5" transform="translate(0,0)"/>
<path d="" fill="#000002" transform="translate(0,0)"/>
<path d="" fill="#1098E5" transform="translate(0,0)"/>
<path d="" fill="#0067AA" transform="translate(0,0)"/>
<path d="" fill="#000002" transform="translate(0,0)"/>
<path d="" fill="#1098E5" transform="translate(0,0)"/>
<path d="" fill="#1098E5" transform="translate(0,0)"/>
<path d="" fill="#1098E5" transform="translate(0,0)"/>
<path d="" fill="#000002" transform="translate(0,0)"/>
<path d="" fill="#0067AA" transform="translate(0,0)"/>
<path d="" fill="#000002" transform="translate(0,0)"/>
<path d="" fill="#0067AA" transform="translate(0,0)"/>
<path d="" fill="#000002" transform="translate(0,0)"/>
<path d="" fill="#1098E5" transform="translate(0,0)"/>
<path d="" fill="#000002" transform="translate(0,0)"/>
<path d="" fill="#000002" transform="translate(0,0)"/>
<path d="" fill="#000002" transform="translate(0,0)"/>
<path d="" fill="#000002" transform="translate(0,0)"/>
<path d="" fill="#0067AA" transform="translate(0,0)"/>
<path d="" fill="#000002" transform="translate(0,0)"/>
<path d="" fill="#000002" transform="translate(0,0)"/>
<path d="" fill="#000002" transform="translate(0,0)"/>
<path d="" fill="#0067AA" transform="translate(0,0)"/>
<path d="" fill="#000002" transform="translate(0,0)"/>
<path d="" fill="#000002" transform="translate(0,0)"/>
<path d="" fill="#0067AA" transform="translate(0,0)"/>
<path d="" fill="#000002" transform="translate(0,0)"/>
<path d="" fill="#000002" transform="translate(0,0)"/>
<path d="" fill="#1098E5" transform="translate(0,0)"/>
<path d="" fill="#0067AA" transform="translate(0,0)"/>
<path d="" fill="#0067AA" transform="translate(0,0)"/>
<path d="" fill="#1098E5" transform="translate(0,0)"/>
<path d="" fill="#0067AA" transform="translate(0,0)"/>
<path d="" fill="#000002" transform="translate(0,0)"/>
<path d="" fill="#000002" transform="translate(0,0)"/>
<path d="" fill="#000002" transform="translate(0,0)"/>
<path d="" fill="#000002" transform="translate(0,0)"/>
<path d="" fill="#000002" transform="translate(0,0)"/>
<path d="" fill="#000002" transform="translate(0,0)"/>
<path d="" fill="#000002" transform="translate(0,0)"/>
<path d="" fill="#000002" transform="translate(0,0)"/>
<path d="" fill="#000002" transform="translate(0,0)"/>
<path d="" fill="#1098E5" transform="translate(0,0)"/>
<path d="" fill="#1098E5" transform="translate(0,0)"/>
</svg>
