<?xml version="1.0" encoding="UTF-8"?>
<!-- Generator: visioncortex VTracer 0.6.3 -->
<svg version="1.1" xmlns="http://www.w3.org/2000/svg" width="1280" height="1280">
<path d="M0 0 C422.4 0 844.8 0 1280 0 C1280 422.4 1280 844.8 1280 1280 C857.6 1280 435.2 1280 0 1280 C0 857.6 0 435.2 0 0 Z " fill="#EEDB52" transform="translate(0,0)"/>
<path d="M0 0 C3.36 2.96 6.62 6.01 9.83 9.12 C11.19 10.44 12.57 11.75 13.95 13.05 C23.91 22.63 31.83 33.57 39.43 45.05 C40 45.9 40.57 46.75 41.15 47.63 C43.94 51.91 46.02 55.3 46.31 60.55 C45.32 61.16 44.34 61.77 43.33 62.39 C36.48 66.64 29.68 70.93 22.99 75.43 C16.76 79.63 10.43 83.66 4.07 87.66 C-2.81 91.99 -9.66 96.36 -16.51 100.74 C-17.57 101.42 -18.64 102.1 -19.74 102.8 C-24.27 105.69 -28.78 108.59 -33.22 111.61 C-33.87 112.04 -34.51 112.47 -35.17 112.92 C-36.8 114.02 -38.41 115.13 -40.02 116.25 C-42.69 117.55 -42.69 117.55 -45.32 117.6 C-48.61 116.15 -49.59 114.3 -51.44 111.24 C-52.48 109.61 -52.48 109.61 -53.53 107.95 C-54.06 107.1 -54.06 107.1 -54.61 106.24 C-66.53 87.75 -81.1 75.07 -102.69 69.55 C-122.67 65.54 -142.56 67.51 -159.94 78.74 C-170.08 86.31 -176.06 96.83 -179.34 108.93 C-181.54 125.18 -178.98 139.84 -169.69 153.55 C-151.9 174.05 -121.47 184.89 -97.2 195.07 C-88.59 198.71 -80.06 202.51 -71.52 206.3 C-68.91 207.46 -66.29 208.61 -63.67 209.75 C-8.96 233.81 47.63 265.86 71.04 324.12 C79.21 346.26 82.54 368.4 82.56 391.93 C82.56 392.73 82.56 393.53 82.56 394.35 C82.55 406.66 81.96 418.5 79.31 430.55 C79.17 431.23 79.03 431.91 78.88 432.61 C73.47 458.64 61.13 486.19 41.31 504.55 C40.65 504.55 39.99 504.55 39.31 504.55 C39.1 505.1 38.9 505.64 38.69 506.2 C36.74 509.5 34.02 511.74 31.12 514.18 C30.49 514.71 29.87 515.23 29.22 515.78 C-18.94 555.72 -85.33 564.46 -145.88 559.37 C-150.51 558.93 -155.1 558.26 -159.69 557.55 C-160.57 557.43 -161.45 557.3 -162.35 557.17 C-221.22 548.55 -277.24 520.57 -314.01 472.66 C-318.58 466.51 -322.69 460.08 -326.69 453.55 C-327.4 452.44 -328.11 451.33 -328.84 450.18 C-329.82 448.6 -329.82 448.6 -330.82 446.99 C-331.4 446.06 -331.98 445.13 -332.58 444.17 C-333.93 441.01 -333.75 439.79 -332.69 436.55 C-330.95 435.06 -330.95 435.06 -328.67 433.83 C-327.82 433.36 -326.98 432.89 -326.11 432.41 C-325.19 431.92 -324.27 431.43 -323.32 430.93 C-321.39 429.87 -319.45 428.8 -317.52 427.74 C-316.54 427.2 -315.56 426.67 -314.56 426.12 C-310.35 423.82 -306.21 421.41 -302.07 418.99 C-300.51 418.08 -298.94 417.18 -297.38 416.27 C-296.61 415.83 -295.84 415.38 -295.05 414.92 C-292.66 413.53 -290.27 412.15 -287.88 410.77 C-280.26 406.37 -272.65 401.95 -265.07 397.49 C-264.39 397.09 -263.7 396.69 -263 396.28 C-259.31 394.11 -255.64 391.91 -252 389.67 C-251.22 389.2 -250.45 388.73 -249.66 388.25 C-248.17 387.35 -246.7 386.44 -245.23 385.51 C-240.23 382.49 -240.23 382.49 -237.58 382.81 C-234.64 383.97 -233.76 386.08 -232.13 388.74 C-211.84 420.32 -183.92 441.85 -147.41 450.79 C-138.74 452.57 -130.21 452.77 -121.39 452.79 C-119.16 452.8 -116.93 452.83 -114.71 452.87 C-91.6 453.04 -68.9 446.94 -51.79 430.75 C-41.72 420.1 -38.27 407.56 -38.33 393.28 C-38.82 375.6 -45.74 362.47 -58.53 350.21 C-68.75 341.29 -81.5 335.29 -93.69 329.55 C-94.61 329.12 -95.53 328.68 -96.48 328.23 C-111.11 321.33 -125.89 314.84 -140.78 308.5 C-172.39 295.05 -172.39 295.05 -186.83 287.52 C-188.74 286.53 -190.67 285.58 -192.6 284.62 C-218.36 271.73 -245.58 253.39 -263.69 230.55 C-264.39 229.69 -265.08 228.82 -265.8 227.92 C-275.73 215.1 -283.05 201.75 -288.69 186.55 C-289.39 184.72 -289.39 184.72 -290.1 182.85 C-295.66 167.23 -298.8 150.55 -298.9 133.96 C-298.9 133.17 -298.91 132.38 -298.91 131.56 C-298.92 129.9 -298.93 128.24 -298.93 126.57 C-298.94 124.09 -298.98 121.6 -299.01 119.12 C-299.08 108.27 -297.96 98.15 -295.69 87.55 C-295.55 86.86 -295.4 86.17 -295.25 85.46 C-287.77 50 -265.84 15.72 -235.6 -4.6 C-167.96 -47.46 -64.02 -54.65 0 0 Z " fill="#30342E" transform="translate(1094.6943359375,617.4462890625)"/>
<path d="M0 0 C0.86 0 1.72 0 2.61 0 C3.59 -0 4.58 -0.01 5.59 -0.01 C6.68 -0.01 7.76 0 8.88 0.01 C10.59 0 10.59 0 12.33 0 C16.12 -0 19.9 0.01 23.68 0.02 C26.3 0.02 28.92 0.02 31.54 0.02 C37.03 0.02 42.52 0.03 48.01 0.04 C54.37 0.06 60.73 0.06 67.09 0.06 C73.19 0.06 79.3 0.07 85.41 0.08 C88.01 0.08 90.61 0.08 93.22 0.08 C96.85 0.08 100.48 0.09 104.11 0.1 C105.19 0.1 106.28 0.1 107.4 0.1 C108.39 0.11 109.37 0.11 110.38 0.12 C111.24 0.12 112.1 0.12 112.98 0.12 C114.93 0.25 114.93 0.25 115.93 1.25 C116.03 3.52 116.06 5.8 116.06 8.07 C116.06 8.8 116.06 9.52 116.07 10.27 C116.07 12.73 116.07 15.19 116.07 17.65 C116.07 19.42 116.08 21.19 116.08 22.96 C116.09 27.85 116.09 32.74 116.09 37.63 C116.09 42.9 116.1 48.17 116.11 53.43 C116.12 64.96 116.13 76.5 116.13 88.03 C116.13 95.23 116.14 102.44 116.14 109.64 C116.15 129.6 116.16 149.55 116.17 169.51 C116.17 170.79 116.17 172.07 116.17 173.38 C116.17 174.66 116.17 175.95 116.17 177.27 C116.17 179.86 116.17 182.46 116.17 185.06 C116.17 186.35 116.17 187.64 116.17 188.96 C116.17 209.79 116.19 230.62 116.22 251.45 C116.24 272.84 116.25 294.24 116.25 315.63 C116.25 327.64 116.26 339.65 116.28 351.66 C116.29 361.9 116.3 372.13 116.29 382.37 C116.29 387.59 116.29 392.8 116.3 398.02 C116.44 452.57 109.14 504.87 69.5 545.72 C53.41 561.72 33.61 573.56 11.93 580.25 C10.63 580.67 9.33 581.09 8.03 581.51 C-26.44 592.41 -65.52 594.55 -101.07 588.25 C-101.83 588.13 -102.58 588 -103.36 587.88 C-138.7 582.16 -172.58 567.32 -198.72 542.48 C-200.82 540.49 -202.97 538.65 -205.2 536.81 C-210.14 532.5 -214.04 527.4 -218.07 522.25 C-219.3 520.73 -219.3 520.73 -220.55 519.18 C-226.84 511.31 -232.15 503.04 -237.07 494.25 C-237.92 492.75 -237.92 492.75 -238.78 491.22 C-242.06 485.07 -242.06 485.07 -242.1 482.24 C-240.45 479.05 -237.49 477.75 -234.45 476.06 C-233.07 475.27 -231.7 474.47 -230.32 473.68 C-229.61 473.28 -228.91 472.87 -228.18 472.46 C-224.91 470.58 -221.68 468.63 -218.45 466.69 C-217.34 466.03 -216.23 465.36 -215.09 464.68 C-211.13 462.3 -207.2 459.87 -203.26 457.44 C-193.42 451.38 -183.53 445.38 -173.63 439.4 C-171.32 438.01 -169.01 436.61 -166.71 435.2 C-163.67 433.36 -160.62 431.52 -157.57 429.69 C-156.66 429.13 -155.76 428.58 -154.82 428.01 C-153.99 427.51 -153.15 427.01 -152.29 426.49 C-151.57 426.06 -150.84 425.62 -150.1 425.17 C-148.07 424.25 -148.07 424.25 -144.07 424.25 C-142.66 425.89 -142.66 425.89 -141.37 428.2 C-140.65 429.46 -140.65 429.46 -139.91 430.75 C-139.41 431.66 -138.9 432.56 -138.38 433.5 C-133.73 441.55 -128.95 449.03 -123.07 456.25 C-122.46 457.03 -121.86 457.81 -121.23 458.62 C-112.93 468.75 -101.5 476.25 -89.07 480.25 C-87.95 480.61 -86.83 480.98 -85.67 481.35 C-79.84 482.76 -73.85 482.58 -67.88 482.56 C-65.84 482.56 -63.8 482.58 -61.75 482.61 C-47.02 482.68 -31.78 479.48 -20.66 469.06 C-5.58 451.84 -4.6 428.6 -4.69 406.8 C-4.68 405.04 -4.68 403.28 -4.67 401.52 C-4.66 396.74 -4.66 391.97 -4.67 387.2 C-4.67 382.02 -4.66 376.85 -4.65 371.68 C-4.63 362.74 -4.63 353.8 -4.63 344.86 C-4.63 331.93 -4.62 319 -4.59 306.07 C-4.56 285.09 -4.54 264.11 -4.53 243.12 C-4.53 241.25 -4.53 241.25 -4.52 239.33 C-4.52 234.25 -4.52 229.17 -4.52 224.09 C-4.51 210.07 -4.5 196.05 -4.48 182.03 C-4.48 180.77 -4.48 179.51 -4.48 178.22 C-4.46 157.29 -4.44 136.36 -4.41 115.42 C-4.39 102.52 -4.38 89.61 -4.38 76.71 C-4.37 67.88 -4.37 59.06 -4.35 50.24 C-4.35 45.14 -4.34 40.04 -4.35 34.95 C-4.35 30.29 -4.35 25.63 -4.33 20.98 C-4.33 19.28 -4.33 17.59 -4.34 15.9 C-4.34 13.62 -4.33 11.33 -4.32 9.05 C-4.32 7.77 -4.32 6.5 -4.32 5.19 C-4.03 1.78 -3.55 0.43 0 0 Z " fill="#30342E" transform="translate(578.0705347061157,586.7511110305786)"/>
</svg>
