<?xml version="1.0" standalone="no"?>
<!DOCTYPE svg PUBLIC "-//W3C//DTD SVG 20010904//EN"
 "http://www.w3.org/TR/2001/REC-SVG-20010904/DTD/svg10.dtd">
<svg version="1.0" xmlns="http://www.w3.org/2000/svg"
 width="600.000000pt" height="600.000000pt" viewBox="0 0 600.000000 600.000000"
 preserveAspectRatio="xMidYMid meet">

<g transform="translate(0.000000,600.000000) scale(0.100000,-0.100000)"
fill="#fff" stroke="none">
<path d="M2881 4717 c-62 -678 -116 -1249 -120 -1269 l-6 -37 -445 370 c-245
204 -463 385 -485 402 l-40 32 32 -40 c17 -22 198 -240 402 -485 l370 -445
-37 -6 c-20 -4 -591 -58 -1269 -120 -678 -63 -1229 -117 -1225 -120 4 -3 556
-56 1227 -118 671 -62 1239 -115 1262 -119 l41 -7 -370 -445 c-203 -245 -384
-463 -401 -485 l-32 -40 40 32 c22 17 240 198 485 402 l445 370 6 -37 c4 -20
58 -591 120 -1269 63 -678 117 -1229 120 -1225 3 4 56 556 118 1227 62 671
115 1239 119 1262 l7 42 445 -370 c245 -204 463 -385 485 -402 l40 -32 -32 40
c-17 22 -198 240 -402 485 l-370 445 42 7 c23 4 591 57 1262 119 671 62 1223
115 1227 118 4 3 -547 57 -1225 120 -678 62 -1249 116 -1269 120 l-37 6 370
445 c204 245 385 463 402 485 l32 40 -40 -32 c-22 -17 -240 -198 -485 -401
l-445 -370 -7 41 c-4 23 -57 591 -119 1262 -62 671 -115 1223 -118 1227 -3 4
-57 -547 -120 -1225z"/>
</g>
</svg>
